<?xml version="1.0" ?><svg id="Layer_1" style="enable-background:new 0 0 64 64;" version="1.1" viewBox="0 0 64 64" xml:space="preserve" xmlns="http://www.w3.org/2000/svg" xmlns:xlink="http://www.w3.org/1999/xlink"><style type="text/css">
	.st0{fill-rule:evenodd;clip-rule:evenodd;fill:#389BDC;}
	.st1{fill-rule:evenodd;clip-rule:evenodd;fill:#FF9933;}
	.st2{fill-rule:evenodd;clip-rule:evenodd;fill:#FFFFCC;}
	.st3{fill-rule:evenodd;clip-rule:evenodd;fill:#EBD79F;}
	.st4{fill-rule:evenodd;clip-rule:evenodd;fill:#FF0000;}
	.st5{fill-rule:evenodd;clip-rule:evenodd;fill:#232E7A;}
	.st6{fill-rule:evenodd;clip-rule:evenodd;fill:#E6E6E6;}
	.st7{fill-rule:evenodd;clip-rule:evenodd;fill:#DE9800;}
	.st8{fill-rule:evenodd;clip-rule:evenodd;fill:#00FFFF;}
	.st9{fill-rule:evenodd;clip-rule:evenodd;fill:#FFCC00;}
	.st10{fill-rule:evenodd;clip-rule:evenodd;fill:#FF3399;}
	.st11{fill-rule:evenodd;clip-rule:evenodd;fill:#6666CC;}
	.st12{fill-rule:evenodd;clip-rule:evenodd;fill:#BA8E8E;}
</style><g><path class="st8" d="M55.8,44.3c1-2.6,1.1-5.1,0-7.7c-0.3-0.7-0.6-1.4-1-2.1c-0.2-0.4-0.6-1.1-0.3-1.5c0.1-0.1,0.1-0.1,0.2-0.2   c1.2-0.8,2.6,2.3,2.9,3c1,2.4,1.3,5.2,0.9,7.7c-1.7,9.9-13.3,12-21.6,12.2c-0.2,0-0.4-0.2-0.4-0.4l-0.3-4c0-0.1,0-0.3,0.1-0.3   c0.1-0.1,0.2-0.1,0.4-0.1C43.1,52.6,53,51.3,55.8,44.3L55.8,44.3z M35.2,56.1l-3.1,3c-0.2,0.2-0.4,0.1-0.6,0l-3-3   c-0.1-0.1-0.1-0.2-0.1-0.3l2.4-39.5c0-0.2,0.2-0.4,0.4-0.4l1.1,0c0.2,0,0.4,0.2,0.4,0.4l2.6,39.5C35.3,55.9,35.3,56,35.2,56.1   L35.2,56.1z M26.8,55.6c-6.2-0.2-16.3-1.9-19.7-7.7c-1.9-3.2-2.3-7.2-1.3-10.7c0.3-1.2,0.9-2.5,1.7-3.5c0.3-0.4,1.2-1.4,1.8-1   c0.5,0.4,0,1.3-0.2,1.8c-1.7,3-2.3,6.4-1,9.6c1.3,3,3.9,5.2,6.9,6.4c3.8,1.5,8,1.5,11.9,0.5c0.1,0,0.3,0,0.4,0.1   c0.1,0.1,0.2,0.2,0.1,0.3l-0.2,3.9C27.2,55.4,27,55.6,26.8,55.6L26.8,55.6z M19.2,23.2c0,0.2,0.2,0.4,0.4,0.4h9.1   c0.2,0,0.4-0.2,0.4-0.4l0-1c0-0.1,0-0.2-0.1-0.3c-0.1-0.1-0.2-0.1-0.3-0.1h-9.1c-0.2,0-0.4,0.2-0.4,0.4V23.2L19.2,23.2z M27.8,13.1   c-1.3-1.2-2-2.8-1.6-4.6c0.4-1.9,1.9-3.5,3.7-4.2c2.1-0.8,4.3-0.3,6,1.2c1.3,1.2,2,2.8,1.6,4.6c-0.4,1.9-1.9,3.5-3.7,4.2   C31.7,15.2,29.5,14.7,27.8,13.1L27.8,13.1z M31.8,5.7c-5,0-5,7.3,0,7.3S36.9,5.7,31.8,5.7z"/><path class="st2" d="M55.8,44.3c1-2.6,1.1-5.1,0-7.7c-0.3-0.7-0.6-1.4-1-2.1c-0.2-0.4-0.6-1.1-0.3-1.5c0.1-0.1,0.1-0.1,0.2-0.2   c1.2-0.8,2.6,2.3,2.9,3c1,2.4,1.3,5.2,0.9,7.7c-1.7,9.9-13.3,12-21.6,12.2c-0.2,0-0.4-0.2-0.4-0.4l-0.3-4c0-0.1,0-0.3,0.1-0.3   c0.1-0.1,0.2-0.1,0.4-0.1C43.1,52.6,53,51.3,55.8,44.3L55.8,44.3z M31.7,16.3L32,59.1l3.1-3c0.1-0.1,0.1-0.2,0.1-0.3l-2.6-39.5   c0-0.1,0-0.1,0-0.2C32.1,16.2,31.7,16.3,31.7,16.3z"/><rect class="st2" height="2.1" width="10.2" x="34.2" y="21.7"/><g><path class="st5" d="M31.8,2.4c6,0,9.8,6.9,5.4,11.5c1.3,0.9,3,2.8,3.6,6.2c5.8,0,5-0.7,5,4c0,1.5-2.6,1-5.1,1    c-0.6,4.5-2.5,6.7-5.4,8.2l1.1,15.7c11.4,3.7,22.7-3.9,17-13.8c-1-1.7-1.5-2.7,0.4-3.9c3.9-2.5,9.4,8.6,4.3,17.3    c-5,8.5-21.7,8.5-21.8,8.5l0-0.1l-4.7,4.5l-4.4-4.4c-1.9,0-16.9-0.5-21.6-8.5C0.7,40,6.3,28.9,10.1,31.3c4,2.5-3.3,5.1-0.4,12.3    c1.8,4.6,7.4,6.3,12,6.3c-3.9-5.8-0.3-12.3,6.4-15.6l0.6-9.2c-12.7,0-11.1,1-11.1-4c0-0.6,0.4-1,1-1H29l0.3-4.4    C22,13.1,23.6,2.4,31.8,2.4L31.8,2.4z M35.6,15.3c-0.4,0.3-0.9,0.5-1.4,0.6l0.3,4.3h4.3C38.2,17.1,36.4,15.7,35.6,15.3L35.6,15.3z     M38.8,25.2h-3.9l0.4,5.9C37.1,29.9,38.3,28.2,38.8,25.2L38.8,25.2z M24.1,49.8l3.1-0.6L28,36.7C21.9,40.2,20.5,45.9,24.1,49.8    L24.1,49.8z M26.8,55.2l0.2-3.9C13.5,54.8,2.6,45,8.8,34.3c1.4-2.5-1.4-1.2-2.5,3c-0.8,2.9-0.8,6.9,1.3,10.4    C11.3,54.2,23.7,55.1,26.8,55.2L26.8,55.2z M36.6,51.2l0.3,4C67.4,54.4,57,31.7,55,33c-0.9,0.6,3.9,4.6,1.2,11.4    C53.4,51.6,43.4,53.1,36.6,51.2L36.6,51.2z M34.7,22.8l0,0.4h9.1v-1h-9.2L34.7,22.8L34.7,22.8z M28.7,22.2h-9.1v1h9.1L28.7,22.2    L28.7,22.2z M31.8,5.3c-5.6,0-5.6,8.1,0,8.1C37.4,13.4,37.4,5.3,31.8,5.3L31.8,5.3z M33.4,7.9c-2.1-1.9-5.2,0.9-3.2,2.9    C32.3,12.7,35.5,9.8,33.4,7.9L33.4,7.9z M32.3,16.3l-1.1,0l-2.4,39.5l3,3l3.1-3L32.3,16.3L32.3,16.3z M35.6,5.9    c-4.9-4.6-12.4,2.3-7.5,6.9C33,17.4,40.5,10.5,35.6,5.9z"/></g></g></svg>