<?xml version="1.0" ?><svg id="Layer_1" style="enable-background:new 0 0 64 64;" version="1.1" viewBox="0 0 64 64" xml:space="preserve" xmlns="http://www.w3.org/2000/svg" xmlns:xlink="http://www.w3.org/1999/xlink"><style type="text/css">
	.st0{fill-rule:evenodd;clip-rule:evenodd;fill:#389BDC;}
	.st1{fill-rule:evenodd;clip-rule:evenodd;fill:#FF9933;}
	.st2{fill-rule:evenodd;clip-rule:evenodd;fill:#FFFFCC;}
	.st3{fill-rule:evenodd;clip-rule:evenodd;fill:#EBD79F;}
	.st4{fill-rule:evenodd;clip-rule:evenodd;fill:#FF0000;}
	.st5{fill-rule:evenodd;clip-rule:evenodd;fill:#232E7A;}
	.st6{fill-rule:evenodd;clip-rule:evenodd;fill:#E6E6E6;}
	.st7{fill-rule:evenodd;clip-rule:evenodd;fill:#DE9800;}
	.st8{fill-rule:evenodd;clip-rule:evenodd;fill:#00FFFF;}
	.st9{fill-rule:evenodd;clip-rule:evenodd;fill:#FFCC00;}
	.st10{fill-rule:evenodd;clip-rule:evenodd;fill:#FF3399;}
	.st11{fill-rule:evenodd;clip-rule:evenodd;fill:#6666CC;}
	.st12{fill-rule:evenodd;clip-rule:evenodd;fill:#BA8E8E;}
</style><g><path class="st2" d="M39.9,26.4c-0.9,0-1.7-0.3-2.1-1.1c-1.2-2.2,1.4-5.8,3.8-3.3C43.1,23.5,42.1,26.4,39.9,26.4L39.9,26.4z    M24,26.4c-0.9,0-1.7-0.3-2.1-1.1c-1.2-2.2,1.4-5.8,3.8-3.3C27.2,23.5,26.2,26.4,24,26.4z"/><path class="st8" d="M53.8,52.7c1.4-0.7,2.7-3,2.2-4.5c-0.1-0.2,0-0.4,0.1-0.6c0.4-0.4-0.1-1.1-0.5-0.7c-0.3,0.3-0.6,0.5-1,0.5   c-2.3,0.1-4.1-5.9,0.2-6.3c0.8-0.1,1.5,0.1,2.2,0.5c2,1.2,2.5,4.1,2.4,6.2c-0.2,3-1.9,6.6-5.5,6c-0.3,0-0.5-0.2-0.5-0.5   C53.4,53.1,53.6,52.8,53.8,52.7L53.8,52.7z M7.5,33.9c2.4,0.8,5.4-0.6,6.9-2.5c0.2-0.2,0.4-0.3,0.7-0.2c0.2,0.1,0.4,0.3,0.4,0.6   c0,1.3,0.1,2.6,0.2,3.9c0,0.2-0.1,0.5-0.3,0.6C14,37,11.7,37,10.2,36.7c-1.2-0.3-2.5-0.8-3.3-1.8c-0.2-0.2-0.2-0.5-0.1-0.7   C7,33.9,7.3,33.8,7.5,33.9L7.5,33.9z M7.7,46.8c0,0.1-0.1,0.3-0.1,0.3c-0.2,0.7,0,2,0.2,2.7c0.3,1.3,1.1,2.5,2.4,2.9   c0.3,0.1,0.4,0.3,0.4,0.6c0,0.3-0.2,0.5-0.5,0.6c-3.7,0.6-5.4-2.6-5.6-5.8c-0.2-2.1,0.2-4.6,2-6c1.2-0.9,2.9-1.1,4.1-0.2   c1.3,1,1.3,2.7,0.7,4c-0.3,0.8-0.9,1.7-1.9,1.7C8.7,47.5,8.1,46.9,7.7,46.8L7.7,46.8z M11.5,54.3c-0.2,0.1-0.4,0.3-0.4,0.6   c0,0.3,0.2,0.5,0.4,0.6c2.6,0.9,5.3,0.9,7.3-1.2c0.1-0.1,0.1-0.2,0.2-0.4c0.1-2.4,0.8-5.1,1.7-7.3c1-2.3,1.1-4.6,0.7-7.1   c-0.1-0.5-0.7-3.1-0.4-3.4c0,0,0.1-0.1,0.1-0.1c0,0,0,0,0,0c0.7,0.1,1.2,2.6,1.2,3.1c0.3,2.2,0.1,4.7-0.6,6.8   c-0.1,0.4-0.3,0.7-0.4,1.1c-1.1,2.6-2.2,6-1.7,8.8c0.3,1.8,1.4,3.3,3.2,3.8c1.7,0.5,3.5-0.1,4.7-1.3c1.5-1.4,2-3.4,1.5-5.4   c-0.3-1.2-1.1-2.2-2.5-2.2c-0.9,0-2,0.5-2.3,1.4c-0.1,0.5-0.9,0.3-0.8-0.2c0.4-1.4,1.6-2.2,3-2.1c0.2,0,0.3,0,0.5-0.2   c0.1-0.1,0.2-0.3,0.2-0.5C27,36.4,37,36.4,36.7,49c0,0.2,0.1,0.3,0.2,0.5c0.1,0.1,0.3,0.2,0.5,0.2c2.5-0.2,3.7,2.3,2.8,2.6   c-0.5,0.1-0.5-0.2-0.6-0.7c-0.1-0.2-0.2-0.3-0.3-0.5c-0.7-0.9-1.9-0.7-2.8-0.4c-4,1.4-0.5,11.2,5.6,8.6c4.3-1.8,2.1-9.3,0.8-12.5   c-0.2-0.3-0.3-0.7-0.4-1.1c-0.7-2.1-0.9-4.6-0.6-6.8c0.1-0.5,0.6-3,1.2-3.1c0,0,0,0,0,0c0,0,0.1,0,0.1,0.1c0.3,0.3-0.3,2.9-0.4,3.4   c-0.4,2.5-0.3,4.8,0.7,7.1c1,2.3,1.7,5.1,1.7,7.5c0,0.2,0.1,0.3,0.2,0.4c2,2,4.7,1.8,7.1,1c0.2-0.1,0.4-0.3,0.4-0.6   c0-0.3-0.1-0.5-0.4-0.6c-6.2-2.5-5.6-11.3-5.2-16.7c0.2-3.6,0.7-7.4,0.5-11l-0.2-4.7c-0.3-6.1-2.4-12.1-7.9-15.3   c-2.1-1.2-5.2-2.2-7.7-2.1C16.9,4.7,15.6,19.9,16.2,31.6c0.1,2.4,0.3,4.9,0.6,7.3C17.3,43.9,17,52.1,11.5,54.3L11.5,54.3z    M48.3,35.9c0.1-1.3,0.2-2.7,0.2-4c0-0.3,0.2-0.5,0.4-0.6c0.2-0.1,0.5,0,0.7,0.2c1.6,2,4.6,3.2,7.1,2.1c0.2-0.1,0.5,0,0.7,0.2   c0.2,0.2,0.2,0.5,0.1,0.7c-0.2,0.3-0.5,0.7-0.8,0.9c-0.8,0.7-1.8,1.2-2.9,1.4c-1.5,0.3-3.8,0.3-5.1-0.4   C48.4,36.4,48.3,36.2,48.3,35.9L48.3,35.9z M39.9,20.4c4.2,0,4.2,6.8,0,6.8C35.7,27.2,35.7,20.4,39.9,20.4L39.9,20.4z M26.2,38.6   c1.1-1.6,2.9-2.5,4.7-2.8c0.5-0.1,2.6-0.1,2.8,0.6c0,0.1-0.1,0.3-0.1,0.4c-0.1,0.1-2-0.3-2.3-0.3c-1.9-0.1-3.3,1-4.4,2.5   c-0.6,0.8-1,1.8-1,2.8C25.7,42.9,24,41.8,26.2,38.6L26.2,38.6z M33,7.6c0.5,0,0.5,0.8,0,0.8c-0.3,0-2.5,0.5-2.7-0.1   C30.3,7.6,32.6,7.6,33,7.6L33,7.6z M27.4,8.8c0.5-0.2,0.8,0.5,0.3,0.7c-2.8,1.1-4.7,3-6,5.7c-0.4,0.8-0.7,1.7-1,2.5   c-0.1,0.1-0.4,0.9-0.5,0.9c0,0,0,0,0,0c-0.1,0-0.2,0-0.2-0.1c-0.5-0.5,0.3-2.3,0.5-2.8c0.8-1.7,2.2-3.4,3.6-4.7   C25,10.2,26.2,9.3,27.4,8.8L27.4,8.8z M24,20.4c4.2,0,4.2,6.8,0,6.8S19.7,20.4,24,20.4z"/><path class="st2" d="M24.6,51.5c0.7,0,1.7,0.4,2.6,2.2c1,2.1-0.6,4.4-1.8,5.6c0.8-0.2,1.6-0.7,2.2-1.2c1.5-1.4,2-3.4,1.5-5.4   c-0.3-1.2-1.1-2.2-2.5-2.2C25.9,50.4,25,50.8,24.6,51.5L24.6,51.5z M27.3,49c-0.4,0-0.9,0.3-1.4,0.6c0.2,0,0.5,0,0.7,0   c0.2,0,0.3,0,0.5-0.2C27.3,49.3,27.3,49.2,27.3,49z"/><path class="st2" d="M53.3,41.7c0.4-0.3,0.9-0.5,1.5-0.5c0.8-0.1,1.5,0.1,2.2,0.5c2,1.2,2.5,4.1,2.4,6.2c-0.1,2.2-1.1,4.6-2.9,5.6   c1.3-2.3,2.2-5.1,1.2-7.5C56.8,43.7,55,42.4,53.3,41.7z"/><path class="st2" d="M29.4,4.6C33.2,6.3,37,8.9,39.7,13c6.5,9.9,2.7,32.2,8.6,42.9c1.4,0.2,2.8,0,4.2-0.5c0.2-0.1,0.4-0.3,0.4-0.6   c0,0,0-0.1,0-0.1c-3.2-1.2-5.8-4.4-5.8-11.6v0c0-2,0.1-4,0.2-5.6c0.2-3.6,0.7-7.4,0.5-11l-0.2-4.7c-0.3-6.1-2.4-12.1-7.9-15.3   c-2.1-1.2-5.2-2.2-7.7-2.1C31.1,4.4,30.2,4.5,29.4,4.6z"/><path class="st5" d="M32,5C15.6,5.4,15.9,23.9,17.4,38.8c0.5,5.2,0.3,13.7-5.7,16c2.1,0.7,4.7,1,6.6-1.1c0.1-2.6,0.8-5.4,1.8-7.5   c2.4-5.6-1.2-10.3,0.8-11c1.9-0.6,3.3,6.5,1,11.7c-6.8,15.8,8.5,13.8,6.6,5.8c-0.6-2.5-3.2-1.9-3.6-0.7c-0.3,1.2-2.3,0.7-1.9-0.5   c0,0,0.7-2.8,3.7-2.5c-0.4-13.5,10.9-13.5,10.6,0c3.3-0.3,4.7,3.3,3,3.7c-2,0.5-0.4-2.7-3.7-1.5c-3.2,1.1-0.2,9.8,5.1,7.5   c3.9-1.7,1.5-9.2,0.5-11.7c-2.3-5.3-0.9-12.3,1-11.7c2,0.6-1.6,5.4,0.8,11c0.9,2.2,1.7,5.1,1.8,7.8c1.9,1.9,4.5,1.5,6.5,0.8   c-9.1-3.6-4.6-19.1-5.1-28.3L47,21.8C46.2,4.8,32.5,5,32,5L32,5z M26.4,42c-0.1,2-3.8,0.7-0.7-3.7c3.2-4.5,10-3.4,8.4-1   c-0.8,1.1-3.8-2-6.7,2.2C26.8,40.2,26.5,41.1,26.4,42L26.4,42z M33,7c1.3,0,1.3,2,0,2c-0.1,0-3,0.8-3.2-0.6C29.5,6.8,33,7,33,7   L33,7z M27.2,8.3c1.2-0.5,1.9,1.4,0.8,1.8c-6.9,2.8-6,9.4-7.9,9.1C17.3,18.8,21.6,10.6,27.2,8.3L27.2,8.3z M49.2,26.5   c0.8,8.9,10.8,7,9.7,1.2c-0.4-2-2.8-1.2-2,0.8c0.5,1.2-1.3,2-1.8,0.8c-2.8-6.6,9.2-6.2,5.2,1.7c-0.2,0.4-0.5,0.8-0.7,1.2   c0,0.9-0.4,4.5-4.6,5.9c-2.8,0.9-4.9,0.5-6.2,0c-1.8,18,6,14.2,6.1,11.1c-3.8,0.9-6.3-8.7-0.1-9.4c6.9-0.7,8,11,3.3,14.4   c-0.6,0.4-1.2,0.7-1.9,0.9c-1.3,0.8-6.5,3.8-10.5,1.3c-1.7,8.5-14,4.4-12-4c0.3-1.2,0.9-2.2,1.7-2.7c0.7-11.5-7.2-11.5-6.5,0   c5.1,3.2,0,14-7.2,10.9c-1.8-0.8-2.7-2.5-3.1-4.3c-4.3,2.9-10.6-0.7-12.4-2C1.4,50.8,2.4,39,9.3,39.8c6.4,0.7,3.5,10.7-0.4,9.3   c0.6,3.5,8,6.1,6.3-11.2c-3.8,1.4-9.5,0.4-10.9-5.5c-0.2-0.5-3.7-6.6,1.1-7.8c4.5-1.1,4.4,6.2,2.1,5.2c-1.3-0.6,0.6-3.8-1.6-3.3   c-2.6,0.6,0.2,8.3,5.4,5.7c4.6-2.3,3.6-7.6,3.7-10.5c1.2-25.1,32.8-25.1,34,0L49.2,26.5L49.2,26.5z M56.9,34.2   c-1.7,2.7-6.4,2.6-8,1.7c0.1-1.2,0.2-2.5,0.2-4C50.9,34.2,54.3,35.4,56.9,34.2L56.9,34.2z M56.6,48c1-1-0.5-2.6-1.4-1.5   c-1.5,1.8-4.3-4.4-0.3-4.8c5.6-0.6,5.3,12.4-0.9,11.5C56.1,52.2,57.1,49.4,56.6,48L56.6,48z M10.1,53.2c-3,0.5-4.7-2-4.9-5.3   c-0.6-8.3,7.8-7.3,5.7-2.3c-1.4,3.3-3.2-1.2-3.8,1.3l0,0C6.9,47.5,6.7,52.2,10.1,53.2L10.1,53.2z M7.3,34.5   c2.6,0.8,5.9-0.5,7.5-2.7c0,1.5,0.1,2.8,0.2,4C13.6,36.5,9.3,36.7,7.3,34.5L7.3,34.5z M39.9,19.8c5,0,5,8,0,8   C34.9,27.8,34.9,19.8,39.9,19.8L39.9,19.8z M41.2,22.4c1.1,1.2,0.4,3.4-1.3,3.4C36.3,25.8,38.7,19.8,41.2,22.4L41.2,22.4z M24,19.8   c5,0,5,8,0,8C18.9,27.8,18.9,19.8,24,19.8L24,19.8z M25.3,22.4c1.1,1.2,0.4,3.4-1.3,3.4C20.4,25.8,22.8,19.8,25.3,22.4z"/></g></svg>