<?xml version="1.0" ?><svg id="Layer_1" style="enable-background:new 0 0 64 64;" version="1.1" viewBox="0 0 64 64" xml:space="preserve" xmlns="http://www.w3.org/2000/svg" xmlns:xlink="http://www.w3.org/1999/xlink"><style type="text/css">
	.st0{fill-rule:evenodd;clip-rule:evenodd;fill:#389BDC;}
	.st1{fill-rule:evenodd;clip-rule:evenodd;fill:#FF9933;}
	.st2{fill-rule:evenodd;clip-rule:evenodd;fill:#FFFFCC;}
	.st3{fill-rule:evenodd;clip-rule:evenodd;fill:#EBD79F;}
	.st4{fill-rule:evenodd;clip-rule:evenodd;fill:#FF0000;}
	.st5{fill-rule:evenodd;clip-rule:evenodd;fill:#232E7A;}
	.st6{fill-rule:evenodd;clip-rule:evenodd;fill:#E6E6E6;}
	.st7{fill-rule:evenodd;clip-rule:evenodd;fill:#DE9800;}
	.st8{fill-rule:evenodd;clip-rule:evenodd;fill:#00FFFF;}
	.st9{fill-rule:evenodd;clip-rule:evenodd;fill:#FFCC00;}
	.st10{fill-rule:evenodd;clip-rule:evenodd;fill:#FF3399;}
	.st11{fill-rule:evenodd;clip-rule:evenodd;fill:#6666CC;}
	.st12{fill-rule:evenodd;clip-rule:evenodd;fill:#BA8E8E;}
</style><g><path class="st8" d="M50,25.7c1.5,5.3,1.5,11-0.5,16.1c-1.8,4.5-5,8.3-9.3,10.5c-6.3,3.2-13.3,2.2-19.1-1.5   c-0.2-0.1-0.3-0.4-0.3-0.7c0.1-0.3,0.3-0.4,0.5-0.5c7.1-0.5,13.6-4.4,16-11.3c2.3-6.6,0.1-13.4-4.8-18.2c-1.4-1.4-2.8-3-3.7-4.8   c-1.3-2.6-1.3-5.2,0.7-7.5c0.7-0.8,1.5-1.4,2.6-1.6c4.2-0.8,9.1,5.2,11.3,8.2c1.6,2.1,3,4.3,4.3,6.6C48.5,22.4,49.6,24.3,50,25.7   L50,25.7z M18.6,50.8c-1.1,2-3.1,3-5.4,3.1c-1.5,0.1-3.4,0.5-4,2.1C9,56.5,9,57,8.9,57.5c0,0.4,0,1-0.1,1.3   c-0.1,0.3-0.3,0.4-0.6,0.4c-2.1-0.2-3.5-3.1-3.7-4.9C4,51,6.1,48.7,9.2,47.7c0.1,0,0.3,0,0.4,0c1.4,0.5,2.8,1,4.2,1.3   c1.4,0.4,3,0.6,4.4,0.9c0.2,0,0.3,0.2,0.4,0.3C18.7,50.4,18.7,50.6,18.6,50.8L18.6,50.8z M18.3,49c0.2,0,0.4-0.1,0.5-0.2   c0.1-0.1,0.2-0.3,0.1-0.5c-0.6-2.8-1.5-5.5-3.3-7.7c-1.3-1.6-2.8-2.6-4.4-3.8c-2.6-1.8-4.2-3.3-5.3-6.3c-0.1-0.3-0.4-0.4-0.7-0.4   c-0.3,0-0.5,0.3-0.5,0.6c-0.2,4,0.3,13.2,4,15.6C11.2,47.9,15.3,48.8,18.3,49L18.3,49z M26.7,36.6c0.3,0.1,0.6-0.1,0.7-0.4l4.2-13   c0.1-0.3,0-0.5-0.2-0.7c-0.2-0.1-0.5-0.1-0.7,0.1l-10.7,9.8c-0.1,0.1-0.2,0.3-0.2,0.4c0,0.2,0.1,0.3,0.2,0.4   C21.8,35,24.1,36.1,26.7,36.6L26.7,36.6z M37.4,32.4c0,0,0-0.1,0-0.1c0.3-2.7-2.2-7.6-3.9-9.7c-0.1-0.2-0.4-0.3-0.6-0.2   c-0.2,0-0.4,0.2-0.5,0.4L28.3,36c-0.1,0.2,0,0.4,0.1,0.5s0.3,0.2,0.5,0.3c2,0,4-0.6,5.7-1.7C35.4,34.6,37.2,33.4,37.4,32.4   L37.4,32.4z M51,26.3c0,0.2,0.2,0.3,0.3,0.4c0.2,0.1,0.4,0.1,0.5,0c3.7-1.9,6-5.5,7-9.4c0-0.2,0-0.3-0.1-0.5   c-0.1-0.1-0.2-0.2-0.4-0.3l-12.5-2.2c-0.3,0-0.5,0.1-0.6,0.3c-0.1,0.2-0.1,0.5,0.1,0.7C48,18.5,49.9,22.3,51,26.3L51,26.3z    M45.4,12.4c-0.2,0.1-0.3,0.4-0.3,0.6c0.1,0.2,0.2,0.4,0.5,0.5l13,2.3c0.2,0,0.3,0,0.5-0.1c0.1-0.1,0.2-0.2,0.2-0.4   c0.5-3.2,0.4-7.4-2-10c-0.2-0.2-0.5-0.2-0.8-0.1L45.4,12.4L45.4,12.4z M36.7,19.6c0,0-0.1,0.1-0.1,0.1c-0.1,0.2,0.5,1,0.6,1.2   c0.6,1,1.3,1.9,1.8,3c1.9,3.8,2.2,8,1.5,12.2c-0.1,0.5,0.7,0.6,0.8,0.1c0.6-4.2,0.2-8.8-1.5-12.7c-0.5-1.1-1.1-2.3-1.9-3.2   C37.8,20.2,37.1,19.5,36.7,19.6C36.8,19.6,36.8,19.6,36.7,19.6L36.7,19.6z M27.6,51.1c0.7-0.1,6.3-1.1,5.7-2.3   c0-0.1-0.1-0.1-0.1-0.2c-0.3-0.1-1.5,0.4-1.9,0.6c-1.2,0.5-2.4,1-3.7,1C27.1,50.3,27.1,51.1,27.6,51.1L27.6,51.1z M38.3,43   c-0.2,0.4,0.5,0.8,0.7,0.4c0.2-0.4,1.5-2.3,0.8-2.6C39.2,40.5,38.5,42.6,38.3,43L38.3,43z M31.5,13.4c-0.1-1,0.1-1.9,0.5-2.8   c0.1-0.2,0.6-0.9,0.6-1c0-0.1-0.1-0.2-0.1-0.2c-0.1-0.1-0.1-0.1-0.2-0.1c-0.4,0-0.9,0.7-1,1c-0.5,1-0.6,2.2-0.5,3.2   C30.8,13.9,31.6,13.9,31.5,13.4L31.5,13.4z M37.4,13c-0.6,0.5,0.6,1.8,1.2,1.3C39.2,13.8,38,12.5,37.4,13L37.4,13z M14.3,43.6   c0.1,0.3,1.1,2.8,0.4,2.9c-0.1,0-0.2,0-0.3-0.1c-0.1,0-0.2-0.1-0.2-0.2c0,0,0,0,0-0.1c0-0.8-1.1-3.3-1.6-3.9   C12.3,41.9,13,40.6,14.3,43.6L14.3,43.6z M8.2,38.2c-0.2-0.4,0.4-0.8,0.7-0.4c0.3,0.5,2.1,1.4,1.8,1.9C10.3,40.6,8.6,38.6,8.2,38.2   z"/><path class="st2" d="M50.9,30.6c0.4,3.8,0,7.7-1.5,11.3c-1.8,4.5-5,8.3-9.3,10.5c-1.8,0.9-3.6,1.5-5.5,1.7   c8.5-4.9,17.2-13.6,12.1-27.3C42.6,15.9,36,9.7,31.5,6.5c0.2-0.1,0.4-0.1,0.6-0.2c4.2-0.8,9.1,5.2,11.3,8.2c1.6,2.1,3,4.3,4.3,6.6   c0.5,0.9,1.2,2,1.6,3.1C50.1,26.2,50.6,28.3,50.9,30.6z"/><path class="st0" d="M51,26.3c-1-4-3-7.8-5.6-11c-0.2-0.2-0.2-0.5-0.1-0.7c0.1-0.2,0.4-0.3,0.6-0.3l12.5,2.2c0.2,0,0.3,0.1,0.4,0.3   c0.1,0.1,0.1,0.3,0.1,0.5c-1,3.9-3.4,7.5-7,9.4c-0.2,0.1-0.3,0.1-0.5,0C51.1,26.7,51,26.5,51,26.3L51,26.3z M18.6,50.8   c-1.1,2-3.1,3-5.4,3.1c-1.5,0.1-3.4,0.5-4,2.1C9,56.5,9,57,8.9,57.5c0,0.4,0,1-0.1,1.3c-0.1,0.3-0.3,0.4-0.6,0.4   c-2.1-0.2-3.5-3.1-3.7-4.9C4,51,6.1,48.7,9.2,47.7c0.1,0,0.3,0,0.4,0c1.4,0.5,2.8,1,4.2,1.3c1.4,0.4,3,0.6,4.4,0.9   c0.2,0,0.3,0.2,0.4,0.3C18.7,50.4,18.7,50.6,18.6,50.8L18.6,50.8z M18.3,49c0.2,0,0.4-0.1,0.5-0.2c0.1-0.1,0.2-0.3,0.1-0.5   c-0.6-2.8-1.5-5.5-3.3-7.7c-1.3-1.6-2.8-2.6-4.4-3.8c-2.6-1.8-4.2-3.3-5.3-6.3c-0.1-0.3-0.4-0.4-0.7-0.4c-0.3,0-0.5,0.3-0.5,0.6   c-0.2,4,0.3,13.2,4,15.6C11.2,47.9,15.3,48.8,18.3,49L18.3,49z M26.7,36.6c-2.6-0.5-4.9-1.6-6.8-3.4c-0.1-0.1-0.2-0.3-0.2-0.4   c0-0.2,0.1-0.3,0.2-0.4l10.7-9.8c0.2-0.2,0.5-0.2,0.7-0.1c0.2,0.1,0.3,0.4,0.2,0.7l-4.2,13C27.3,36.5,27,36.7,26.7,36.6L26.7,36.6z    M14.3,43.6c0.1,0.3,1.1,2.8,0.4,2.9c-0.1,0-0.2,0-0.3-0.1c-0.1,0-0.2-0.1-0.2-0.2c0,0,0,0,0-0.1c0-0.8-1.1-3.3-1.6-3.9   C12.3,41.9,13,40.6,14.3,43.6L14.3,43.6z M8.2,38.2c-0.2-0.4,0.4-0.8,0.7-0.4c0.3,0.5,2.1,1.4,1.8,1.9C10.3,40.6,8.6,38.6,8.2,38.2   z"/><path class="st5" d="M21.3,50.4C38,60.9,55,44.9,49.4,25.9C48.3,22.1,36.1,1.3,30,8.3c-3.9,4.5,1.2,9.7,3,11.5   C44.7,31.5,37.9,49.2,21.3,50.4L21.3,50.4z M7.7,38.5c-0.7-1.1,1-2.2,1.7-1.1c0.3,0.5,2.5,1.4,1.8,2.5C10.3,41.8,7.7,38.5,7.7,38.5   L7.7,38.5z M12.1,42.6c0.6,0.8,1.4,3.2,1.4,3.6c0.1,1.3,3.3,1.9,1.2-2.9C13,39.2,11.4,41.7,12.1,42.6L12.1,42.6z M27.6,51.7   c-1.3,0.1-1.4-2-0.1-2c3-0.1,5.4-2.7,6.2-1.2C35,50.7,27.7,51.7,27.6,51.7L27.6,51.7z M39.5,43.7c-0.6,1.1-2.4,0.2-1.8-1   c0.4-0.8,0.9-3,2.2-2.5C41.4,40.7,40,42.9,39.5,43.7L39.5,43.7z M41.9,36.3c-0.2,1.3-2.2,1-2-0.3c1.9-12.3-5.5-15.3-3.6-16.9   C38.2,17.6,43.5,26.1,41.9,36.3L41.9,36.3z M32.1,13.3c0.1,1.3-1.9,1.5-2,0.2c-0.3-3.4,1.7-5.8,2.8-4.6   C34,10.1,31.9,10.5,32.1,13.3L32.1,13.3z M37,12.6c1.2-1.1,3.2,1.1,2,2.2C37.8,15.8,35.8,13.7,37,12.6L37,12.6z M9.4,48.3   C2,50.6,5.6,58.4,8.3,58.7c0.3-0.9-0.9-4.9,4.9-5.4c2.9-0.2,4.3-1.7,4.9-2.8C13.1,49.6,14.1,49.9,9.4,48.3L9.4,48.3z M19.7,51.7   c-3.3,5.5-9.2,1.7-9.4,6.5c-0.1,1-0.2,1.8-1.1,2.3v0C5.3,62.4-1.4,51.4,7.3,47l0,0c-2.2-2.1-3.3-6-3.8-9.7   c-1.4-11.1,1.8-12.9,3.1-8.8c0.6,1.8,1.6,5.2,5.7,7.4c5.8,3.2,7.6,10.1,8,12.6c7.8-0.3,15.3-5.2,16.4-13.2c-8.2,7.3-21-1-18.3-3.5   l12.4-11.3C28.5,18,24,12.2,28.5,7c4.9-5.7,12.3,2.1,14.8,5.1l13.6-8.8C64.3,8.6,60.9,24,52,28.2C55.7,48.2,37,63.3,19.7,51.7   L19.7,51.7z M8.3,58.7C8.2,58.7,8.2,58.7,8.3,58.7L8.3,58.7L8.3,58.7L8.3,58.7z M18.3,48.4c-2.5-12.2-9.6-9.2-13-17.7   c-0.2,3.9,0.4,12.8,3.7,15C11.4,47.4,15.5,48.2,18.3,48.4L18.3,48.4z M45.7,12.9l11.1-7.2c0.9,1,2.8,3.7,1.9,9.5L45.7,12.9   L45.7,12.9z M58.3,17.2c-1.5,5.7-5,8.1-6.7,9c-1.1-4.1-3-7.9-5.8-11.2L58.3,17.2L58.3,17.2z M33.1,22.9c1.8,2.2,4,7,3.8,9.3   c-0.3,1-4,4.1-8,4L33.1,22.9L33.1,22.9z M26.8,36c-2.7-0.5-4.8-1.7-6.5-3.2L31,23L26.8,36z"/></g></svg>