<?xml version="1.0" ?><svg id="Layer_1" style="enable-background:new 0 0 64 64;" version="1.1" viewBox="0 0 64 64" xml:space="preserve" xmlns="http://www.w3.org/2000/svg" xmlns:xlink="http://www.w3.org/1999/xlink"><style type="text/css">
	.st0{fill-rule:evenodd;clip-rule:evenodd;fill:#389BDC;}
	.st1{fill-rule:evenodd;clip-rule:evenodd;fill:#FF9933;}
	.st2{fill-rule:evenodd;clip-rule:evenodd;fill:#FFFFCC;}
	.st3{fill-rule:evenodd;clip-rule:evenodd;fill:#EBD79F;}
	.st4{fill-rule:evenodd;clip-rule:evenodd;fill:#FF0000;}
	.st5{fill-rule:evenodd;clip-rule:evenodd;fill:#232E7A;}
	.st6{fill-rule:evenodd;clip-rule:evenodd;fill:#E6E6E6;}
	.st7{fill-rule:evenodd;clip-rule:evenodd;fill:#DE9800;}
	.st8{fill-rule:evenodd;clip-rule:evenodd;fill:#00FFFF;}
	.st9{fill-rule:evenodd;clip-rule:evenodd;fill:#FFCC00;}
	.st10{fill-rule:evenodd;clip-rule:evenodd;fill:#FF3399;}
	.st11{fill-rule:evenodd;clip-rule:evenodd;fill:#6666CC;}
	.st12{fill-rule:evenodd;clip-rule:evenodd;fill:#BA8E8E;}
</style><g><path class="st9" d="M42.1,8.8c-0.4-1.1-0.9-2.2-1.5-3.3c-0.1-0.2-0.1-0.4,0-0.6c0.1-0.2,0.3-0.3,0.5-0.3c1.3,0,3.3-0.3,4.5,0.1   c1.6,0.5,2.8,2.3,3.8,3.5c0.1,0.2,0.2,0.4,0.1,0.6c-0.1,0.2-0.3,0.3-0.5,0.3h-6.2C42.5,9.2,42.2,9,42.1,8.8L42.1,8.8z M40.3,58.4   c0.8-1.4,1.6-2.9,2.2-4.4c0.1-0.2,0.3-0.4,0.6-0.4h6.8c0.2,0,0.4,0.1,0.5,0.3c0.1,0.2,0.1,0.4,0,0.6c-1,1.5-2.4,4-4.2,4.7   c-1.3,0.5-3.9,0.2-5.3,0.2c-0.2,0-0.4-0.1-0.5-0.3C40.2,58.9,40.2,58.6,40.3,58.4L40.3,58.4z M12.5,50.3c-1-0.3-3.4-0.4-4-0.4   c-0.2,0-0.4-0.1-0.5-0.2c-0.1-0.2-0.2-0.3-0.1-0.5c0.3-0.9,1.1-1.6,2-1.7c0.9-0.1,2-0.1,2.9-0.2c1.7,0,3.4-0.1,5-0.1   c4.6,0,9.1,0,13.7,0c7,0.1,13.9,0.2,20.9,0.2c3.3,0,3.3,5.4,0,5.4H12.6c-1.5,0-3.5,0.4-4.5-1.2C8,51.4,8,51.2,8.1,51   c0.1-0.2,0.3-0.3,0.5-0.3C9.2,50.7,11.5,50.6,12.5,50.3L12.5,50.3z M52.7,46.6l-7.1,0c-0.2,0-0.3-0.1-0.5-0.2   c-0.1-0.1-0.2-0.3-0.1-0.5c1.9-9.1,1.1-19.8-0.6-28.9c0-0.2,0-0.4,0.1-0.5c0.1-0.1,0.3-0.2,0.5-0.2c2.7,0,5.6,0.5,8.2-0.1   c0.3-0.1,0.6,0.1,0.7,0.4c3.3,9,3.4,20.7,0.4,29.9c-0.1,0.2-0.2,0.3-0.3,0.3c-0.1,0.1-0.3,0.1-0.5,0C53.2,46.7,52.9,46.6,52.7,46.6   L52.7,46.6z M12.8,12.6c-1.1-0.3-3.6-0.4-4.2-0.4c-0.2,0-0.4-0.1-0.5-0.3c-0.1-0.2-0.1-0.4,0-0.6c0.4-0.8,1.3-1.4,2.2-1.4h42.2   c3.3,0,3.3,5.4,0,5.4l-42.2,0c-1,0-1.9-0.6-2.3-1.6c-0.1-0.2-0.1-0.4,0.1-0.6C8.1,13.1,8.3,13,8.5,13C9.1,13,11.7,13,12.8,12.6z"/><path class="st2" d="M44.7,4.6c0.3,0,0.7,0.1,0.9,0.2c1.6,0.5,2.8,2.3,3.8,3.5c0.1,0.2,0.2,0.4,0.1,0.6c-0.1,0.2-0.3,0.3-0.5,0.3   h-1.9C46.3,7.5,45.5,6,44.7,4.6L44.7,4.6z M47.4,10c0.1,0.2,0.2,0.5,0.3,0.7h1.6c1.2,0,2.2,1,2.2,2.2l0,0c0,1.2-1,2.1-2.1,2.2   l0.1,0.4h2.9c3.3,0,3.3-5.4,0-5.4H47.4L47.4,10z M49.8,16.4c1.3,4.3,2.2,9.1,2.3,14.5c0.1,5.8-1,11.1-2.6,15.7l3.2,0   c0.3,0,0.5,0.1,0.8,0.2c0.2,0.1,0.3,0,0.5,0c0.1-0.1,0.2-0.2,0.3-0.3c3-9.1,2.9-20.8-0.4-29.9c-0.1-0.3-0.4-0.4-0.7-0.4   C52.1,16.4,50.9,16.4,49.8,16.4L49.8,16.4z M49.2,47.4C49.1,47.6,49,47.8,49,48h0.4c1.2,0,2.2,1,2.2,2.2l0,0c0,1.2-1,2.2-2.2,2.2   H47c-0.1,0.2-0.2,0.3-0.3,0.5h5.6c3.3,0,3.3-5.4,0-5.4C51.3,47.4,50.3,47.4,49.2,47.4L49.2,47.4z M46.4,53.6   c-1.1,2.2-2.4,4.1-3.5,5.8c1.2,0,2.5,0.1,3.3-0.2c1.8-0.6,3.3-3.1,4.2-4.7c0.1-0.2,0.1-0.4,0-0.6c-0.1-0.2-0.3-0.3-0.5-0.3H46.4z"/><path class="st1" d="M32.5,8.6V5.2c0-0.3,0.3-0.6,0.6-0.6h5.7c0.2,0,0.3,0.1,0.5,0.2c0.8,0.9,1.4,2.4,1.9,3.5   c0.1,0.2,0.1,0.4-0.1,0.6c-0.1,0.2-0.3,0.3-0.5,0.3h-7.5C32.8,9.2,32.5,8.9,32.5,8.6L32.5,8.6z M33.1,53.6h7.8   c0.2,0,0.4,0.1,0.5,0.3c0.1,0.2,0.1,0.4,0,0.6C40.8,56,40,57.7,39,59.1c-0.1,0.2-0.3,0.3-0.5,0.3h-5.4c-0.3,0-0.6-0.3-0.6-0.6v-4.5   C32.5,53.9,32.8,53.6,33.1,53.6L33.1,53.6z M31.7,54.2v4.5c0,0.3-0.3,0.6-0.6,0.6h-5.2c-0.2,0-0.4-0.1-0.5-0.3   c-1-1.4-1.8-3.1-2.5-4.6c-0.1-0.2-0.1-0.4,0-0.6c0.1-0.2,0.3-0.3,0.5-0.3h7.6C31.4,53.6,31.7,53.9,31.7,54.2L31.7,54.2z M33.1,16.2   h9.8c0.3,0,0.5,0.2,0.6,0.5c1.8,9.2,2.6,20.2,0.6,29.4c-0.1,0.3-0.3,0.5-0.6,0.5H33.1c-0.3,0-0.6-0.3-0.6-0.6v-7.7   c0-0.3,0.2-0.5,0.4-0.6c4.8-1.2,4.8-10.2,0-11.5c-0.3-0.1-0.4-0.3-0.4-0.6v-8.8C32.5,16.5,32.8,16.2,33.1,16.2L33.1,16.2z    M31.2,26.2c-4.8,1.2-4.8,10.3,0,11.5c0.3,0.1,0.5,0.3,0.5,0.6V46c0,0.3-0.3,0.6-0.6,0.6H20.9c-0.3,0-0.5-0.2-0.6-0.5   c-2-9.2-1.2-20.2,0.6-29.4c0.1-0.3,0.3-0.5,0.6-0.5h9.6c0.3,0,0.6,0.3,0.6,0.6v8.8C31.7,25.9,31.5,26.2,31.2,26.2L31.2,26.2z    M31.1,9.2h-7.3c-0.2,0-0.4-0.1-0.5-0.3c-0.1-0.2-0.1-0.4-0.1-0.6c0.5-1.1,1.1-2.6,1.9-3.5c0.1-0.1,0.3-0.2,0.5-0.2h5.5   c0.3,0,0.6,0.3,0.6,0.6v3.4C31.7,8.9,31.4,9.2,31.1,9.2z"/><path class="st0" d="M21.7,9.2h-2.5c-0.2,0-0.4-0.1-0.5-0.3c-0.1-0.2-0.1-0.4,0.1-0.6c0.9-1.2,1.7-2.4,2.9-3.4   c0.1-0.1,0.3-0.2,0.4-0.2h1.2c0.2,0,0.4,0.1,0.5,0.3c0.1,0.2,0.1,0.4,0,0.6c-0.6,1-1.1,2.2-1.5,3.3C22.2,9,22,9.2,21.7,9.2   L21.7,9.2z M29.5,35.6c-3.1-4.2,1.5-12.1,5.1-7.2C37.7,32.5,33.1,40.4,29.5,35.6L29.5,35.6z M19.3,59.4c-0.6,0-1.2-0.1-1.8-0.4   c-1.5-0.7-2.7-3.1-3.6-4.4c-0.1-0.2-0.1-0.4,0-0.6c0.1-0.2,0.3-0.3,0.5-0.3h1.9c0.2,0,0.4,0.1,0.5,0.3c0.9,1.5,1.9,3,2.9,4.5   c0.1,0.2,0.2,0.4,0.1,0.6C19.7,59.2,19.5,59.4,19.3,59.4L19.3,59.4z M21.9,54c-0.1-0.2-0.3-0.4-0.6-0.4h-2.7   c-0.2,0-0.4,0.1-0.5,0.3c-0.1,0.2-0.1,0.4,0,0.6c0.7,1.1,1.4,2.2,2.2,3.2c0.2,0.3,0.7,0.8,0.8,1.1c0.1,0.3,0.3,0.5,0.6,0.5h1.9   c0.2,0,0.4-0.1,0.5-0.3c0.1-0.2,0.1-0.4,0-0.6C23.2,57,22.5,55.5,21.9,54L21.9,54z M12.6,43.4c-0.1,0.6,0.2,2,0.4,2.4   c0.1,0.2,0,0.4-0.1,0.5c-0.1,0.2-0.3,0.3-0.5,0.3h-1.9c-0.3,0-0.5-0.2-0.6-0.4C7,37.1,7.1,25.6,10.4,16.6c0.1-0.2,0.3-0.4,0.6-0.4   h1.5c0.2,0,0.4,0.1,0.5,0.3c0.1,0.2,0.1,0.4,0.1,0.6c-0.2,0.6-2.4,5.3-1.3,5.6c0.4,0.1,1.3-2.4,1.4-2.7c0.3-1,0.6-2.3,1-3.3   c0.1-0.2,0.3-0.4,0.6-0.4h5c0.2,0,0.3,0.1,0.5,0.2c0.1,0.1,0.2,0.3,0.1,0.5c-1.7,9.1-2.5,19.8-0.6,28.9c0,0.2,0,0.4-0.1,0.5   c-0.1,0.1-0.3,0.2-0.5,0.2h-4.3c-0.3,0-0.5-0.1-0.6-0.4C13.8,45.8,13.1,44,12.6,43.4L12.6,43.4z M16.8,9.2c0.2,0,0.4-0.1,0.5-0.3   c0.8-1.1,1.7-2.3,2.6-3.3C20,5.4,20.1,5.2,20,5c-0.1-0.2-0.3-0.4-0.5-0.4c-0.6,0-1.1,0.1-1.6,0.3c-1.2,0.5-2.3,2.3-3,3.3   c-0.1,0.2-0.2,0.4-0.1,0.6c0.1,0.2,0.3,0.3,0.5,0.3H16.8L16.8,9.2z M11.2,33.2c0-0.5-0.8-0.5-0.8,0c0.1,1.1,0.1,2.3,0.2,3.4   c0,0.4,0.4,3.1,1.1,3c0.4-0.1,0.1-2.7,0.1-3C11.6,35.5,11.2,34.3,11.2,33.2L11.2,33.2z M10.6,30.7c0.4-0.7,0.6-2.5,0.6-3   c0.1-0.8-0.6-1.8-0.7-0.8c0,0.2,0,0.5-0.1,0.8C10.4,28.2,10.4,30,10.6,30.7z"/><path class="st5" d="M16.9,60.5c-0.5-0.4-2.6-2.4-4.9-6.2c-3.9,0-4.5-1.1-4.5-1.1c-1.9-1.9-1.4-5.5,1-6.7   c-2.9-9.2-2.8-20.7,0.3-29.8c-3.1-2-5.1-8,3.9-8c1.2-1.8,2.2-3,3-3.9c1.7-1.8,2.5-1.5,4.6-1.5C27.5,3.1,46,2.7,46.9,3.5   c0.4,0.3,2.4,1.9,4.5,5.1c4.2,0,6.9,4.2,3.6,7.2c3.5,9.5,3.6,21.9,0.3,31.6c2.3,2.7,0.4,6.9-3.1,6.9c-2.8,4.8-4.6,6.5-5.6,6.5   C43.9,60.7,17.9,61.4,16.9,60.5L16.9,60.5z M15.4,49.3c-0.5,0-0.8,0.4-0.8,0.8v0c0,0.5,0.4,0.8,0.8,0.8h5.3c0.5,0,0.8-0.4,0.8-0.8   v0c0-0.5-0.4-0.8-0.8-0.8H15.4L15.4,49.3z M15.4,11.4c-0.5,0-0.8,0.4-0.8,0.8v0c0,0.5,0.4,0.8,0.8,0.8h5.3c0.5,0,0.8-0.4,0.8-0.8v0   c0-0.5-0.4-0.8-0.8-0.8H15.4L15.4,11.4z M30.8,11.4c-0.5,0-0.8,0.4-0.8,0.8v0c0,0.5,0.4,0.8,0.8,0.8h1.6c0.5,0,0.8-0.4,0.8-0.8v0   c0-0.5-0.4-0.8-0.8-0.8H30.8L30.8,11.4z M24.8,11.4c-0.5,0-0.8,0.4-0.8,0.8v0c0,0.5,0.4,0.8,0.8,0.8h2.8c0.5,0,0.8-0.4,0.8-0.8v0   c0-0.5-0.4-0.8-0.8-0.8H24.8L24.8,11.4z M30.8,49.3c-0.5,0-0.8,0.4-0.8,0.8v0c0,0.5,0.4,0.8,0.8,0.8h1.6c0.5,0,0.8-0.4,0.8-0.8v0   c0-0.5-0.4-0.8-0.8-0.8H30.8L30.8,49.3z M24.8,49.3c-0.5,0-0.8,0.4-0.8,0.8v0c0,0.5,0.4,0.8,0.8,0.8h2.8c0.5,0,0.8-0.4,0.8-0.8v0   c0-0.5-0.4-0.8-0.8-0.8H24.8L24.8,49.3z M8.4,49.3c6.3,0,6.8,2,0.2,2c0.8,1.3,2.7,0.9,3.9,0.9h39.8c2.5,0,2.5-4.2,0-4.2   c-6.4,0-38.5-0.5-42.4,0C9.3,48.1,8.7,48.6,8.4,49.3L8.4,49.3z M8.6,11.6c7.2,0,6.7,2-0.1,2c0.3,0.7,1,1.2,1.7,1.2l42.2,0   c2.5,0,2.5-4.2,0-4.2H10.2C9.5,10.6,8.9,11,8.6,11.6L8.6,11.6z M22,5.2c-0.8,0.8-0.9,0.9-2.8,3.4h2.5c0.6-1.5,1.1-2.6,1.5-3.4H22   L22,5.2z M16.8,8.6c1-1.5,2-2.6,2.7-3.4c-1.8,0-2.3,0.8-4.2,3.4H16.8L16.8,8.6z M14.5,16.8c-0.5,1.2-1.5,6.8-3,6.4   c-1.9-0.4,0.4-5.2,0.9-6.4h-1.5C7.7,25.7,7.6,37,10.5,46h1.9c-1.1-3,0-5.6,2.1,0h4.3C17,36.9,17.7,26,19.5,16.8H14.5L14.5,16.8z    M9.9,26.8c0,0-0.1,0.8-0.1,0.8c-0.4,4.8,1.5,5.5,2,0.2l0,0C12,25.9,10.1,25.2,9.9,26.8L9.9,26.8z M9.8,33.3c0.1,1.2,0,7.3,2,6.9   c1.6-0.3,0.1-5.7,0-7C11.7,31.9,9.7,32,9.8,33.3L9.8,33.3z M52.7,46c0.3,0,0.6,0.1,0.9,0.2c2.9-9,2.9-20.6-0.4-29.5   c-2.7,0.6-5.7,0.1-8.4,0.1c1.8,9.2,2.5,20.1,0.6,29.2L52.7,46L52.7,46z M18.6,54.2c1.9,3.2,2.9,3.7,3.1,4.5h1.9   c-0.6-1-1.4-2.5-2.2-4.5H18.6L18.6,54.2z M19.3,58.8c-0.7-0.9-1.8-2.4-3-4.5h-1.9C16.5,57.6,17.1,58.8,19.3,58.8L19.3,58.8z    M33.1,25.7c5.4,1.4,5.4,11.2,0,12.6V46h10.4c1.9-9,1.2-20-0.6-29.2h-9.8V25.7L33.1,25.7z M31.1,38.3c-5.4-1.3-5.4-11.3,0-12.7   v-8.8h-9.6C19.7,26,19,36.9,20.9,46h10.2V38.3L31.1,38.3z M34.2,28.7c-3.1-4.2-6.8,3-4.2,6.5C33.1,39.4,36.8,32.2,34.2,28.7   L34.2,28.7z M41.2,5.2c0.5,0.8,1,1.9,1.5,3.4H49C45.8,4.3,45.6,5.2,41.2,5.2L41.2,5.2z M40.6,8.6c-0.8-2-1.5-3-1.8-3.4h-5.7v3.4   H40.6L40.6,8.6z M43.1,54.2c-0.8,2-1.6,3.5-2.2,4.5c5.3,0,5.4,1.1,9-4.5H43.1L43.1,54.2z M38.5,58.8c0.5-0.7,1.4-2.2,2.4-4.5h-7.8   v4.5H38.5L38.5,58.8z M25.6,5.2c-0.3,0.4-1,1.3-1.8,3.4h7.3V5.2H25.6L25.6,5.2z M23.5,54.2c1,2.4,2,3.9,2.4,4.5h5.2v-4.5H23.5z"/></g></svg>