<?xml version="1.0" ?><svg id="Layer_1" style="enable-background:new 0 0 64 64;" version="1.1" viewBox="0 0 64 64" xml:space="preserve" xmlns="http://www.w3.org/2000/svg" xmlns:xlink="http://www.w3.org/1999/xlink"><style type="text/css">
	.st0{fill-rule:evenodd;clip-rule:evenodd;fill:#389BDC;}
	.st1{fill-rule:evenodd;clip-rule:evenodd;fill:#FF9933;}
	.st2{fill-rule:evenodd;clip-rule:evenodd;fill:#FFFFCC;}
	.st3{fill-rule:evenodd;clip-rule:evenodd;fill:#EBD79F;}
	.st4{fill-rule:evenodd;clip-rule:evenodd;fill:#FF0000;}
	.st5{fill-rule:evenodd;clip-rule:evenodd;fill:#232E7A;}
	.st6{fill-rule:evenodd;clip-rule:evenodd;fill:#E6E6E6;}
	.st7{fill-rule:evenodd;clip-rule:evenodd;fill:#DE9800;}
	.st8{fill-rule:evenodd;clip-rule:evenodd;fill:#00FFFF;}
	.st9{fill-rule:evenodd;clip-rule:evenodd;fill:#FFCC00;}
	.st10{fill-rule:evenodd;clip-rule:evenodd;fill:#FF3399;}
	.st11{fill-rule:evenodd;clip-rule:evenodd;fill:#6666CC;}
	.st12{fill-rule:evenodd;clip-rule:evenodd;fill:#BA8E8E;}
</style><g><path class="st1" d="M31.3,21H36c0.3,0,0.5,0.2,0.6,0.5L38.4,33c0,0.2,0,0.3-0.1,0.5c-1.9,2.4-2.8,5.3-2.8,8.3   c0,0.2-0.1,0.3-0.2,0.4c-0.3,0.4-0.4,0.7-0.8,1.1c-0.7,0.7-1.5,0.9-2.5,0.9c-0.9,0-1.8-0.2-2.4-0.9c-0.3-0.3-0.6-0.8-0.8-1.1   c-0.1-0.1-0.2-0.3-0.2-0.4c0-3-0.9-5.9-2.8-8.3c-0.1-0.1-0.1-0.3-0.1-0.5l1.7-11.5c0-0.3,0.3-0.5,0.6-0.5h1.2   c0.2,0,0.3,0.1,0.4,0.2c0.1,0.1,0.2,0.3,0.1,0.5L28.7,32c-0.1,0.5,0.7,0.6,0.8,0.1l1.3-10.6C30.8,21.2,31,21,31.3,21L31.3,21z    M30.6,37.7c-1.3,1.3-0.4,3.8,1.5,3.8c0.7,0,1.5-0.2,1.9-0.9C34.8,39,32.9,35.3,30.6,37.7z"/><path class="st4" d="M53.4,31.3c6.2,4,7.2,13.4,2.2,18.7c-2.7,2.8-6.2,4.3-10.1,3.4c-3.8-0.9-6.8-3.8-8.3-7.4   c-1.7-4.3-0.8-8.8,2-12.5c0,0,0,0,0,0C42.7,29.4,48.7,28.3,53.4,31.3L53.4,31.3z M8.6,50c-3.1-3.3-4.3-7.5-2.9-11.9   c1.1-3.7,4-6.8,7.7-8.1c4.4-1.5,8.6,0.2,11.7,3.5c0,0,0,0,0,0c2.9,3.5,3.7,8,2,12.2c-1.5,3.6-4.7,6.7-8.5,7.6   C14.6,54.3,11.2,52.8,8.6,50L8.6,50z M33.4,39.3c0,0.6-0.2,1.2-0.8,1.4c-0.6,0.2-1.1-0.2-1.5-0.7c-0.8-1-0.5-2.2,0.9-2.2   C32.8,37.9,33.4,38.6,33.4,39.3L33.4,39.3z M41.6,35.3c-2.4,2.5-3.2,5.9-1.9,9.2c1.1,2.8,3.5,5.2,6.5,5.9c2.8,0.6,5.3-0.5,7.3-2.6   c2.4-2.5,3.2-5.9,1.9-9.2c-1.1-2.8-3.5-5.2-6.5-5.9C46.1,32.1,43.6,33.3,41.6,35.3L41.6,35.3z M16.6,32.7c-11,0-11,17.7,0,17.7   S27.5,32.7,16.6,32.7z"/><path class="st0" d="M8.6,30.5c1-2.6,1.9-5.4,3.1-7.9c1-2,2.3-4.2,4.4-5.2c3.6-1.7,7.7,1,10.5,3.1c0.2,0.1,0.3,0.3,0.2,0.6   l-1.6,10.2c0,0.2-0.2,0.4-0.4,0.5c-0.2,0.1-0.4,0-0.6-0.1c-2.8-2.4-6.7-3.4-10.3-2.6c-0.2,0.1-0.4,0-0.6-0.2   c-0.2-0.2-0.2-0.4-0.1-0.6c0.3-0.9,0.6-1.8,1-2.7c0.4-1,0.8-2.1,1.1-3.1c0.2-0.4,0.4-1.2,0.6-1.6c0.2-0.4-0.5-0.8-0.7-0.4   c-0.2,0.5-0.4,1.1-0.6,1.6c-0.4,1-0.8,2.1-1.1,3.1c-0.5,1.4-1.1,2.9-1.6,4.3c0,0.1-0.1,0.1-0.1,0.2c-0.6,0.7-1.6,0.9-2.3,1.4   c-0.2,0.2-0.5,0.2-0.7,0C8.6,31,8.5,30.8,8.6,30.5L8.6,30.5z M34.4,20.2c-0.9,0-3.3-0.3-4.1,0c-0.1,0-0.1,0-0.2,0h-0.4   c-0.2,0-0.3-0.1-0.5-0.2c-0.1-0.1-0.2-0.3-0.1-0.5l0.6-2.6c0.1-0.3,0.3-0.5,0.6-0.5l3.6,0c0.3,0,0.5,0.2,0.6,0.5l0.6,2.6   c0,0.2,0,0.4-0.1,0.5C34.8,20.1,34.6,20.2,34.4,20.2L34.4,20.2z M40.3,18.8c10.4-5.8,12.5,4.2,15.3,11.8c0.1,0.3,0,0.5-0.2,0.7   c-0.2,0.2-0.5,0.2-0.7,0c-0.3-0.2-0.6-0.4-0.8-0.6c-4.4-2.8-10-2.3-13.9,1.1c-0.2,0.1-0.4,0.2-0.6,0.1c-0.2-0.1-0.4-0.3-0.4-0.5   l-1.6-10.2c0-0.2,0.1-0.4,0.2-0.6c0.3-0.2,0.6-0.4,0.8-0.6c0.2-0.1,0.4-0.1,0.5-0.1c0.2,0.1,0.3,0.2,0.4,0.4   c0.3,1.2,0.5,2.5,0.8,3.7c0.1,0.5,0.9,3.1,1.4,3.2c0,0,0,0,0,0c0.5-0.3-0.3-3.3-0.4-3.8c-0.4-1.3-0.9-2.6-1.2-3.9   C39.9,19.2,40,18.9,40.3,18.8z"/><path class="st2" d="M24.7,19.2c0.6,0.4,1.2,0.9,1.8,1.3c0.2,0.1,0.3,0.3,0.2,0.6l-1.6,10.2c0,0.2-0.2,0.4-0.4,0.5   c-0.2,0.1-0.4,0-0.6-0.1c-0.5-0.4-1-0.8-1.6-1.2L24.7,19.2z"/><path class="st2" d="M48.2,17.5l4.7,12.6c0.3,0.1,0.6,0.3,0.8,0.5c0.3,0.2,0.6,0.4,0.8,0.6c0.2,0.2,0.5,0.2,0.7,0   c0.2-0.2,0.3-0.4,0.2-0.7C53.7,25.5,52.1,19.4,48.2,17.5z"/><path class="st5" d="M32.4,21.6h-1.1l-1.3,10.6c-0.2,1.3-2.1,1-2-0.2l1.2-10.3h-1.2l-1.7,11.5c1.9,2.4,2.9,5.4,2.9,8.7   c0.6,0.5,0.8,1.8,2.8,1.8c2.1,0,2.5-1.6,2.8-1.8c0-3.3,1-6.3,2.9-8.7L36,21.6H32.4L32.4,21.6z M43.1,35.9c-0.1,1.2,0,3.1,1.3,4.7   c2.1,2.5,8.6-3,9.4,4.3C56.9,38.2,49,30.5,43.1,35.9L43.1,35.9z M11.8,36.1c6-6,14.6,2.2,10.8,9.2c-0.1-1.2-0.5-2.8-2-4   c-2.9-2.2-5.2,1.9-7.5-0.8C11.9,39,11.7,37.3,11.8,36.1L11.8,36.1z M30.1,19.6c0.9-0.3,3.3,0,4.3,0l-0.6-2.6l-3.6,0l-0.6,2.6H30.1   L30.1,19.6z M37.7,12.4c0.3,1,2.1,4.5,0.5,5c-1.4,0.4-1.7-2.1-1.9-3c-0.9,1.9-0.2,3.2,0.2,5.1c0.9,0,5.4-4.4,10.3-3.9   C45.2,12.2,41.3,8.9,37.7,12.4L37.7,12.4z M40.6,19.3c9.8-5.5,11.7,4,14.4,11.4c-0.3-0.2-0.6-0.4-0.9-0.6l0,0   c-4.6-2.9-10.5-2.4-14.6,1.1L38,21c0.2-0.2,0.5-0.4,0.8-0.6c0.3,1.2,1.3,7.8,3,7.4C43.5,27.3,40.9,20.6,40.6,19.3L40.6,19.3z    M18.4,15.6c0.5-0.8,1.4-3.6,2.7-2.8c1.2,0.7-0.2,2.3-0.6,3.1c2.8,0.7,6.7,3.7,7.1,3.7l0.8-3.6c0-3.9-7.3-8.8-11-0.3L18.4,15.6   L18.4,15.6z M14.7,20.3c0.6-1.1,2.4-0.2,1.8,1c-0.1,0.2-1.7,4.6-2.7,7.2c3.8-0.9,7.9,0.2,10.8,2.7L26.1,21   c-11.4-8.7-13.6,0.4-17,9.7c0.6-0.5,1.8-0.8,2.2-1.4C12,27.6,14.6,20.6,14.7,20.3L14.7,20.3z M32.1,38.5c0.4,0,0.7,0.4,0.7,0.8   C32.8,41.6,30,38.5,32.1,38.5L32.1,38.5z M30.1,37.3c3.7-3.9,7.2,4.8,1.9,4.8C29.6,42.1,28.5,39,30.1,37.3L30.1,37.3z M30.2,15   l3.7,0c2.9-9.2,12.8-7.2,15.2,1.4c5.3,2.5,7.4,13.6,9.7,19c6.1,14.1-10,26.4-20.2,15.6c-1.7-1.8-2.9-4-3.4-6.5   c-1.6,1.3-4.7,1.3-6.3,0c-3.3,15.3-25,12.9-25-2.9C3.9,39.1,9.5,19,15,16.3C17.4,7.8,27.3,5.8,30.2,15L30.2,15z M39.6,33.9   C43,30,48.7,29,53,31.8l0,0c5.9,3.7,6.9,12.7,2.1,17.8C45.6,59.7,30.8,45.7,39.6,33.9L39.6,33.9z M41.2,34.9   c8.4-8.9,20.9,4.6,12.7,13.3C45.5,57.1,33,43.6,41.2,34.9L41.2,34.9z M24.6,34C33.4,44.6,18.9,60,9,49.6C-1,39,13.9,22.7,24.6,34   L24.6,34z M16.6,32.1c11.8,0,11.8,18.9,0,18.9C4.8,51,4.8,32.1,16.6,32.1z"/><path class="st9" d="M29,16.1l-0.8,3.6c-0.1,0.3-0.3,0.5-0.6,0.5c-0.4,0-1.4-0.7-1.8-0.9c-0.9-0.6-1.8-1.1-2.8-1.6   c-0.8-0.4-1.7-0.9-2.6-1.1c-0.2,0-0.3-0.2-0.4-0.3c-0.1-0.2-0.1-0.4,0-0.5c0.2-0.4,1.4-1.9,0.8-2.3c-0.7-0.4-1.7,2.1-1.9,2.6   c-0.1,0.2-0.3,0.3-0.5,0.3l-1.1,0c-0.2,0-0.4-0.1-0.5-0.3c-0.1-0.2-0.1-0.4-0.1-0.6c1.4-3.1,3.9-5.9,7.6-4.8   c2.3,0.6,4.5,2.9,4.6,5.4C29,16,29,16.1,29,16.1L29,16.1z M11.4,35.7c1.8-1.8,4.1-2.7,6.6-2.1c2.4,0.5,4.3,2.3,5.4,4.5   c1.2,2.4,1.1,5.2-0.2,7.5c-0.1,0.2-0.4,0.4-0.7,0.3c-0.3-0.1-0.5-0.3-0.5-0.6c-0.1-1.4-0.6-2.6-1.8-3.5c-2.5-1.9-5,2.2-7.6-0.9   c-1.1-1.4-1.6-3.1-1.5-4.9C11.2,35.9,11.3,35.8,11.4,35.7L11.4,35.7z M53.2,44.9c-0.8-6.7-6.8-0.9-9.3-4c-1.2-1.5-1.7-3.3-1.4-5.2   c0-0.2,0.1-0.3,0.2-0.4c1.7-1.6,3.9-2.3,6.2-1.7c4.8,1.2,7.5,6.9,5.4,11.4c-0.1,0.2-0.4,0.4-0.6,0.3C53.5,45.4,53.3,45.2,53.2,44.9   L53.2,44.9z M37.3,12c3.9-3.7,8.2-0.6,10,3.4c0.1,0.2,0.1,0.4-0.1,0.6c-0.1,0.2-0.3,0.3-0.5,0.2c-2.2-0.2-4.4,0.6-6.3,1.7   c-0.8,0.4-1.5,0.9-2.3,1.4c-0.4,0.3-1.1,0.8-1.6,0.8c-0.3,0-0.5-0.2-0.6-0.5c-0.4-2.1-1.2-3.4-0.2-5.5c0.1-0.2,0.3-0.4,0.6-0.3   c0.3,0,0.5,0.2,0.5,0.4c0.1,0.4,0.4,2.8,1.2,2.6c0.9-0.3-0.7-3.8-0.9-4.3C37,12.4,37.1,12.1,37.3,12z"/><path class="st12" d="M37.6,18.2C37.6,18.2,37.6,18.2,37.6,18.2c-0.4-0.1-0.6-0.2-0.9-0.4c0.1,0.3,0.2,0.6,0.2,0.9   c0.2-0.1,0.3-0.2,0.4-0.3C37.5,18.3,37.5,18.2,37.6,18.2z"/><path class="st2" d="M12.5,36.4c-1.1,1.4,1,4.4,2.4,4.4c1.3,0,5.6-2.8,7.8,2C23.7,37.3,16.5,31.2,12.5,36.4L12.5,36.4z M53.8,42.2   c0.3-5.3-6.1-10.4-10-6c-1,1.1,0.5,3.8,1.7,4.3C47.3,41.2,51.8,38.5,53.8,42.2z"/><path class="st2" d="M42.7,10.7l1.7,5.7c0.7-0.1,1.5-0.2,2.3-0.1c0.2,0,0.4-0.1,0.5-0.2c0.1-0.2,0.2-0.4,0.1-0.6   C46.3,13.3,44.7,11.4,42.7,10.7z"/><path class="st2" d="M29,16.1l-0.8,3.6c-0.1,0.3-0.3,0.5-0.6,0.5c-0.4,0-1.4-0.7-1.8-0.9L25.4,19c0-0.2,0-0.3,0.1-0.4l1.8-6.2   c1,1,1.7,2.3,1.7,3.6C29,16,29,16.1,29,16.1z"/></g></svg>