<?xml version="1.0" ?><svg id="Layer_1" style="enable-background:new 0 0 64 64;" version="1.1" viewBox="0 0 64 64" xml:space="preserve" xmlns="http://www.w3.org/2000/svg" xmlns:xlink="http://www.w3.org/1999/xlink"><style type="text/css">
	.st0{fill-rule:evenodd;clip-rule:evenodd;fill:#389BDC;}
	.st1{fill-rule:evenodd;clip-rule:evenodd;fill:#FF9933;}
	.st2{fill-rule:evenodd;clip-rule:evenodd;fill:#FFFFCC;}
	.st3{fill-rule:evenodd;clip-rule:evenodd;fill:#EBD79F;}
	.st4{fill-rule:evenodd;clip-rule:evenodd;fill:#FF0000;}
	.st5{fill-rule:evenodd;clip-rule:evenodd;fill:#232E7A;}
	.st6{fill-rule:evenodd;clip-rule:evenodd;fill:#E6E6E6;}
	.st7{fill-rule:evenodd;clip-rule:evenodd;fill:#DE9800;}
	.st8{fill-rule:evenodd;clip-rule:evenodd;fill:#00FFFF;}
	.st9{fill-rule:evenodd;clip-rule:evenodd;fill:#FFCC00;}
	.st10{fill-rule:evenodd;clip-rule:evenodd;fill:#FF3399;}
	.st11{fill-rule:evenodd;clip-rule:evenodd;fill:#6666CC;}
	.st12{fill-rule:evenodd;clip-rule:evenodd;fill:#BA8E8E;}
</style><g><path class="st7" d="M24.4,37.5c-0.7,1.3-2,2.4-3.1,3.3c-1,0.8-5.4,3.7-6.6,2.3c-0.6-0.6,0-1.8,0.3-2.4c0.7-1.3,2-2.4,3.1-3.3   c1-0.8,5.4-3.7,6.6-2.3C25.3,35.7,24.8,36.8,24.4,37.5L24.4,37.5z M26.4,34.6c3.5,3.5,8.7-1.9,5.3-5.4   C28.2,25.7,22.9,31.1,26.4,34.6L26.4,34.6z M33.3,35.1c0.5-0.6,1.6-0.3,2.2-0.2c1.4,0.4,2.9,1.3,4.1,2.2c1,0.8,4.9,4.2,3.9,5.8   c-0.5,0.7-1.6,0.5-2.3,0.3c-1.5-0.4-3-1.3-4.2-2.3c-1.1-0.9-2.3-2-3.2-3.1C33.4,37.2,32.6,35.9,33.3,35.1L33.3,35.1z M27.6,25   c-0.6-1.4-0.7-3.1-0.7-4.6c0-1.3,0.3-6.5,2.1-6.7c0.9-0.1,1.4,1,1.7,1.7c0.6,1.4,0.7,3.1,0.7,4.6c0,1.3-0.3,6.5-2.2,6.7   C28.4,26.8,27.8,25.7,27.6,25z"/><path class="st2" d="M29.1,13.8L29,26.7c0.1,0,0.1,0,0.2,0c1.9-0.1,2.1-5.4,2.2-6.7c0-1.5-0.2-3.2-0.7-4.6   C30.4,14.9,29.9,13.8,29.1,13.8L29.1,13.8z M29,28.1l0,3.5l3,2.5c1-1.4,1.2-3.3-0.3-4.8C30.8,28.4,29.9,28.1,29,28.1L29,28.1z    M33.2,35.1l10,8.1c0.1-0.1,0.2-0.2,0.3-0.3c1-1.6-2.9-5-3.9-5.8c-1.2-0.9-2.7-1.9-4.1-2.2C34.9,34.8,33.7,34.5,33.2,35.1   L33.2,35.1z"/><path class="st8" d="M48.4,51.4c-4,4-9,6.7-14.6,7.6c-5.2,0.9-10.5,0.2-15.4-1.8C8,52.8,1.6,43.2,1.6,32C1.6,20.8,8,11.2,18.4,6.8   c4.8-2,10.2-2.7,15.4-1.8c5.6,0.9,10.6,3.6,14.6,7.6C59,23.2,59,40.8,48.4,51.4L48.4,51.4z M29,11.4C17.6,11.4,8.4,20.6,8.4,32   c0,18.3,22.3,27.5,35.2,14.6C56.5,33.7,47.3,11.4,29,11.4L29,11.4z M23.3,54.6l-5.1-1.8c0,0,0,0,0,0c-0.1-0.1-0.4,0-0.5,0   c-0.1,0.1-0.3,0.2-0.4,0.3c-0.1,0.3,0.5,0.8,0.7,0.9c1.3,0.9,3.5,1.4,5,1.8C23.8,55.9,24.1,54.8,23.3,54.6   C23.3,54.6,23.3,54.6,23.3,54.6L23.3,54.6z M5.3,32.6c-0.1-3.2,0.4-6.3,1.6-9.3c0-0.1-0.1-0.4-0.1-0.5c-0.1-0.1-0.2-0.3-0.3-0.3   c-0.3-0.1-0.6,0.6-0.7,0.7c-0.7,1.2-1,3.2-1.3,4.5C4.2,29,3.9,31,4.1,32.4c0,0.2,0.2,0.9,0.5,0.9C4.8,33.3,5.3,32.8,5.3,32.6   L5.3,32.6z M13.2,49.4c-4-3.6-6.7-8.4-7.6-13.7c-0.1-0.7-1.3-0.6-1.2,0.2c0.9,5.6,3.8,10.7,8,14.4C13,50.8,13.8,49.9,13.2,49.4   L13.2,49.4z M9.8,18.1c2.7-3.7,6.5-6.6,10.9-8.1c0.7-0.3,0.3-1.4-0.4-1.1c-4.6,1.7-8.5,4.6-11.4,8.5C8.4,18,9.4,18.7,9.8,18.1   L9.8,18.1z M52.4,30.4c0.1,2.2-0.2,4.2-0.7,6.4c-0.1,0.5-0.6,2.3-0.3,2.7c0.1,0.1,0.1,0.1,0.2,0.1c0.1,0,0.2,0,0.2,0   c1.5-0.4,1.8-7.9,1.7-9.3C53.5,29.6,52.3,29.6,52.4,30.4L52.4,30.4z M34.1,8.6c0-0.1,0-0.2,0-0.2c-0.5-1.5-8.1-0.9-9.4-0.7   c-0.7,0.1-0.6,1.3,0.2,1.2C27,8.6,29,8.6,31.2,8.8c0.5,0.1,2.4,0.4,2.7,0C34,8.8,34.1,8.7,34.1,8.6z"/><path class="st2" d="M48.4,51.4c-4,4-9,6.7-14.6,7.6c-1.5,0.3-3,0.4-4.6,0.4v-6.8c5.1,0,10.2-1.8,14.4-6   c12.9-12.9,3.7-35-14.4-35.2V8.7c0.7,0,1.4,0.1,2.1,0.2c0.5,0.1,2.4,0.4,2.7,0c0.1-0.1,0.1-0.2,0.1-0.2c0-0.1,0-0.2,0-0.2   c-0.3-0.8-2.6-1-4.9-1V4.6c1.5,0,3.1,0.1,4.6,0.4c5.6,0.9,10.6,3.6,14.6,7.6C59,23.2,59,40.8,48.4,51.4L48.4,51.4z M52.4,30.4   c0.1,2.2-0.2,4.2-0.7,6.4c-0.1,0.5-0.6,2.3-0.3,2.7c0.1,0.1,0.1,0.1,0.2,0.1c0.1,0,0.2,0,0.2,0c1.5-0.4,1.8-7.9,1.7-9.3   C53.5,29.6,52.3,29.6,52.4,30.4z"/><path class="st5" d="M29,3c25.8,0,38.6,31.4,20.5,49.5C31.4,70.6,0,57.8,0,32C0,16,13,3,29,3L29,3z M27.8,30.3   c-1.5,0-1.5,2.6,0,2.6C29.3,32.9,29.3,30.3,27.8,30.3L27.8,30.3z M23.4,54.2l-5.1-1.8c-1-0.5-4.4,1.7,4.6,3.8   C24.2,56.4,24.7,54.5,23.4,54.2L23.4,54.2z M5.7,32.6c-0.1-3.1,0.4-6.2,1.6-9.1c0.3-0.9-1.8-4.3-3.2,4.1   C2.6,36.1,5.7,33.5,5.7,32.6L5.7,32.6z M13.5,49.1c-4-3.5-6.6-8.3-7.5-13.4c-0.2-1.3-2.2-0.9-2,0.3c0.9,5.6,3.8,10.8,8.1,14.6   C13.1,51.4,14.4,49.9,13.5,49.1L13.5,49.1z M10.1,18.4c2.7-3.6,6.4-6.4,10.7-8c1.2-0.4,0.5-2.3-0.7-1.9c-4.6,1.7-8.7,4.7-11.6,8.7   C7.8,18.2,9.4,19.4,10.1,18.4L10.1,18.4z M52,30.4c0.3,6-2.2,9-0.5,9.6c2.4,0.8,2.6-8.3,2.5-9.7C53.9,29,51.9,29.1,52,30.4L52,30.4   z M24.9,9.3c5.9-1,9.2,1.1,9.6-0.6c0.5-2.4-8.6-1.6-9.9-1.4C23.3,7.5,23.6,9.5,24.9,9.3L24.9,9.3z M34.2,33.2   c4.1-0.1,10.4,4.8,10.9,8.9c7.3-11.8-0.3-27.4-14.1-28.9c2.7,3,2.6,10.8,0.3,14C33.5,28.1,34.8,30.7,34.2,33.2L34.2,33.2z M42.9,45   c-4.1,0.5-10.3-4.4-11.3-8.3c-1.5,0.9-3.6,0.9-5.1,0c-1,3.8-7.5,8.8-11.5,8.2C22.5,52.9,35.4,53,42.9,45L42.9,45z M33.6,35.4   c-1.2,1.3,4.1,6.6,7.7,7.5c5.3,1.4-1.4-6.4-5.9-7.6C34.5,35.1,33.8,35.1,33.6,35.4L33.6,35.4z M12.9,42c0.4-4,7.1-8.9,11-8.8   c-0.6-2.5,0.7-5.1,3-6.2c-2.3-3.1-2.4-11,0.3-13.9C13.2,14.4,5.5,30.2,12.9,42L12.9,42z M24.1,37.2c2.8-4.8-6.3-0.5-8.7,3.6   C12.5,45.7,21.7,41.3,24.1,37.2L24.1,37.2z M30.3,15.6c-2.1-5.1-4.1,4.9-2.3,9.3C30.1,30,32.1,20,30.3,15.6L30.3,15.6z M31.4,29.5   c-3.1-3.2-7.8,1.7-4.7,4.8C29.8,37.5,34.5,32.7,31.4,29.5L31.4,29.5z M29,11C17.4,11,8,20.4,8,32c0,18.7,22.7,28,35.8,14.8   C57,33.7,47.7,11,29,11L29,11z M48.1,12.9C31.2-3.9,2,7.9,2,32c0,24.1,29.2,36,46.1,19.1C58.5,40.6,58.5,23.4,48.1,12.9z"/></g></svg>