<?xml version="1.0" ?><svg id="Layer_1" style="enable-background:new 0 0 64 64;" version="1.1" viewBox="0 0 64 64" xml:space="preserve" xmlns="http://www.w3.org/2000/svg" xmlns:xlink="http://www.w3.org/1999/xlink"><style type="text/css">
	.st0{fill-rule:evenodd;clip-rule:evenodd;fill:#389BDC;}
	.st1{fill-rule:evenodd;clip-rule:evenodd;fill:#FF9933;}
	.st2{fill-rule:evenodd;clip-rule:evenodd;fill:#FFFFCC;}
	.st3{fill-rule:evenodd;clip-rule:evenodd;fill:#EBD79F;}
	.st4{fill-rule:evenodd;clip-rule:evenodd;fill:#FF0000;}
	.st5{fill-rule:evenodd;clip-rule:evenodd;fill:#232E7A;}
	.st6{fill-rule:evenodd;clip-rule:evenodd;fill:#E6E6E6;}
	.st7{fill-rule:evenodd;clip-rule:evenodd;fill:#DE9800;}
	.st8{fill-rule:evenodd;clip-rule:evenodd;fill:#00FFFF;}
	.st9{fill-rule:evenodd;clip-rule:evenodd;fill:#FFCC00;}
	.st10{fill-rule:evenodd;clip-rule:evenodd;fill:#FF3399;}
	.st11{fill-rule:evenodd;clip-rule:evenodd;fill:#6666CC;}
	.st12{fill-rule:evenodd;clip-rule:evenodd;fill:#BA8E8E;}
</style><g><path class="st2" d="M18.8,10.9c0-2.8,0.5-5.4,4-5.4h17.4c3.5,0,4,2.5,4,5.4c0,0.3-0.2,0.5-0.5,0.5H19.3   C19,11.4,18.8,11.2,18.8,10.9L18.8,10.9z M31.9,15.7L12.5,26.1c-0.2,0.1-0.3,0.1-0.5,0c-0.2-0.1-0.2-0.2-0.2-0.4v-8.3   c0-2.9,2.6-5,5.3-5h28.6c2.8,0,5.5,2,5.5,5v7.1c0,0.2-0.1,0.3-0.2,0.4c-0.2,0.1-0.3,0.1-0.5,0L31.9,15.7L31.9,15.7z M37,51.7   c0.2,0.1,0.4,0.1,0.5,0c2.5-1.6,5.8-1.5,8.3,0c0.2,0.1,0.4,0.1,0.5,0c2.5-1.6,5.8-1.6,8.3,0c0.2,0.1,0.3,0.1,0.5,0   c0.2-0.1,0.3-0.3,0.3-0.4c0-0.3,0.1-0.8,0.2-1.1c0.1-0.7,0.3-1.5,0.4-2.2c0.4-2.1,0.9-4.2,1.3-6.3c0.3-1.2,2.1-9.3,1.7-10.2   c-0.6-1-4.2-2.3-5.3-2.9L33.2,18c-0.2-0.1-0.3-0.1-0.5,0c-0.2,0.1-0.2,0.2-0.2,0.4c0,0.6,0,1.3,0,1.9V50c0,0.1,0.1,0.3,0.2,0.4   c0.1,0.1,0.2,0.1,0.4,0.1C34.3,50.5,35.8,51,37,51.7L37,51.7z M31.1,50.8c0.2-0.1,0.3-0.3,0.3-0.5c0-5.4-0.1-10.7-0.1-16.1   c0-3.6,0-7.2,0-10.8c0-1.2,0-2.5,0.1-3.7c0-0.4,0-1.3,0.1-1.7c0.1-0.2,0-0.4-0.1-0.5c-0.2-0.1-0.4-0.2-0.6-0.1L10.1,28.5   c-1.2,0.7-2.5,1.2-3.7,1.9c-0.6,0.3-1.3,0.7-1.6,1.3c-0.2,0.5-0.1,1,0.1,1.5C5,34,5.2,34.8,5.4,35.6C6,38,6.6,40.3,7.1,42.7   c0.3,1.5,0.7,2.9,0.9,4.4c0.2,1,0.4,2.2,0.4,3.3c0,0.2,0.1,0.4,0.3,0.5l1.9,0.9c0.2,0.1,0.3,0.1,0.5,0c2.5-1.6,5.8-1.5,8.3,0   c0.2,0.1,0.4,0.1,0.5,0c2.5-1.6,5.8-1.5,8.3,0c0.1,0.1,0.3,0.1,0.4,0L31.1,50.8L31.1,50.8z M14.3,16.1l-0.1,6c0,0.6,1,0.6,1,0   l0.1-6C15.3,15.5,14.3,15.5,14.3,16.1L14.3,16.1z M36.3,23.1c0-0.6-1-0.6-1,0v24c0,0.6,1,0.6,1,0V23.1L36.3,23.1z M20.3,28   l-4.6,2.6c-0.5,0.3-1-0.6-0.5-0.9l4.6-2.6C20.3,26.8,20.8,27.7,20.3,28L20.3,28z M8.7,33.9C8.7,33.9,8.6,33.8,8.7,33.9   c-0.2-0.8,2.4-1.9,2.9-2.1c0.5-0.3,1,0.6,0.5,0.9l-2,1.1c-0.2,0.1-0.3,0.3-0.2,0.6L13,46.9c0.2,0.6-0.8,0.9-1,0.2L8.7,33.9   L8.7,33.9z M25.1,30.8c1.3,1.2,0.7,3.3-0.9,3.8c-0.2,0.1-0.3,0.3-0.3,0.5l0,0.7c0,0.3,0.2,0.5,0.5,0.5c0.5,0,1.9-0.3,1.9,0.5   c0,0.7-1.4,0.5-1.9,0.5c-0.3,0-0.5,0.2-0.5,0.5l0,5.4c0,0.2,0.2,0.4,0.4,0.5c1.3,0.2,2.1-0.5,2.4-1.7c0.1-0.6,0.2-1.5-0.1-2   c-0.3-0.6,0.6-1,0.9-0.4c0.6,1.3,0.4,2.9-0.5,4c-0.9,1.1-2.2,1.4-3.5,0.9c-0.1,0-0.2,0-0.3,0c-1.3,0.5-2.6,0.2-3.5-0.9   c-0.6-0.8-1-1.9-0.9-2.9c0-0.4,0.3-1.3,0.8-1.4c0.1,0,0.2,0,0.3,0c0.1,0,0.3,0.1,0.3,0.3c0,0.2-0.2,0.9-0.3,1.1   c-0.2,0.9,0,1.6,0.5,2.3c0.5,0.6,1.2,0.9,1.9,0.7c0.2,0,0.4-0.3,0.4-0.5l-0.1-5.4c0-0.3-0.2-0.5-0.5-0.5l-1.3,0c-0.6,0-0.6-1,0-1   l1.3,0c0.1,0,0.3-0.1,0.4-0.2c0.1-0.1,0.1-0.2,0.1-0.4l0-0.8c0-0.2-0.1-0.4-0.3-0.5C18.8,33.2,22.3,28.2,25.1,30.8L25.1,30.8z    M23.3,33.7c-0.6,0-1.1-0.2-1.3-0.8c-0.4-1.2,1.1-2.6,2.4-1.4C25.3,32.4,24.5,33.7,23.3,33.7L23.3,33.7z M28.8,23.2   c0.5-0.3,0.1-1.2-0.5-0.9l-5,2.8c-0.5,0.3-0.1,1.2,0.5,0.9L28.8,23.2z"/><path class="st8" d="M29.7,16.6L12,26c-0.1-0.1-0.2-0.2-0.2-0.4v-8.3c0-1.7,0.9-3.2,2.3-4.1c0.3,0,0.6-0.1,0.9-0.1h28.6   c2.8,0,5.5,2,5.5,5v6l-17.2-8.5l-1.8,1L29.7,16.6L29.7,16.6z M43.9,23.6L33.2,18c-0.2-0.1-0.3-0.1-0.5,0l0,0L43.9,23.6L43.9,23.6z    M30.3,51.1l0.8-0.3c0.2-0.1,0.3-0.3,0.3-0.5c0-5.4-0.1-10.7-0.1-16.1c0-3.6,0-7.2,0-10.8c0-1.2,0-2.5,0.1-3.7c0-0.2,0-0.4,0-0.7   L31,18.8c-0.2-0.1-0.3-0.1-0.5,0c-0.2,0.1-0.2,0.2-0.2,0.4c0,0.6,0,1.3,0,1.9v29.7C30.3,51,30.3,51,30.3,51.1L30.3,51.1z    M32.4,19.5c0,0.3,0,0.6,0,0.8V50c0,0.1,0.1,0.3,0.2,0.4c0.1,0.1,0.2,0.1,0.4,0.1c1.4,0,2.9,0.5,4.1,1.2c0,0,0,0,0,0   c0.3-0.1,0.5-0.2,0.8-0.2c2.5-1.4,5.6-1.3,8,0.2c0,0,0,0,0,0c0.3-0.1,0.5-0.2,0.8-0.2c2-1.2,4.6-1.3,6.7-0.4l0-0.1   c0.1-0.7,0.3-1.5,0.4-2.2c0.4-2.1,0.9-4.2,1.3-6.3c0.3-1.2,2.1-9.3,1.7-10.2c-0.6-1-4.2-2.3-5.3-2.9L32.4,19.5L32.4,19.5z M12.2,17   l-0.1,6c0,0.6,1,0.6,1,0l0.1-6C13.2,16.3,12.2,16.3,12.2,17L12.2,17z M34.2,47.9v-24c0-0.6-1-0.6-1,0v24   C33.2,48.5,34.2,48.5,34.2,47.9L34.2,47.9z M14.3,16.1l-0.1,6c0,0.6,1,0.6,1,0l0.1-6C15.3,15.5,14.3,15.5,14.3,16.1L14.3,16.1z    M36.3,23.1c0-0.6-1-0.6-1,0v24c0,0.6,1,0.6,1,0V23.1z"/><path class="st2" d="M43.8,11.4H19.3c-0.3,0-0.5-0.2-0.5-0.5c0-2.8,0.5-5.4,4-5.4h17.4c3.5,0,4,2.5,4,5.4   C44.3,11.2,44,11.4,43.8,11.4z"/><path class="st4" d="M42.7,11.4H19.3c-0.3,0-0.5-0.2-0.5-0.5c0-1.6,0.2-3.2,1-4.2c0.4-0.1,0.9-0.2,1.5-0.2h17.4   C42,6.5,42.7,8.8,42.7,11.4z"/><path class="st0" d="M31.1,50.8l-2.4,1c-0.2,0.1-0.3,0-0.4,0c-2.5-1.5-5.8-1.6-8.3,0c-0.2,0.1-0.4,0.1-0.5,0   c-2.5-1.5-5.8-1.6-8.3,0c-0.1,0.1-0.3,0.1-0.5,0l-1.9-0.9c-0.2-0.1-0.3-0.3-0.3-0.5c0-1.1-0.2-2.2-0.4-3.3   c-0.3-1.5-0.6-2.9-0.9-4.4C6.6,40.3,6,38,5.4,35.6C5.2,34.8,5,34,4.8,33.2c-0.1-0.5-0.3-1-0.1-1.5c0.2-0.6,1-1,1.6-1.3   c1.2-0.6,2.5-1.2,3.7-1.9l20.8-11.1c0.2-0.1,0.4-0.1,0.6,0.1c0.2,0.1,0.2,0.4,0.1,0.5c-0.1,0.4-0.1,1.3-0.1,1.7   c0,1.2-0.1,2.5-0.1,3.7c0,3.6,0,7.2,0,10.8c0,5.4,0.1,10.7,0.1,16.1C31.4,50.5,31.3,50.7,31.1,50.8L31.1,50.8z M22.7,35l0,0.8   c0,0.1,0,0.3-0.1,0.4c-0.1,0.1-0.2,0.1-0.4,0.2l-1.3,0c-0.6,0-0.6,1,0,1l1.3,0c0.3,0,0.5,0.2,0.5,0.5l0.1,5.4   c0,0.3-0.2,0.5-0.4,0.5c-0.8,0.1-1.4-0.1-1.9-0.7c-0.5-0.7-0.7-1.4-0.5-2.3c0-0.2,0.3-1,0.3-1.1c0-0.1-0.2-0.2-0.3-0.3   c-0.1,0-0.2-0.1-0.3,0c-0.5,0.1-0.7,1-0.8,1.4c-0.1,1,0.2,2.1,0.9,2.9c0.9,1.1,2.2,1.4,3.5,0.9c0.1,0,0.2,0,0.3,0   c1.3,0.5,2.6,0.2,3.5-0.9c0.9-1.1,1.1-2.8,0.5-4c-0.3-0.6-1.2-0.1-0.9,0.4c0.2,0.5,0.2,1.4,0.1,2c-0.3,1.2-1.1,2-2.4,1.7   c-0.2,0-0.4-0.2-0.4-0.5l0-5.4c0-0.3,0.2-0.5,0.5-0.5c0.5,0,1.9,0.2,1.9-0.5c0-0.7-1.4-0.5-1.9-0.5c-0.3,0-0.5-0.2-0.5-0.5l0-0.7   c0-0.2,0.1-0.4,0.3-0.5c1.6-0.5,2.2-2.6,0.9-3.8c-2.8-2.6-6.2,2.4-2.6,3.8C22.6,34.6,22.7,34.8,22.7,35L22.7,35z M23.3,33.7   c1.2,0,2-1.3,1-2.2c-1.2-1.1-2.8,0.2-2.4,1.4C22.2,33.5,22.8,33.7,23.3,33.7L23.3,33.7z M20.3,28c0.5-0.3,0.1-1.2-0.5-0.9l-4.6,2.6   c-0.5,0.3-0.1,1.2,0.5,0.9L20.3,28L20.3,28z M8.7,33.9L12,47.2c0.2,0.6,1.1,0.4,1-0.2L9.8,34.3c-0.1-0.2,0-0.4,0.2-0.6l2-1.1   c0.5-0.3,0.1-1.2-0.5-0.9C11.1,32,8.5,33.1,8.7,33.9C8.6,33.8,8.7,33.9,8.7,33.9L8.7,33.9z M28.8,23.2c0.5-0.3,0.1-1.2-0.5-0.9   l-5,2.8c-0.5,0.3-0.1,1.2,0.5,0.9L28.8,23.2z"/><path class="st5" d="M4.7,56.4c-1.1,0.6-2-1.2-0.9-1.8c6.1-3,6.3,3.9,11.8,3.2c1.3-0.1,1.5,1.8,0.2,2C9.9,60.6,9,54.3,4.7,56.4   L4.7,56.4z M34.8,23.1c0-1.3,2-1.3,2,0v24c0,1.3-2,1.3-2,0V23.1L34.8,23.1z M13.8,16.1c0-1.3,2-1.2,2,0l-0.1,6c0,1.3-2,1.2-2,0   L13.8,16.1L13.8,16.1z M28.1,21.9c1.1-0.6,2.1,1.1,1,1.7l-5,2.8c-1.1,0.6-2.1-1.1-1-1.7L28.1,21.9L28.1,21.9z M19.5,26.7   c1.1-0.6,2.1,1.1,1,1.7L16,31c-1.1,0.6-2.1-1.1-1-1.7L19.5,26.7L19.5,26.7z M11.3,31.3c1.1-0.6,2.1,1.1,1,1.7l-2,1.1l3.2,12.6   c0.3,1.3-1.6,1.7-1.9,0.5L8.2,33.9l0,0C7.8,32.7,10.5,31.8,11.3,31.3L11.3,31.3z M43.8,10.9c0-2.1-0.1-4.9-3.5-4.9H22.8   c-3.5,0-3.5,2.8-3.5,4.9H43.8L43.8,10.9z M45.8,9.3c0-3-2.6-5.2-5.5-5.2H22.8c-4.2,0-5.5,3.2-5.5,6.9c-3.7,0-7,2.7-7,6.5v9.3   c-6.3,3.4-7.9,3.1-6.8,7.4l3.4,15V52c1.6,0.3,2.8,0.9,4.1,1.9l1.2-1c3.1-1.4,5.1-0.8,7.6,1l1.2-1c3.1-1.4,5.1-0.8,7.6,1l1.2-1   c3.1-1.4,5.1-0.8,7.6,1l1.2-1c3.1-1.4,5.1-0.8,7.6,1l1.2-1c4.2-2,6.4,0,9.5,2.5v-4l2.9-14.3c1.6-8.1,1.4-6.3-7-10.6v-9.1   c0-3.8-3.3-6.5-7-6.5V9.3L45.8,9.3z M50.8,24.5v-7.1c0-2.7-2.4-4.5-5-4.5H17.1c-2.5,0-4.8,1.9-4.8,4.5v8.3l19.6-10.5L50.8,24.5   L50.8,24.5z M31.1,17.9L10.3,29c-6.3,3.4-5.5,1.7-4.4,6.5c0.8,3.6,3,11.8,3,14.9l1.9,0.9c2.7-1.7,6.1-1.6,8.8,0   c2.7-1.7,6.1-1.6,8.8,0l2.4-1C30.9,47,30.6,18.8,31.1,17.9L31.1,17.9z M21,37.8l1.3,0l0.1,5.4c-0.4,0.1-1,0-1.5-0.5   c-1.5-1.9,0.9-3-0.8-3.8c-1.5-0.7-2.7,2.6-0.8,5c1.4,1.7,3.2,1.4,4,1.1c0.8,0.3,2.7,0.6,4-1.1c1.7-2.2,0.5-4.6,0.5-4.6   c-0.5-1.2-2.3-0.3-1.8,0.9c0.3,0.6,0.3,3.4-1.8,3l0-5.4c0.8,0,2.4,0.2,2.4-1c0-1.2-1.5-1-2.4-1l0-0.7c2-0.7,2.6-3.2,1.1-4.6   c-3.4-3.1-7.5,2.9-3.2,4.6l0,0.8l-1.3,0C19.7,35.8,19.7,37.8,21,37.8L21,37.8z M24,31.9c-1.2-1.1-2.5,1.3-0.7,1.3   C24,33.2,24.6,32.4,24,31.9L24,31.9z M53.5,29L32.9,18.4c0,0.5,0,1.1,0,1.9V50c1.5,0,3.1,0.5,4.4,1.3c2.7-1.7,6.1-1.6,8.8,0   c2.7-1.7,6.2-1.7,8.8,0c0-1.5,4.2-18.7,3.7-19.5C58.1,31,54.8,29.8,53.5,29L53.5,29z M48.8,56.4c-1.1,0.6-2-1.2-0.9-1.8   c6.1-3,6.3,3.9,11.8,3.2c1.3-0.1,1.5,1.8,0.2,2C54,60.6,53,54.3,48.8,56.4L48.8,56.4z M40,56.4c-1.1,0.6-2-1.2-0.9-1.8   c6.1-3,6.3,3.9,11.8,3.2c1.3-0.1,1.5,1.8,0.2,2C45.2,60.6,44.2,54.3,40,56.4L40,56.4z M31.1,56.4c-1.1,0.6-2-1.2-0.9-1.8   c6.1-3,6.3,3.9,11.8,3.2c1.3-0.1,1.5,1.8,0.2,2C36.4,60.6,35.4,54.3,31.1,56.4L31.1,56.4z M22.3,56.4c-1.1,0.6-2-1.2-0.9-1.8   c6.1-3,6.3,3.9,11.8,3.2c1.3-0.1,1.5,1.8,0.2,2C27.5,60.6,26.6,54.3,22.3,56.4L22.3,56.4z M13.5,56.4c4.3-2.1,5.2,4.1,11.2,3.4   c1.3-0.1,1.1-2.1-0.2-2c-5.5,0.6-5.7-6.3-11.8-3.2C11.5,55.2,12.4,57,13.5,56.4z"/></g></svg>