<?xml version="1.0" ?><svg id="Layer_1" style="enable-background:new 0 0 64 64;" version="1.1" viewBox="0 0 64 64" xml:space="preserve" xmlns="http://www.w3.org/2000/svg" xmlns:xlink="http://www.w3.org/1999/xlink"><style type="text/css">
	.st0{fill-rule:evenodd;clip-rule:evenodd;fill:#389BDC;}
	.st1{fill-rule:evenodd;clip-rule:evenodd;fill:#FF9933;}
	.st2{fill-rule:evenodd;clip-rule:evenodd;fill:#FFFFCC;}
	.st3{fill-rule:evenodd;clip-rule:evenodd;fill:#EBD79F;}
	.st4{fill-rule:evenodd;clip-rule:evenodd;fill:#FF0000;}
	.st5{fill-rule:evenodd;clip-rule:evenodd;fill:#232E7A;}
	.st6{fill-rule:evenodd;clip-rule:evenodd;fill:#E6E6E6;}
	.st7{fill-rule:evenodd;clip-rule:evenodd;fill:#DE9800;}
	.st8{fill-rule:evenodd;clip-rule:evenodd;fill:#00FFFF;}
	.st9{fill-rule:evenodd;clip-rule:evenodd;fill:#FFCC00;}
	.st10{fill-rule:evenodd;clip-rule:evenodd;fill:#FF3399;}
	.st11{fill-rule:evenodd;clip-rule:evenodd;fill:#6666CC;}
	.st12{fill-rule:evenodd;clip-rule:evenodd;fill:#BA8E8E;}
</style><g><path class="st7" d="M59.2,5.4c-0.3,0.7-0.9,1.4-1.3,1.9L35.3,30.8c-0.2,0.2-0.4,0.2-0.6,0l-1.5-1.4c-0.1-0.1-0.1-0.2-0.1-0.3   c0-0.1,0-0.2,0.1-0.3L56.8,6.2c0.5-0.5,1.2-1,1.9-1.3c0.2,0,0.3,0,0.4,0.1C59.2,5.1,59.2,5.3,59.2,5.4L59.2,5.4z M24.8,41.8   l0.3,0.4c0.7,1.2,1.1,2.5,0.9,3.9c-0.2,1.5-1.1,2.8-2.1,3.9l-8.1,8.4c-0.5,0.5-1.2,0.8-1.9,0.8c-0.7,0-1.4-0.2-1.9-0.7l-6.4-6   C5,52,4.7,51.4,4.7,50.7c0-0.7,0.2-1.4,0.7-1.9l8.1-8.4c1.2-1.3,2.9-2.4,4.7-2.7c1.5-0.3,3,0,4.2,0.9l0.4,0.3l6-5.8   c0.2-0.2,0.4-0.1,0.6,0l1.6,1.7c0.1,0.2,0.1,0.4,0,0.6L24.8,41.8L24.8,41.8z M41.8,39.2L7.3,6.2C6.8,5.7,6.1,5.1,5.4,4.8   C5.3,4.8,5.1,4.8,5,4.9C4.9,5,4.8,5.2,4.9,5.3C5.1,6,5.7,6.7,6.2,7.2l32.7,34l-0.3,0.4c-0.9,1.2-1.2,2.7-0.9,4.2   c0.3,1.8,1.4,3.4,2.7,4.7l8.4,8.1c0.5,0.5,1.2,0.7,1.9,0.7c0.7,0,1.4-0.3,1.8-0.8l6-6.4c0.5-0.5,0.7-1.2,0.7-1.9   c0-0.7-0.3-1.4-0.8-1.9l-8.4-8.1c-1.1-1-2.4-1.9-3.9-2.1c-1.4-0.2-2.7,0.1-3.9,0.9L41.8,39.2L41.8,39.2z M21.6,41.4   c-0.5-0.4-1.3-0.8-1.9-0.9c-1.8-0.3-3.3,0.6-4.5,1.9l-1.6,1.6L12,45.6c-0.2,0.2-0.2,0.6,0,0.8c0.2,0.2,0.6,0.2,0.8,0l1.7-1.7   l1.6-1.6c0.9-0.9,2-1.7,3.3-1.5c0.5,0.1,1,0.3,1.4,0.6c0.2,0.2,0.6,0.2,0.8,0C21.8,42,21.8,41.6,21.6,41.4L21.6,41.4z M9.6,49.8   c0.2-0.2,0.2-0.6,0-0.8c-0.2-0.2-0.6-0.2-0.8,0l-1.3,1.4c-0.2,0.2-0.2,0.6,0,0.8c0.2,0.2,0.6,0.2,0.8,0L9.6,49.8L9.6,49.8z    M9.9,52.8c-0.2,0.2-0.2,0.6,0,0.8l1.2,1.2c0.2,0.2,0.6,0.2,0.8,0c0.2-0.2,0.2-0.6,0-0.8l-1.2-1.2C10.5,52.6,10.1,52.6,9.9,52.8   L9.9,52.8z M41,42.1c0.2-0.2,0.6-0.3,0.8,0c0.2,0.2,0.3,0.6,0,0.8c-0.3,0.4-0.5,0.9-0.6,1.4c-0.1,1.3,0.6,2.4,1.5,3.3l1.5,1.5   l1.8,1.7c0.2,0.2,0.2,0.6,0,0.8c-0.2,0.2-0.6,0.2-0.8,0l-1.8-1.7L42,48.4c-1.2-1.2-2.2-2.7-1.9-4.5C40.3,43.3,40.6,42.6,41,42.1   L41,42.1z M49.4,53.9l1.4,1.3c0.2,0.2,0.2,0.6,0,0.8c-0.2,0.2-0.6,0.2-0.8,0l-1.4-1.3c-0.2-0.2-0.2-0.6,0-0.8   C48.8,53.7,49.2,53.7,49.4,53.9L49.4,53.9z M52.4,53.6c-0.2-0.2-0.2-0.6,0-0.8l1.2-1.2c0.2-0.2,0.6-0.2,0.8,0   c0.2,0.2,0.2,0.6,0,0.8l-1.2,1.2C53,53.9,52.7,53.9,52.4,53.6z"/><path class="st2" d="M59.2,5.4c-0.3,0.7-0.9,1.4-1.3,1.9L35.3,30.8c-0.2,0.2-0.4,0.2-0.6,0L34,30.1L59.2,5.4L59.2,5.4z M30.2,33.9   l-6.7,6.6c0,0-0.9,0.4-0.8,1.7c1,2.8-0.2,6-2.1,8.1c-4.4,4.8-7.2,6.1-11.2,5.9h0l2.5,2.4c0.5,0.5,1.2,0.7,1.9,0.7   c0.7,0,1.4-0.3,1.9-0.8l8.1-8.4c1-1.1,1.9-2.4,2.1-3.9c0.2-1.4-0.1-2.7-0.9-3.9l-0.3-0.4l6.2-6.5c0.1-0.2,0.1-0.4,0-0.6L30.2,33.9z   "/><path class="st2" d="M5.3,5.2c7.6,7.6,29.4,29.3,35.6,35.5c2.1,2.1,4.1-1.5,8.1,2.1c4.5,3.9,8.1,7.2,7.3,9.9   c-0.3,0.9-0.6,1.9-1,2.8l3.2-3.4c0.5-0.5,0.7-1.2,0.7-1.9c0-0.7-0.3-1.4-0.8-1.9l-8.4-8.1c-1.1-1-2.4-1.9-3.9-2.1   c-1.4-0.2-2.7,0.1-3.9,0.9l-0.4,0.3L7.3,6.2C6.8,5.7,6.1,5.1,5.4,4.8c0,0-0.1,0-0.1,0L5.3,5.2z"/><path class="st5" d="M26.8,42c0.7,1.4,0.9,2.8,0.7,4.3c-0.3,1.7-1.1,3.3-2.5,4.8l-8.1,8.4c-0.8,0.8-1.9,1.3-3,1.3   c-1.1,0-2.2-0.3-3-1.1c-2.1-2-4.4-4-6.4-6c-0.8-0.8-1.3-1.9-1.3-2.9c0-1.1,0.3-2.2,1.1-3c2.7-2.5,5.5-5.8,8.1-8.4   c1.6-1.6,3.5-2.8,5.5-3.2c1.6-0.3,3.2-0.1,4.7,0.7l5.1-4.9l-1.3-1.3L5,8.3C3.8,7,3.2,5.7,3.2,4.9c0-0.5,0.2-1,0.5-1.3   C4,3.3,4.5,3.1,5,3.1c0.8,0,2,0.6,3.3,1.9l23.7,22.7L55.7,5c1.4-1.2,2.6-1.8,3.4-1.8c0.5,0,1,0.2,1.3,0.5C60.7,4,60.9,4.5,60.9,5   c0,0.8-0.6,2-1.9,3.3L36.4,31.9l5.6,5.3c1.4-0.7,2.8-0.9,4.3-0.7c1.7,0.3,3.3,1.1,4.8,2.5l8.4,8.1c0.8,0.8,1.3,1.9,1.3,3   c0,1.1-0.3,2.2-1.1,3c-2,2.1-4,4.4-6,6.4c-0.8,0.8-1.9,1.3-2.9,1.3c-1.1,0-2.2-0.3-3-1.1c-2.5-2.7-5.8-5.5-8.4-8.1   c-1.6-1.6-2.8-3.5-3.2-5.5c-0.3-1.6-0.1-3.2,0.7-4.7l-4.1-4.2l-0.7-0.7L26.8,42L26.8,42z M33.5,29.1l1.5,1.4L57.6,7   c0.7-0.7,1.1-1.3,1.3-1.7c-0.4,0.1-1,0.5-1.8,1.2L33.5,29.1L33.5,29.1z M33.6,32l-3.8-3.7L7,6.4C6.3,5.8,5.7,5.4,5.3,5.2   c0.1,0.4,0.5,1,1.2,1.8l21.4,22.2l0,0l4.2,4.4l2.1,2.2l5.2,5.4l-0.5,0.7c-0.9,1.2-1.1,2.6-0.9,3.9c0.3,1.6,1.3,3.2,2.6,4.4l8.4,8.1   c0.4,0.4,1,0.6,1.6,0.6c0.6,0,1.1-0.3,1.6-0.7l6-6.4c0.4-0.5,0.6-1,0.6-1.6c0-0.6-0.3-1.2-0.7-1.6l-8.4-8.1c-1.2-1.1-2.4-1.8-3.7-2   c-1.2-0.2-2.4,0.1-3.6,0.8l-0.7,0.4l-5.8-5.6L33.6,32L33.6,32z M30.7,35l-1.6-1.7l-6.3,6l-0.7-0.5c-1.2-0.9-2.6-1.1-3.9-0.9   c-1.6,0.3-3.2,1.3-4.4,2.6l-8.1,8.4c-0.4,0.4-0.6,1-0.6,1.6c0,0.6,0.3,1.1,0.7,1.6l6.4,6c0.5,0.4,1,0.6,1.6,0.6   c0.6,0,1.2-0.3,1.6-0.7l8.1-8.4c1.1-1.2,1.8-2.4,2-3.7c0.2-1.2-0.1-2.4-0.8-3.6l-0.4-0.7L30.7,35L30.7,35z M40.7,41.8   c0,0-2.9,3.1,1,6.9l1.5,1.5l1.8,1.7c0.4,0.4,1,0.4,1.4,0c0.4-0.4,0.4-1,0-1.4l-1.8-1.7l-1.5-1.5c-2.5-2.4-0.9-4.1-0.9-4.1   c0.4-0.4,0.3-1-0.1-1.4C41.7,41.4,41.1,41.4,40.7,41.8L40.7,41.8z M48.3,55l1.4,1.3c0.4,0.4,1,0.4,1.4,0c0.4-0.4,0.4-1,0-1.4   l-1.4-1.3c-0.4-0.4-1-0.4-1.4,0C47.9,54,47.9,54.7,48.3,55L48.3,55z M53.6,53.9l1.2-1.2c0.4-0.4,0.4-1,0-1.4c-0.4-0.4-1-0.4-1.4,0   l-1.2,1.2c-0.4,0.4-0.4,1,0,1.4C52.5,54.3,53.2,54.3,53.6,53.9L53.6,53.9z M21.9,41.1c0,0-3.1-2.9-6.9,1l-1.6,1.6l-1.7,1.7   c-0.4,0.4-0.4,1,0,1.4s1,0.4,1.4,0l1.7-1.7l1.6-1.6c2.5-2.5,4.1-0.9,4.1-0.9c0.4,0.4,1,0.4,1.4,0C22.3,42.1,22.3,41.5,21.9,41.1   L21.9,41.1z M8.5,48.7L7.2,50c-0.4,0.4-0.4,1,0,1.4c0.4,0.4,1,0.4,1.4,0L9.9,50c0.4-0.4,0.4-1,0-1.4C9.5,48.3,8.9,48.3,8.5,48.7   L8.5,48.7z M9.6,53.9l1.2,1.2c0.4,0.4,1,0.4,1.4,0c0.4-0.4,0.4-1,0-1.4L11,52.6c-0.4-0.4-1-0.4-1.4,0C9.2,52.9,9.2,53.5,9.6,53.9z"/></g></svg>