<?xml version="1.0" ?><svg id="Layer_1" style="enable-background:new 0 0 64 64;" version="1.1" viewBox="0 0 64 64" xml:space="preserve" xmlns="http://www.w3.org/2000/svg" xmlns:xlink="http://www.w3.org/1999/xlink"><style type="text/css">
	.st0{fill-rule:evenodd;clip-rule:evenodd;fill:#389BDC;}
	.st1{fill-rule:evenodd;clip-rule:evenodd;fill:#FF9933;}
	.st2{fill-rule:evenodd;clip-rule:evenodd;fill:#FFFFCC;}
	.st3{fill-rule:evenodd;clip-rule:evenodd;fill:#EBD79F;}
	.st4{fill-rule:evenodd;clip-rule:evenodd;fill:#FF0000;}
	.st5{fill-rule:evenodd;clip-rule:evenodd;fill:#232E7A;}
	.st6{fill-rule:evenodd;clip-rule:evenodd;fill:#E6E6E6;}
	.st7{fill-rule:evenodd;clip-rule:evenodd;fill:#DE9800;}
	.st8{fill-rule:evenodd;clip-rule:evenodd;fill:#00FFFF;}
	.st9{fill-rule:evenodd;clip-rule:evenodd;fill:#FFCC00;}
	.st10{fill-rule:evenodd;clip-rule:evenodd;fill:#FF3399;}
	.st11{fill-rule:evenodd;clip-rule:evenodd;fill:#6666CC;}
	.st12{fill-rule:evenodd;clip-rule:evenodd;fill:#BA8E8E;}
</style><g><path class="st2" d="M48,53.7c-15,15-40.7,4.3-40.7-16.9S33.1,4.9,48,19.9C57.4,29.2,57.4,44.3,48,53.7L48,53.7z M46.3,16.4   c-0.1,0.1-0.2,0.3-0.2,0.5c0,0.2,0.1,0.3,0.2,0.5c2.4,1.8,4.4,4.1,5.9,6.6c0.1,0.2,0.2,0.3,0.4,0.3c0.2,0,0.3,0,0.5-0.1l1.6-1.4   c0.2-0.2,0.3-0.6,0.1-0.8l-6-6.9c-0.2-0.2-0.6-0.3-0.8-0.1L46.3,16.4z"/><path class="st8" d="M34.3,60.5c-13.3,1.7-27-8.2-27-23.7c0-19.7,22.4-30.3,37.6-19.6c4.5,4.8,7.2,11.1,7.2,18   C52,46.6,44.7,56.3,34.3,60.5z"/><path class="st0" d="M14.1,53.5c-4.1-4.1-6.8-9.9-6.8-16.7c0-17.6,17.8-28,32.5-22.3c4.5,4.3,7.3,10.1,7.3,16.6   c0,13-11.2,23.6-25,23.6C19.3,54.7,16.6,54.2,14.1,53.5z"/><path class="st11" d="M10.8,49.4c-2.2-3.5-3.5-7.8-3.5-12.6c0-16.2,15.1-26.3,28.9-23.4c3.4,4,5.4,9.1,5.4,14.7   c0,12.5-10.2,22.7-22.7,22.7C16.1,50.9,13.4,50.3,10.8,49.4z"/><path class="st5" d="M31.2,11.5c5.1,0,9.9,1.5,13.9,4.1c4.3-3.7,2.9-3.9,7.4,1.2c6.9-4.1,2.4-8.9,1-9.3c-3.5-1.1-6.9,5.2-13.1,0.7   c-0.1,0.1-0.2,0.2-0.4,0.3c0.2,0.7,0.8,1.7-0.1,2.1c-0.9,0.3-1.1-0.9-1.4-1.6c-0.9,0-1.7-0.4-2.2-1.1C35,8.3,33.7,9,33.3,8   c-0.3-1,1.1-1.2,2.2-1.6c-0.1-0.9,0.4-1.8,1-2.3c-0.3-0.7-0.8-1.8,0.1-2.1c0.9-0.3,1.1,0.8,1.4,1.5c1-0.1,2,0.3,2.5,1.1   c1-0.3,2.1-1,2.5,0c0.3,1-1,1.2-2,1.5l0,0.4c4.9,4.1,8.1-2.3,12.8-0.8c2.8,0.9,7.9,7.5-0.2,12.7c4.1,4.7,4.1,3.5,0,7   c8.4,16.7-3.7,36.6-22.6,36.6c-22.4,0-33.7-27.3-17.9-43.1C17.9,14.4,24.2,11.5,31.2,11.5L31.2,11.5z M39.2,5.4   c-1.7-1.6-3.2,2-0.9,2C39.5,7.4,40,6.2,39.2,5.4L39.2,5.4z M46.7,16.9c2.4,1.9,4.5,4.2,6.1,6.8l1.6-1.4l-6-6.9L46.7,16.9L46.7,16.9   z M49.7,34.1c0.9,6.2-1.4,12.4-6,16.5c-1,0.9,0.4,2.4,1.3,1.5c5.1-4.6,7.6-11.4,6.6-18.3C51.5,32.6,49.5,32.8,49.7,34.1L49.7,34.1z    M37,54.6l-3.2,0.7c-2.9,0.4-1.4,2.2-0.6,2.1C41,56.6,37.9,54.3,37,54.6L37,54.6z M13.7,30c1-2.6,2.6-5,4.7-6.9   c0.7-0.7,0.1-4.5-4.4,2.1C9.5,31.7,13.3,30.9,13.7,30L13.7,30z M24.9,19.1l3.6-0.9c1.3-0.2,1-2.2-0.3-2   C20.9,17.3,24,19.4,24.9,19.1L24.9,19.1z M47.6,20.3C33,5.7,7.9,16.1,7.9,36.8S33,67.9,47.6,53.2C56.8,44.1,56.6,29.3,47.6,20.3z"/></g></svg>