<?xml version="1.0" ?><svg id="Layer_1" style="enable-background:new 0 0 64 64;" version="1.1" viewBox="0 0 64 64" xml:space="preserve" xmlns="http://www.w3.org/2000/svg" xmlns:xlink="http://www.w3.org/1999/xlink"><style type="text/css">
	.st0{fill-rule:evenodd;clip-rule:evenodd;fill:#389BDC;}
	.st1{fill-rule:evenodd;clip-rule:evenodd;fill:#FF9933;}
	.st2{fill-rule:evenodd;clip-rule:evenodd;fill:#FFFFCC;}
	.st3{fill-rule:evenodd;clip-rule:evenodd;fill:#EBD79F;}
	.st4{fill-rule:evenodd;clip-rule:evenodd;fill:#FF0000;}
	.st5{fill-rule:evenodd;clip-rule:evenodd;fill:#232E7A;}
	.st6{fill-rule:evenodd;clip-rule:evenodd;fill:#E6E6E6;}
	.st7{fill-rule:evenodd;clip-rule:evenodd;fill:#DE9800;}
	.st8{fill-rule:evenodd;clip-rule:evenodd;fill:#00FFFF;}
	.st9{fill-rule:evenodd;clip-rule:evenodd;fill:#FFCC00;}
	.st10{fill-rule:evenodd;clip-rule:evenodd;fill:#FF3399;}
	.st11{fill-rule:evenodd;clip-rule:evenodd;fill:#6666CC;}
	.st12{fill-rule:evenodd;clip-rule:evenodd;fill:#BA8E8E;}
</style><g><path class="st4" d="M10.3,58.5c-7.3,0-7.3-11.2,0-11.2S17.7,58.5,10.3,58.5L10.3,58.5z M46.3,35.3c2.2-0.2,4.4,0.3,6.3,1.4   c3.7,2,6.1,6,6.1,10.2c0,10.2-12.6,15.4-19.8,8.2C31.9,48.1,36.4,36,46.3,35.3L46.3,35.3z M8.6,51.2c-2.2,2.2,1.2,5.7,3.5,3.5   C14.3,52.4,10.8,49,8.6,51.2L8.6,51.2z M40.8,40.7c-3.3,3.3-3.3,9.1,0,12.5c5.5,5.5,15,1.6,15-6.2C55.8,39.1,46.3,35.2,40.8,40.7z"/><path class="st0" d="M34.8,52l-17.7,0c-0.3,0-0.5-0.2-0.6-0.5c-0.2-0.8-0.5-1.5-0.9-2.1c-0.1-0.2-0.1-0.4,0-0.6   c0.1-0.2,0.3-0.3,0.6-0.3c5.8,0.7,12.9-2.7,18-5.3c0.2-0.1,0.5-0.1,0.6,0.1c0.2,0.2,0.3,0.4,0.2,0.6c-0.6,2.3-0.5,5,0.4,7.3   c0.1,0.2,0,0.4-0.1,0.5C35.2,51.9,35,52,34.8,52z"/><path class="st9" d="M9.5,43.6c-3.4-0.2-4.6-2.9-1.5-4.9c0.2-0.2,0.6-0.1,0.8,0.1c1,1.1,1.7,2.9,1.4,4.4C10,43.4,9.8,43.6,9.5,43.6   L9.5,43.6z M52.4,15.9c-1.1,0.6-2.2,1.7-3.9,2.2c-14.3,4.3-43,7.4-39.8,19.3c0.2,0.6,1.2,1.6,1.6,2.2c0.8,1.2,0.9,2.4,0.6,3.8   c0,0.2,0,0.4,0.2,0.6c0.3,0.3,0.6,0.8,0.8,1.1c0.4,0.6,0.9,1.1,1.5,1.6c2.1,1.5,5.1,1.2,7.5,0.8c5-1,10.4-3.6,14.9-5.9   c0.1-0.1,0.2-0.1,0.3-0.3c0.3-0.6,0.7-1.2,1.1-1.8c0.2-0.2,0.2-0.5,0-0.7c-0.2-0.2-0.4-0.3-0.7-0.2l-9.3,3.7   c-0.5,0.1-0.7-0.6-0.2-0.8c2.4-0.8,4.8-1.7,7.2-2.8c3.5-1.6,6.9-3.3,10.2-5.3c1.9-1.1,4.4-2.6,6.1-4.1c0.4-0.3,0.9,0.3,0.5,0.6   c-1.4,1.3-3.3,2.5-4.9,3.5c-0.2,0.1-0.3,0.4-0.3,0.7c0.1,0.3,0.3,0.4,0.6,0.4c0.6,0,1.4,0,1.9,0c0.4-0.1,0.8-0.3,1.2-0.5   c0.9-0.5,1.8-0.9,2.7-1.4c3-1.5,2.8-1.5,6.1-1.6c0.2,0,0.4-0.1,0.5-0.3c0.1-0.2,0.1-0.4,0.1-0.6l-5.4-14.2   c-0.1-0.2-0.2-0.3-0.4-0.4C52.7,15.7,52.5,15.7,52.4,15.9L52.4,15.9z M54.1,28.2c-0.1,0-0.3,0.1-0.4,0.1c-0.2-0.1-0.9-2-1-2.3   c-0.2-0.5,0.5-0.8,0.7-0.3c0.2,0.4,1,2,0.9,2.3C54.3,28.1,54.1,28.2,54.1,28.2L54.1,28.2z M21.2,42.8c0.5-0.1,0.6,0.7,0.1,0.8   c-1.6,0.2-4.8,0.5-6.3-0.3c-0.2-0.1-0.8-0.5-0.5-0.9c0.1-0.1,0.3-0.1,0.5-0.1C16.4,43.2,19.7,43,21.2,42.8z"/><path class="st2" d="M54.5,19.2c-0.8,1.5-2.2,2.9-4.5,3.6c-6.9,2.1-24.6,3.8-31.4,7.6c-6.8,3.9-8.5,7.1-7.8,10.1l0,0   c0,0.1,0.1,0.2,0.1,0.3c0.4,1,1.7,1.7,3.7,2c-0.1-0.1-0.1-0.3,0-0.4c0.1-0.1,0.3-0.1,0.5-0.1c0.4,0.2,0.9,0.4,1.5,0.5   c3.3-0.1,7.8-1.4,13-4.4c10.5-6,14.2-10.2,19.7-12.5s8.3,1.3,8.3,1.3v0L54.5,19.2z"/><path class="st5" d="M11.6,31c-1.4,1.7-3.2,3-2.3,6.2c0.3,1,3,2.3,2.2,6.3c1.4,1.1,1.6,4.8,9.3,3.3c4.3-0.8,9.6-3.2,14.8-5.8   c0.3-0.7,0.7-1.3,1.2-1.9l-9.3,3.7c-1.2,0.4-1.8-1.5-0.6-1.9c9.5-3,20.8-9.8,23.2-12c1-0.9,2.3,0.6,1.3,1.5c0,0-1.6,1.4-5,3.6   c2.9-0.1,0.8,0.5,5.5-1.8c3.3-1.6,3-1.6,6.3-1.6l-5.4-14.2l-2.1,1.8c0,0,1.9,3.6,0.8,4c-0.7,0.3-1.6-1.2-2.4-3.4   C38.9,21.9,19.1,24.2,11.6,31L11.6,31z M8.3,39.1c0.9,1,1.5,2.6,1.2,3.8C6.7,42.8,5.7,40.8,8.3,39.1L8.3,39.1z M7,37.6   C7.6,36,6,34,9.3,30.4c-1.7-1.5-5-5.1-2.9-9.2c2.7-5.1,6.7-1.3,11.9-3.6c4.7-2,0.2-5.8,0.2-5.8c-0.2,0.7-0.4,2.5-1.5,2.1   c-1.1-0.4-0.1-2.1,0.1-2.8c-0.8-0.5-1.2-1.4-1.2-2.2c-0.6-0.2-1.9-0.4-1.6-1.4c0.3-0.9,1.4-0.4,2-0.2c0.5-0.9,1.5-1.4,2.4-1.3   c0.2-0.7,0.4-2.3,1.5-2c1,0.3,0.2,1.8,0,2.5c0.8,0.6,1.2,1.6,1.1,2.5c0.6,0.2,1.9,0.4,1.6,1.3c-0.3,1-1.5,0.3-2.2,0.1   c-0.1,0.1-0.2,0.3-0.3,0.4c6.3,6.6-1.7,10-8.3,9.5c-1.7-0.1-2.9-0.2-3.9,1.7c-1.6,3,1.3,5.8,2.6,6.9c9.1-7.3,35.4-10.6,38.8-12.6   c0.8-0.4,3.7-4.4,4.5-2.2l6.5,16.9c0.8,2.1-4.1,1.2-4.8,1.4c-1.1,0.2-3.1,1.5-4.4,2.1C65,39.4,61.6,59.9,47,59.9   c-4.8,0-9-2.6-11.3-6.6l-18.4,0c-0.5,8.9-14,8.5-14-0.4c0-4,3.4-7.2,7.3-7c-0.8-1.1-0.1-0.9-1.3-1c-1.5-0.1-3.4-0.2-4.3-2.7   C4.1,39.6,5.7,38.3,7,37.6L7,37.6z M18.5,7.7c-2.2,0.3-0.4,3.7,1,1.9C20.1,8.8,19.5,7.6,18.5,7.7L18.5,7.7z M48,39.6   c1.4,0.2,2.7,0.8,3.8,1.7l-3.3,3c-0.1-0.1-0.3-0.1-0.4-0.2V39.6L48,39.6z M46,44.1c-0.1,0-0.1,0.1-0.2,0.1l-3.1-3.3   c1-0.7,2.1-1.1,3.3-1.3V44.1L46,44.1z M47,45.9c0.9,0,1.4,1.2,0.7,1.7C46.3,48.8,45,46.2,47,45.9L47,45.9z M49.8,45.7l3.3-3   c0.7,1.1,1.2,2.3,1.3,3.7l-4.5-0.3C49.9,46,49.9,45.9,49.8,45.7L49.8,45.7z M49.8,48.1l4.5,0.3c-0.2,1.2-0.8,2.3-1.5,3.2l-3.1-3.3   C49.7,48.2,49.8,48.2,49.8,48.1L49.8,48.1z M48.2,49.7c-0.1,0-0.1,0.1-0.2,0.1v4.5c1.2-0.2,2.3-0.6,3.3-1.3L48.2,49.7L48.2,49.7z    M46,49.7c-0.1-0.1-0.3-0.1-0.4-0.2l-3.3,3c1,0.9,2.3,1.5,3.8,1.7V49.7L46,49.7z M44.3,48.1l-3.3,3c-0.7-1.1-1.2-2.3-1.3-3.7   l4.5,0.3C44.2,47.8,44.2,48,44.3,48.1L44.3,48.1z M44.3,45.7l-4.5-0.3c0.2-1.2,0.8-2.3,1.5-3.2l3.1,3.3   C44.3,45.6,44.3,45.6,44.3,45.7L44.3,45.7z M40.4,40.3c5.9-5.9,16.1-1.7,16.1,6.7c0,8.4-10.2,12.5-16.1,6.7   C36.8,50,36.8,43.8,40.4,40.3L40.4,40.3z M46.3,35.9c6.2-0.5,11.7,4.7,11.7,11c0,9.8-11.9,14.6-18.8,7.8   C32.6,48.1,36.9,36.5,46.3,35.9L46.3,35.9z M34.8,51.4l-17.7,0c-0.2-0.8-0.5-1.6-1-2.3c5.7,0.7,12.5-2.5,18.3-5.3   C33.8,46.2,34,49,34.8,51.4L34.8,51.4z M10.3,51.9c-2.1,0.4-0.8,3,0.7,1.8C11.8,53.1,11.3,51.9,10.3,51.9L10.3,51.9z M8.2,50.8   c2.8-2.8,7.1,1.5,4.3,4.3C9.7,57.9,5.4,53.6,8.2,50.8L8.2,50.8z M10.3,47.9c6.6,0,6.6,10,0,10S3.8,47.9,10.3,47.9L10.3,47.9z    M21.2,42.2c1.3-0.2,1.5,1.8,0.3,2c-9.9,1.3-7.9-3.4-6.1-2.3C15.3,41.8,16.8,42.8,21.2,42.2L21.2,42.2z M52.2,26.3   c-0.5-1.2,1.3-2,1.8-0.8c0.6,1.5,1.6,2.7,0.3,3.3C53,29.3,52.9,28,52.2,26.3z"/><path class="st9" d="M10.3,51.5c0.9,0,1.6,0.7,1.6,1.5c0,0.8-0.7,1.5-1.6,1.5c-0.9,0-1.6-0.7-1.6-1.5C8.8,52.1,9.5,51.5,10.3,51.5   L10.3,51.5z M47.1,45.4c0.9,0,1.6,0.7,1.6,1.5c0,0.8-0.7,1.5-1.6,1.5c-0.9,0-1.6-0.7-1.6-1.5C45.5,46,46.2,45.4,47.1,45.4z"/></g></svg>