<?xml version="1.0" ?><svg id="Layer_1" style="enable-background:new 0 0 64 64;" version="1.1" viewBox="0 0 64 64" xml:space="preserve" xmlns="http://www.w3.org/2000/svg" xmlns:xlink="http://www.w3.org/1999/xlink"><style type="text/css">
	.st0{fill-rule:evenodd;clip-rule:evenodd;fill:#389BDC;}
	.st1{fill-rule:evenodd;clip-rule:evenodd;fill:#FF9933;}
	.st2{fill-rule:evenodd;clip-rule:evenodd;fill:#FFFFCC;}
	.st3{fill-rule:evenodd;clip-rule:evenodd;fill:#EBD79F;}
	.st4{fill-rule:evenodd;clip-rule:evenodd;fill:#FF0000;}
	.st5{fill-rule:evenodd;clip-rule:evenodd;fill:#232E7A;}
	.st6{fill-rule:evenodd;clip-rule:evenodd;fill:#E6E6E6;}
	.st7{fill-rule:evenodd;clip-rule:evenodd;fill:#DE9800;}
	.st8{fill-rule:evenodd;clip-rule:evenodd;fill:#00FFFF;}
	.st9{fill-rule:evenodd;clip-rule:evenodd;fill:#FFCC00;}
	.st10{fill-rule:evenodd;clip-rule:evenodd;fill:#FF3399;}
	.st11{fill-rule:evenodd;clip-rule:evenodd;fill:#6666CC;}
	.st12{fill-rule:evenodd;clip-rule:evenodd;fill:#BA8E8E;}
</style><g><path class="st0" d="M14.3,46.4c10.3-2.8,25-2.8,35.3,0c0.2,0.1,0.4,0.2,0.4,0.5c0,0.2,0,0.5-0.2,0.6c-7,5.1-24.9,4.3-32.8,1.5   c-1-0.4-2-0.8-2.9-1.5c-0.2-0.1-0.3-0.4-0.2-0.6C13.9,46.6,14.1,46.5,14.3,46.4z"/><path class="st2" d="M38.7,26.2c0,11.9-12.9,12.7-13.4,0.6C24.8,14.1,38.7,13.3,38.7,26.2L38.7,26.2z M32.4,23.9l0-0.7   c0-0.3,0.1-0.5,0.4-0.6c1.3-0.5,1.6-2.2,0.6-3.2c-2.2-2.1-4.9,2-2.2,3.2c0.2,0.1,0.4,0.3,0.4,0.6l0,0.7c0,0.3-0.3,0.6-0.6,0.6   c-1.6,0-1.4,0.8-0.8,0.8l0.9,0c0.3,0,0.6,0.3,0.6,0.6l0.1,4.5c0,0.3-0.2,0.6-0.6,0.6c-2.7,0.1-1.3-3.6-1.8-3.9c-0.1,0-0.1,0-0.2,0   c-0.4,0.1-0.6,0.9-0.6,1.2c-0.1,0.9,0.2,1.8,0.7,2.5c0.7,1,1.7,1.2,2.8,0.8c0.1,0,0.3,0,0.4,0c1.1,0.4,2.1,0.1,2.8-0.8   c0.5-0.7,0.8-1.6,0.7-2.5c0-0.3-0.2-1.1-0.6-1.2c-0.1,0-0.2,0-0.2,0c-0.5,0.2,0.8,4-1.9,3.9c-0.3,0-0.6-0.3-0.6-0.6l0-4.5   c0-0.3,0.3-0.6,0.6-0.6c0.2,0,1.3-0.1,1.4-0.4c-0.1-0.3-1.2-0.4-1.4-0.4C32.6,24.5,32.4,24.2,32.4,23.9L32.4,23.9z M33,20.5   c0-0.2-0.1-0.3-0.2-0.4c-1.6-1.6-2.7,1.3-1.3,2c0.5,0.2,1,0,1.3-0.3c0.1-0.1,0.2-0.3,0.2-0.4V20.5z"/><path class="st4" d="M50.9,39.8c-5.7-1.7-12-2.3-18-2.3c-0.3,0-0.6-0.2-0.6-0.6c0-0.3,0.2-0.6,0.5-0.6c3.1-0.5,5.1-3.3,6-6.1   c0.1-0.3,0.4-0.5,0.7-0.4c2.5,0.5,5.2,1,7.6,1.6c1.3,0.4,2.8,0.9,3.6,2c1,1.4,0.9,4,0.9,5.7c0,0.2-0.1,0.4-0.2,0.5   C51.3,39.8,51.1,39.9,50.9,39.8L50.9,39.8z M31,37.5c-6,0.1-12.2,0.7-18,2.3c-0.2,0.1-0.4,0-0.5-0.1c-0.2-0.1-0.2-0.3-0.2-0.5   c0-1.4-0.2-3.2,0.2-4.5c0.5-1.5,1.8-2.4,3.2-3c2.5-1.1,6-1.6,8.7-1.9c0.3,0,0.6,0.1,0.6,0.4c0.9,2.8,2.9,5.6,6,6.1   c0.3,0,0.5,0.3,0.5,0.6C31.6,37.2,31.3,37.5,31,37.5L31,37.5z M17.9,34.2c0.1,0,0.2-0.1,0.2-0.2c0.5-0.8-1.5-0.2-1.6-0.2   c-0.3,0.1-1.6,0.6-1.7,0.9c0,0.1,0.5,0.3,0.6,0.3L17.9,34.2z"/><path class="st8" d="M10.6,38.9c-4.6-2.6-8.3-7.2-4-12c0,0,0,0,0,0l10.4-9.3c0,0,0,0,0,0c8.3-6.3,21.9-6.2,30.1,0.2c0,0,0,0,0,0   L57.5,27c0,0,0,0,0.1,0.1c3.9,4.7,0.2,9.4-4.2,11.8c-0.2,0.1-0.4,0.1-0.6,0c-0.2-0.1-0.3-0.3-0.3-0.5v-3.2c0-4.2-9.6-5.7-12.6-6.1   c-0.2,0-0.3-0.1-0.4-0.2c-0.1-0.1-0.1-0.3-0.1-0.5c0.1-0.4,0.1-0.9,0.1-1.3c0.2-2.6-0.6-6-2.1-8.1c-1.3-1.9-3.3-3.4-5.7-3.1   c-2.3,0.2-4.3,2-5.4,4c-1.5,2.5-2,5.6-1.6,8.5c0.1,0.3-0.2,0.6-0.5,0.7c-2.5,0.5-5.1,1-7.6,1.7c-1.3,0.4-2.9,0.9-3.8,1.9   c-1.3,1.4-1.3,3.9-1.3,5.7c0,0.2-0.1,0.4-0.3,0.5C11,39,10.8,39,10.6,38.9L10.6,38.9z M51.7,41.3c0-0.3-0.2-0.5-0.4-0.6   c-11.2-3.5-27.4-3.5-38.6,0c-0.3,0.1-0.4,0.3-0.4,0.6v4c0,0.2,0.1,0.4,0.2,0.5c0.2,0.1,0.3,0.1,0.5,0.1c10.8-3.3,27.1-3.3,37.9,0   c0.2,0.1,0.4,0,0.5-0.1c0.2-0.1,0.2-0.3,0.2-0.5V41.3L51.7,41.3z M21.4,18.2c-2.5,1.8-4.9,3.6-7.3,5.5c-0.4,0.3,0.1,0.9,0.5,0.6   c2.4-1.9,4.8-3.7,7.3-5.5C22.2,18.5,21.8,17.9,21.4,18.2L21.4,18.2z M10.6,26.6c-1,0.9-2,2.1-2.6,3.3c-0.1,0.3-0.6,1.2-0.3,1.5   c0.1,0.1,0.2,0.1,0.3,0.1c0.1,0,0.1,0,0.2,0c0.2-0.1,0.6-1,0.7-1.2c0.6-1.2,1.4-2.1,2.3-3.1C11.6,26.9,11,26.3,10.6,26.6L10.6,26.6   z M19.6,42c-1,0.2-2.2,0.4-3.2,0.7c-0.5,0.2-0.7-0.6-0.3-0.7c0.9-0.3,2.3-0.7,3.3-0.6c0.1,0,0.5,0.1,0.5,0.2c0,0.1-0.1,0.2-0.1,0.3   C19.8,41.9,19.7,42,19.6,42L19.6,42z M49.6,43.6c-0.2-0.1-0.2-0.8,0-0.9C49.7,42.8,49.8,43.4,49.6,43.6L49.6,43.6z M14.1,42.7   c0.2,0.1,0.2,0.8,0,0.9C13.9,43.5,13.9,42.8,14.1,42.7z"/><path class="st2" d="M29.9,12.9c6.2-0.5,12.6,1.1,17.3,4.8c0,0,0,0,0,0L57.5,27c0,0,0,0,0.1,0.1c2.6,3.1,1.8,6.2-0.3,8.7   c-0.7-5.9-6.1-9.5-16.5-16.8C36.4,15.8,32.8,14,29.9,12.9z"/><path class="st2" d="M43.4,38.7c-0.1-0.1-0.1-0.2-0.1-0.4v-7.6c0-0.2,0.1-0.3,0.2-0.5c0.1-0.1,0.3-0.2,0.5-0.1   c1.2,0.2,2.3,0.5,3.4,0.8c1.5,0.4,3,1,3.9,2.3c1.1,1.6,1,4.2,1,6.1c0,0.4-0.2,0.7-0.5,1c0,0-0.1,0.1-0.1,0.1c0.4,0.2,0.6,0.6,0.6,1   v4c0,0.4-0.2,0.7-0.5,1c-0.3,0.2-0.7,0.3-1.1,0.2c-2.3-0.7-4.7-1.2-7-1.6c-0.3,0-0.5-0.3-0.5-0.6V39C43.2,38.9,43.3,38.8,43.4,38.7   z"/><path class="st5" d="M58.7,26.1c4.9,5.7,0.4,11.5-5.5,14.5c0,4.5,1,6.5-3.4,8.9c-10.1,5.2-38.8,4.1-38.8-4.1v-4.8   c-6.1-3.1-10.5-8.9-5.3-14.7l10.7-9.5C25,9.7,39.4,9.8,48,16.6L58.7,26.1L58.7,26.1z M21,17.7c0,0-3.9,2.9-7.3,5.5   c-1,0.8,0.2,2.4,1.2,1.6c3.4-2.7,7.2-5.5,7.2-5.5C23.2,18.5,22.1,16.9,21,17.7L21,17.7z M10.2,26.2c-3.2,3.1-4.1,5.7-2.3,5.9   c1.4,0.2,0.8-1.7,3.7-4.5C12.5,26.8,11.2,25.3,10.2,26.2L10.2,26.2z M16.6,43.3c0,0,1.1-0.3,3.1-0.7c1-0.2,2.3-3.2-3.7-1.2   C14.8,41.8,15.4,43.7,16.6,43.3L16.6,43.3z M15.6,35.6l2.5-0.8c1-0.3,1.5-2.6-1.8-1.5C12.5,34.5,14.8,35.9,15.6,35.6L15.6,35.6z    M30.1,25.9l0.9,0l0.1,4.5c-2.1,0.1-0.3-3.3-1.6-3.8c-1.5-0.6-2.5,2.4-0.8,4.6c1.1,1.6,2.7,1.3,3.4,1c0.8,0.3,2.3,0.5,3.4-1   c1.6-2.2,0.6-5.2-0.8-4.6c-1.3,0.5,0.5,3.9-1.6,3.8l0-4.5c2.7,0,2.6-2,0-2l0-0.7c1.7-0.7,2.1-2.9,0.8-4.2c-2.8-2.8-6.5,2.5-2.9,4.2   l0,0.7C28.3,23.9,28.8,25.9,30.1,25.9L30.1,25.9z M32.4,20.5c-1.2-1.2-1.2,2,0,0.8V20.5L32.4,20.5z M49.6,42.1c-1,0-1,2.1,0,2.1   C50.5,44.2,50.5,42.1,49.6,42.1L49.6,42.1z M14.1,42.1c-1,0-1,2.1,0,2.1S15,42.1,14.1,42.1L14.1,42.1z M40.1,27.1   c0,0.5-0.1,0.9-0.2,1.4c3.7,0.5,13.2,2,13.2,6.7v3.2c4.3-2.4,7.6-6.7,4-10.9l-10.3-9.3c-8-6.3-21.3-6.3-29.3-0.2L7,27.2   c-3.9,4.4-0.6,8.6,3.8,11.1c0-7.9,2.8-7.6,13.2-9.9c-1.6-9.8,7.7-18.1,13.8-9.8C39.4,20.7,40.3,24.2,40.1,27.1L40.1,27.1z    M39.5,30.4c-1,3-3.2,5.9-6.5,6.5c6.2,0.1,12.6,0.7,18.1,2.4C51.1,32.4,50.9,32.7,39.5,30.4L39.5,30.4z M31,36.9   c-3.3-0.5-5.5-3.5-6.5-6.5c-13.1,1.6-11.6,4.3-11.6,8.8C18.5,37.6,24.8,37,31,36.9L31,36.9z M25.9,26.8   c0.5,11.3,12.2,10.5,12.2-0.6C38.1,14.2,25.4,14.8,25.9,26.8L25.9,26.8z M51.1,41.3c-11.1-3.4-27.2-3.4-38.2,0v4   c10.9-3.3,27.4-3.3,38.2,0V41.3L51.1,41.3z M17.2,48.4c7.7,2.7,25.4,3.6,32.2-1.4c-10.1-2.8-24.8-2.7-35,0   C15.1,47.5,16.1,48,17.2,48.4z"/></g></svg>