<?xml version="1.0" ?><svg id="Layer_1" style="enable-background:new 0 0 64 64;" version="1.1" viewBox="0 0 64 64" xml:space="preserve" xmlns="http://www.w3.org/2000/svg" xmlns:xlink="http://www.w3.org/1999/xlink"><style type="text/css">
	.st0{fill-rule:evenodd;clip-rule:evenodd;fill:#389BDC;}
	.st1{fill-rule:evenodd;clip-rule:evenodd;fill:#FF9933;}
	.st2{fill-rule:evenodd;clip-rule:evenodd;fill:#FFFFCC;}
	.st3{fill-rule:evenodd;clip-rule:evenodd;fill:#EBD79F;}
	.st4{fill-rule:evenodd;clip-rule:evenodd;fill:#FF0000;}
	.st5{fill-rule:evenodd;clip-rule:evenodd;fill:#232E7A;}
	.st6{fill-rule:evenodd;clip-rule:evenodd;fill:#E6E6E6;}
	.st7{fill-rule:evenodd;clip-rule:evenodd;fill:#DE9800;}
	.st8{fill-rule:evenodd;clip-rule:evenodd;fill:#00FFFF;}
	.st9{fill-rule:evenodd;clip-rule:evenodd;fill:#FFCC00;}
	.st10{fill-rule:evenodd;clip-rule:evenodd;fill:#FF3399;}
	.st11{fill-rule:evenodd;clip-rule:evenodd;fill:#6666CC;}
	.st12{fill-rule:evenodd;clip-rule:evenodd;fill:#BA8E8E;}
</style><g><path class="st1" d="M58.9,47.6H25.1c-0.3,0-0.6-0.3-0.6-0.6V33c0-0.3,0.3-0.6,0.6-0.6h33.8c0.3,0,0.6,0.3,0.6,0.6v14   C59.5,47.3,59.2,47.6,58.9,47.6L58.9,47.6z M23.2,19.5l-1.9-2.1c-0.2-0.2-0.2-0.4-0.1-0.6c0.1-0.2,0.3-0.4,0.5-0.4h30.2   c2,0,4,0.8,5.4,2.3c0.2,0.2,0.2,0.4,0.1,0.7c-0.1,0.2-0.3,0.4-0.6,0.4H23.6C23.4,19.7,23.3,19.6,23.2,19.5L23.2,19.5z M24.4,23.1   c-0.1-0.6-0.2-1.2-0.4-1.8c-0.1-0.2,0-0.4,0.1-0.5c0.1-0.2,0.3-0.3,0.5-0.3h33.7c0.2,0,0.4,0.1,0.5,0.3c0.3,0.7,0.5,1.4,0.6,2.1   c0,0.2,0,0.3-0.1,0.5c-0.1,0.1-0.3,0.2-0.5,0.2l-33.8,0C24.7,23.6,24.5,23.4,24.4,23.1L24.4,23.1z M24.5,27v-2   c0-0.3,0.3-0.6,0.6-0.6l33.8,0c0.3,0,0.6,0.3,0.6,0.6v2c0,0.3-0.3,0.6-0.6,0.6H25.1C24.8,27.6,24.5,27.3,24.5,27L24.5,27z    M25.1,28.4h33.8c0.3,0,0.6,0.3,0.6,0.6v2c0,0.3-0.3,0.6-0.6,0.6H25.1c-0.3,0-0.6-0.3-0.6-0.6v-2C24.5,28.7,24.8,28.4,25.1,28.4   L25.1,28.4z M9.1,31.1c0,0.3,0.3,0.5,0.6,0.5H19c0.3,0,0.6-0.2,0.6-0.5c0.2-1.7,1.7-3.6,3.5-3.7c0.3,0,0.6-0.3,0.6-0.6   c0-9.3-3.1-10.3-11.6-10.3c-6.4,0-7.6,5.1-7.6,10.3c0,0.2,0.1,0.3,0.2,0.4c0.1,0.1,0.3,0.2,0.4,0.2C7.2,27.2,8.8,29.2,9.1,31.1   L9.1,31.1z M23.1,42.9c-1.9,0.2-3.5,2.3-3.5,4.2c0,0.3-0.3,0.6-0.6,0.6H9.6C9.2,47.6,9,47.3,9,47c0-2-1.8-4.2-3.9-4.2   c-0.2,0-0.3-0.1-0.4-0.2c-0.1-0.1-0.2-0.3-0.2-0.4v-4.4c0-0.2,0.1-0.3,0.2-0.4c0.1-0.1,0.3-0.2,0.4-0.2c2.2,0.1,4-2.3,4-4.3   c0-0.2,0.1-0.3,0.2-0.4c0.1-0.1,0.3-0.2,0.4-0.2H19c0.2,0,0.3,0.1,0.4,0.2c0.1,0.1,0.2,0.3,0.2,0.4c0,1.8,1.6,4.1,3.5,4.3   c0.3,0,0.6,0.3,0.6,0.6v4.4C23.7,42.6,23.4,42.8,23.1,42.9L23.1,42.9z M42.4,37.6c1.7-0.7,1.1-3-0.7-3c-1.9,0-2.3,2.4-0.6,3.1   c0.2,0.1,0.4,0.3,0.4,0.6c0,0.5-0.3,6.2,0.2,6.2c0.6,0,0.2-5.7,0.2-6.2C42.1,37.9,42.2,37.7,42.4,37.6z"/><path class="st1" d="M58.9,47.6h-8.2c5.2-2,4.3-3.8,4.1-15.2h4c0.3,0,0.6,0.3,0.6,0.6v14C59.5,47.3,59.2,47.6,58.9,47.6L58.9,47.6z    M50.5,16.4c0.9,0.8,1.7,1.9,2.4,3.3h4c0.2,0,0.5-0.1,0.6-0.4c0.1-0.2,0-0.5-0.1-0.7c-1.4-1.5-3.4-2.3-5.4-2.3H50.5L50.5,16.4z    M53.3,20.5c0.4,0.9,0.7,1.9,1,3.1h4.5c0.2,0,0.3-0.1,0.5-0.2c0.1-0.1,0.2-0.3,0.1-0.5c-0.1-0.7-0.3-1.4-0.6-2.1   c-0.1-0.2-0.3-0.3-0.5-0.3H53.3L53.3,20.5z M54.5,24.4c0.2,1,0.3,2,0.3,3.2h4.1c0.3,0,0.6-0.3,0.6-0.6v-2c0-0.3-0.3-0.6-0.6-0.6   H54.5L54.5,24.4z M54.8,28.4c0,0.2,0,0.4,0,0.6c0,0.9,0,1.8,0,2.6h4.1c0.3,0,0.6-0.3,0.6-0.6v-2c0-0.3-0.3-0.6-0.6-0.6H54.8z"/><path class="st3" d="M19,31.6H9.7c-0.3,0-0.6-0.2-0.6-0.5c-0.3-1.9-1.9-3.9-4-3.7c-0.2,0-0.3,0-0.4-0.2c-0.1-0.1-0.2-0.3-0.2-0.4   c0-5.2,1.2-10.3,7.6-10.3c8.5,0,11.6,1.1,11.6,10.3c0,0.3-0.2,0.6-0.6,0.6c-1.8,0.2-3.3,2.1-3.5,3.7C19.6,31.4,19.3,31.6,19,31.6   L19,31.6z M23.2,19.5c0.1,0.1,0.3,0.2,0.4,0.2h33.3c0.2,0,0.5-0.1,0.6-0.4c0.1-0.2,0-0.5-0.1-0.7c-1.4-1.5-3.4-2.3-5.4-2.3H21.7   c-0.2,0-0.4,0.1-0.5,0.4c-0.1,0.2-0.1,0.5,0.1,0.6L23.2,19.5L23.2,19.5z M24.4,23.1c-0.1-0.6-0.2-1.2-0.4-1.8   c-0.1-0.2,0-0.4,0.1-0.5c0.1-0.2,0.3-0.3,0.5-0.3h33.7c0.2,0,0.4,0.1,0.5,0.3c0.3,0.7,0.5,1.4,0.6,2.1c0,0.2,0,0.3-0.1,0.5   c-0.1,0.1-0.3,0.2-0.5,0.2l-33.8,0C24.7,23.6,24.5,23.4,24.4,23.1L24.4,23.1z M24.5,27v-2c0-0.3,0.3-0.6,0.6-0.6l33.8,0   c0.3,0,0.6,0.3,0.6,0.6v2c0,0.3-0.3,0.6-0.6,0.6H25.1C24.8,27.6,24.5,27.3,24.5,27L24.5,27z M25.1,28.4h33.8c0.3,0,0.6,0.3,0.6,0.6   v2c0,0.3-0.3,0.6-0.6,0.6H25.1c-0.3,0-0.6-0.3-0.6-0.6v-2C24.5,28.7,24.8,28.4,25.1,28.4z"/><path class="st2" d="M59.5,29.9L30.9,31v0.6h28c0.3,0,0.6-0.3,0.6-0.6V29.9L59.5,29.9z M56.9,18.3l-26,1v0.4h26   c0.2,0,0.5-0.1,0.6-0.4c0.1-0.2,0-0.5-0.1-0.7C57.2,18.5,57,18.4,56.9,18.3L56.9,18.3z M59.2,22l-28.4,1.1v0.5l28,0   c0.2,0,0.3-0.1,0.5-0.2c0.1-0.1,0.2-0.3,0.1-0.5C59.4,22.6,59.3,22.3,59.2,22L59.2,22z M59.5,25.8l-28.6,1.1v0.6L44,27.6h15   c0.3,0,0.6-0.3,0.6-0.6V25.8z"/><path class="st8" d="M7.7,31.6H5.1c-0.3,0-0.6-0.3-0.6-0.6v-2.3c0-0.3,0.2-0.6,0.5-0.6c1.6-0.2,2.9,1.3,3.3,2.7   c0.1,0.2,0,0.4-0.1,0.5C8.1,31.5,7.9,31.6,7.7,31.6L7.7,31.6z M20.5,30.8c0.3-1.1,1.3-2.4,2.5-2.7c0.2,0,0.4,0,0.5,0.1   c0.1,0.1,0.2,0.3,0.2,0.5V31c0,0.3-0.3,0.6-0.6,0.6H21c-0.2,0-0.4-0.1-0.5-0.2C20.4,31.2,20.4,31,20.5,30.8L20.5,30.8z M21,32.4   h2.1c0.3,0,0.6,0.3,0.6,0.6v2.9c0,0.2-0.1,0.3-0.2,0.5c-0.1,0.1-0.3,0.2-0.5,0.1c-1.3-0.3-2.8-2.3-2.6-3.6   C20.4,32.6,20.7,32.4,21,32.4L21,32.4z M23.7,44.3V47c0,0.3-0.3,0.6-0.6,0.6H21c-0.3,0-0.6-0.3-0.6-0.6c0-1.3,1.3-3.1,2.6-3.3   c0.2,0,0.4,0,0.5,0.1C23.6,43.9,23.7,44.1,23.7,44.3L23.7,44.3z M7.6,47.6H5.1c-0.3,0-0.6-0.3-0.6-0.6v-2.8c0-0.3,0.3-0.6,0.6-0.6   c1.6,0,3.1,1.9,3.1,3.4C8.2,47.3,7.9,47.6,7.6,47.6L7.6,47.6z M8.3,32.9c0.2,0.8-0.5,2-1,2.6c-0.6,0.6-1.3,1.1-2.2,1   c-0.3,0-0.6-0.3-0.6-0.6V33c0-0.3,0.3-0.6,0.6-0.6h2.6C8,32.4,8.2,32.6,8.3,32.9z"/><path class="st2" d="M58.9,47.6h-8.2c5.2-2,4.3-3.8,4.1-15.2h4c0.3,0,0.6,0.3,0.6,0.6v14C59.5,47.3,59.2,47.6,58.9,47.6L58.9,47.6z    M50.5,16.4c0.9,0.8,1.7,1.9,2.4,3.3h4c0.2,0,0.5-0.1,0.6-0.4c0.1-0.2,0-0.5-0.1-0.7c-1.4-1.5-3.4-2.3-5.4-2.3H50.5L50.5,16.4z    M53.3,20.5c0.4,0.9,0.7,1.9,1,3.1h4.5c0.2,0,0.3-0.1,0.5-0.2c0.1-0.1,0.2-0.3,0.1-0.5c-0.1-0.7-0.3-1.4-0.6-2.1   c-0.1-0.2-0.3-0.3-0.5-0.3H53.3L53.3,20.5z M54.5,24.4c0.2,1,0.3,2,0.3,3.2h4.1c0.3,0,0.6-0.3,0.6-0.6v-2c0-0.3-0.3-0.6-0.6-0.6   H54.5L54.5,24.4z M54.8,28.4c0,0.2,0,0.4,0,0.6c0,0.9,0,1.8,0,2.6h4.1c0.3,0,0.6-0.3,0.6-0.6v-2c0-0.3-0.3-0.6-0.6-0.6H54.8z"/><path class="st5" d="M12.1,15h39.8c5,0,9,4,9,9v25c-19.3,0-38.6,0-57.8,0V24C3.1,19.1,7.1,15,12.1,15L12.1,15z M48.1,59   c0.7,1.1-1.1,2.1-1.7,1c-2-3.4-5.1-7.4-3.6-8.3C44.3,50.8,46.2,55.6,48.1,59L48.1,59z M16.6,60c-0.7,1.1-2.4,0.1-1.7-1   c2-3.4,3.9-8.2,5.4-7.3C21.7,52.5,18.6,56.5,16.6,60L16.6,60z M33.1,60c0,1.3-2,1.3-2,0c0-4-0.7-9,1-9C33.8,51,33.1,56,33.1,60   L33.1,60z M21.9,11c0.7,1.1-1.1,2.1-1.7,1c-2-3.4-5.1-7.4-3.6-8.3C18.1,2.8,20,7.6,21.9,11L21.9,11z M45.5,12   c-0.7,1.1-2.4,0.1-1.7-1c2-3.4,3.9-8.2,5.4-7.3C50.6,4.5,47.5,8.5,45.5,12L45.5,12z M33.1,12c0,1.3-2,1.3-2,0c0-4-0.7-9,1-9   C33.8,3,33.1,8,33.1,12L33.1,12z M5.1,26.7C7.6,26.6,9.4,29,9.7,31H19c0.3-1.8,1.8-4.1,4-4.3c0-9-3-9.7-11-9.7   C5.6,17,5.1,22.6,5.1,26.7L5.1,26.7z M7.7,31c-0.3-1-1.3-2.4-2.6-2.3V31H7.7L7.7,31z M23.1,28.8C22,29,21.2,30.3,21,31h2.1V28.8   L23.1,28.8z M5.1,35.9C6.8,36,7.8,33.7,7.7,33H5.1V35.9L5.1,35.9z M9.7,33c0,2-1.8,5-4.6,4.9v4.4c2.7,0,4.4,2.8,4.5,4.8H19   c0-1.9,1.6-4.5,4.1-4.7v-4.4c-2.5-0.2-4.1-3-4.1-4.9H9.7L9.7,33z M21,33c-0.1,0.6,0.8,2.6,2.1,2.9V33H21L21,33z M23.1,44.3   c-1.3,0.3-2.1,2.1-2.1,2.7h2.1V44.3L23.1,44.3z M7.6,47c0-0.7-1-2.8-2.5-2.8V47H7.6L7.6,47z M58.3,21.1H24.6   c0.2,0.6,0.4,1.2,0.4,1.9l33.8,0C58.7,22.3,58.6,21.7,58.3,21.1L58.3,21.1z M23.6,19.1h33.3c-1.3-1.3-3-2.1-5-2.1H21.7L23.6,19.1   L23.6,19.1z M58.9,25l-33.8,0v2h33.8V25L58.9,25z M58.9,29H25.1v2h33.8V29L58.9,29z M41.8,34c-2.5,0-3.2,3.4-0.8,4.2   c0,3-0.6,6.8,0.8,6.8c1.4,0,0.8-3.9,0.8-6.8C44.9,37.2,44.3,34,41.8,34L41.8,34z M58.9,33H25.1v14h33.8V33z"/></g></svg>