<?xml version="1.0" ?><svg id="Layer_1" style="enable-background:new 0 0 64 64;" version="1.1" viewBox="0 0 64 64" xml:space="preserve" xmlns="http://www.w3.org/2000/svg" xmlns:xlink="http://www.w3.org/1999/xlink"><style type="text/css">
	.st0{fill-rule:evenodd;clip-rule:evenodd;fill:#389BDC;}
	.st1{fill-rule:evenodd;clip-rule:evenodd;fill:#FF9933;}
	.st2{fill-rule:evenodd;clip-rule:evenodd;fill:#FFFFCC;}
	.st3{fill-rule:evenodd;clip-rule:evenodd;fill:#EBD79F;}
	.st4{fill-rule:evenodd;clip-rule:evenodd;fill:#FF0000;}
	.st5{fill-rule:evenodd;clip-rule:evenodd;fill:#232E7A;}
	.st6{fill-rule:evenodd;clip-rule:evenodd;fill:#E6E6E6;}
	.st7{fill-rule:evenodd;clip-rule:evenodd;fill:#DE9800;}
	.st8{fill-rule:evenodd;clip-rule:evenodd;fill:#00FFFF;}
	.st9{fill-rule:evenodd;clip-rule:evenodd;fill:#FFCC00;}
	.st10{fill-rule:evenodd;clip-rule:evenodd;fill:#FF3399;}
	.st11{fill-rule:evenodd;clip-rule:evenodd;fill:#6666CC;}
	.st12{fill-rule:evenodd;clip-rule:evenodd;fill:#BA8E8E;}
</style><g><path class="st8" d="M17.3,30.8C17.4,30.8,17.4,30.8,17.3,30.8c0.5,0.5,0.9,1.1,0.7,1.8c-0.7,2.1-7.3,1.4-9,1.3   c-0.2,0-0.4-0.1-0.5-0.3c-0.1-0.2-0.1-0.4-0.1-0.6c0.2-0.6,0.2-1.3,0-1.9c-0.1-0.2-0.1-0.4,0.1-0.6c0.1-0.2,0.3-0.3,0.5-0.3   C10.8,30.3,16,29.7,17.3,30.8L17.3,30.8z M30.6,39.6L22.5,45c-0.2,0.1-0.5,0.1-0.7,0c-0.2-0.2-0.3-0.4-0.2-0.7l3.3-9.2   c0.1-0.2,0.3-0.4,0.5-0.4c0.2,0,0.5,0.1,0.6,0.3c0.9,1.7,2.5,3,4.5,3.5c0.2,0.1,0.4,0.2,0.5,0.5C30.9,39.3,30.8,39.5,30.6,39.6   L30.6,39.6z M37.9,31.2c-0.4-3.6-4-6-7.5-5c-8,2.1-4.2,13.4,3.1,11.5C36.3,37,38.2,34.1,37.9,31.2L37.9,31.2z M31.2,33   c-1.3-1,0.3-3,1.6-2C34,32,32.5,34,31.2,33L31.2,33z M33.5,47C33.5,47,33.6,47,33.5,47c1.2,1.2,0.6,6.5,0.6,8.2   c0,0.2-0.1,0.4-0.3,0.5c-0.2,0.1-0.4,0.1-0.6,0c-0.5-0.2-1-0.3-1.5-0.2c-0.1,0-0.3,0.1-0.4,0.1c-0.2,0.1-0.4,0-0.5-0.1   c-0.2-0.1-0.2-0.3-0.3-0.5c-0.1-1.3-0.1-2.7-0.1-4c0-1.2,0.1-4.2,1.5-4.7C32.5,46.2,33.1,46.5,33.5,47L33.5,47z M47.2,33.3   c-0.4-0.4-0.8-1-0.6-1.7c0.7-2,6.8-1.4,8.5-1.3c0.2,0,0.4,0.1,0.5,0.3c0.1,0.2,0.1,0.4,0.1,0.6c-0.2,0.6-0.2,1.3,0,1.9   c0.1,0.2,0.1,0.4-0.1,0.6c-0.1,0.2-0.3,0.3-0.5,0.3C53.4,33.9,48.4,34.5,47.2,33.3C47.2,33.4,47.2,33.3,47.2,33.3L47.2,33.3z    M31,17.1c-1.1-1.3-0.5-6.5-0.5-8.1c0-0.2,0.1-0.4,0.2-0.5c0.2-0.1,0.3-0.1,0.5-0.1c0.6,0.2,1.3,0.1,1.9-0.2c0.2-0.1,0.4-0.1,0.6,0   c0.2,0.1,0.3,0.3,0.3,0.5c0.1,1.5,0.2,2.8,0.1,4.3c0,1.2-0.1,4.3-1.5,4.8C32.1,18.1,31.5,17.7,31,17.1C31,17.2,31,17.2,31,17.1z"/><path class="st2" d="M30.3,37.7V37c0.1,0,0.3,0,0.4,0c2.6,0,4.7-2.3,4.7-5.1s-2.1-5.1-4.7-5.1c-0.1,0-0.3,0-0.4,0v-0.6   c0,0,0.1,0,0.1,0c3.5-0.9,7,1.5,7.5,5c0.3,2.9-1.6,5.7-4.4,6.5C32.3,38,31.3,38,30.3,37.7z"/><path class="st2" d="M30.6,9.4c-11.5,1-20.2,9.5-21.2,21.1c0,0.3-0.2,0.5-0.5,0.5c-0.3,0.1-0.5,0-0.6-0.3c-0.7-1.1-1.9-1.2-3.2-1.2   c-0.2,0-0.3-0.1-0.4-0.2c-0.1-0.1-0.2-0.3-0.1-0.5C6,16.1,16.1,6,28.8,4.5c0.2,0,0.3,0,0.5,0.1c0.1,0.1,0.2,0.3,0.2,0.4   c0,1.2,0.2,2.5,1.4,3.1c0.3,0.1,0.4,0.5,0.3,0.8C31,9.2,30.9,9.4,30.6,9.4L30.6,9.4z M31.1,55c0.1,0.3,0,0.6-0.3,0.8   c-1,0.6-1.5,1.9-1.6,3.1c0,0.2-0.1,0.3-0.2,0.4c-0.1,0.1-0.3,0.1-0.4,0.1c-12.6-1.5-22.5-11.4-24.1-24c0-0.2,0-0.3,0.1-0.5   c0.1-0.1,0.3-0.2,0.4-0.2c1.2,0,2.4-0.1,3.1-1.2c0.2-0.3,0.5-0.3,0.8-0.2c0.2,0.1,0.3,0.3,0.3,0.5c1.2,11.5,9.8,19.6,21.2,20.8   C30.9,54.6,31.1,54.8,31.1,55L31.1,55z M55.1,33.3C55.1,33.3,55.1,33.3,55.1,33.3c0.3-0.1,0.6,0,0.8,0.2c0.6,1,1.8,1.2,2.9,1.2   c0.2,0,0.3,0.1,0.4,0.2c0.1,0.1,0.2,0.3,0.1,0.5c-1.5,12.5-11.5,22.5-24,24c-0.2,0-0.4,0-0.5-0.2c-0.1-0.1-0.2-0.3-0.2-0.5   c0.1-0.9-0.3-2.2-1-2.8c-0.2-0.2-0.3-0.5-0.1-0.8c0.1-0.2,0.2-0.4,0.4-0.4c1.9-0.4,3.9-0.8,5.7-1.4c3.4-1.1,5.9-3,8.3-5.5   c3.8-3.8,5.8-8.7,6.5-14.1C54.5,33.5,54.8,33.3,55.1,33.3L55.1,33.3z M33.6,8c0.9-0.7,1-1.8,1-2.8c0-0.2,0.1-0.3,0.2-0.4   c0.1-0.1,0.3-0.2,0.5-0.1C48,6.1,58,16.2,59.4,28.9c0,0.2,0,0.3-0.1,0.5c-0.1,0.1-0.3,0.2-0.4,0.2c-1.1,0-2.3,0.2-3,1.2   c-0.2,0.3-0.5,0.4-0.8,0.2c-0.3,0-0.5-0.2-0.5-0.5C53.3,19,45.3,11,34,9.4c-0.3,0-0.5-0.3-0.5-0.6c0,0,0,0,0-0.1   C33.3,8.5,33.4,8.2,33.6,8L33.6,8z M8.4,21.7c-0.3,0.6-1.2,3-0.8,3.4c0.1,0,0.5-0.2,0.6-0.3c0.1-0.5,0.8-2.6,0.7-3.4   C8.7,21.5,8.5,21.6,8.4,21.7L8.4,21.7z M17.1,12.1c0.4-0.3-0.1-0.9-0.5-0.6c-1.6,1.2-4,3.2-5,4.9c-0.1,0.1-0.5,1.1-0.3,1.3   c0.2,0.1,0.4-0.1,0.5-0.2C13.3,15.4,15.1,13.6,17.1,12.1L17.1,12.1z M21.3,8.6l-1,0.5l0.4,0.7l1-0.5L21.3,8.6L21.3,8.6z M22.3,54.9   c-3.8-1.6-7.2-4.2-9.8-7.5c-0.1-0.1-0.2-0.1-0.2-0.1c-0.1,0-0.2,0-0.3,0c-0.2,0.1,0.2,0.9,0.3,1c0.9,1.5,2.9,3.1,4.2,4.1   c1.3,1,3.4,2.5,5.1,3c0.1,0,1,0.2,1.1,0C22.6,55.3,22.5,55,22.3,54.9L22.3,54.9z M7.6,39.1c-0.1,0.2-0.1,0.4-0.1,0.6   c0.2,0.6,0.9,2.6,1.4,2.7c0.1-0.1,0.3-0.5,0.2-0.6C8.9,41.3,8.1,39.5,7.6,39.1z"/><path class="st0" d="M30.6,9.4c-11.5,1-20.2,9.5-21.2,21.1c0,0.3-0.2,0.5-0.5,0.5c-0.3,0.1-0.5,0-0.6-0.3c-0.7-1.1-1.9-1.2-3.2-1.2   c-0.2,0-0.3-0.1-0.4-0.2c-0.1-0.1-0.2-0.3-0.1-0.5C6,16.1,16.1,6,28.8,4.5c0.2,0,0.3,0,0.5,0.1c0.1,0.1,0.2,0.3,0.2,0.4   c0,1.2,0.2,2.5,1.4,3.1c0.3,0.1,0.4,0.5,0.3,0.8C31,9.2,30.9,9.4,30.6,9.4L30.6,9.4z M46.8,8.7c5.6,5.1,9.4,12.7,10.1,21.1   c-0.4,0.2-0.8,0.5-1,0.9c-0.2,0.3-0.5,0.4-0.8,0.2c-0.3,0-0.5-0.2-0.5-0.5C53.3,19,45.3,11,34,9.4c-0.3,0-0.5-0.3-0.5-0.6   c0,0,0,0,0-0.1c-0.2-0.3-0.1-0.6,0.1-0.8c0.9-0.7,1-1.8,1-2.8c0-0.2,0.1-0.3,0.2-0.4c0.1-0.1,0.3-0.2,0.5-0.1   C39.5,5.1,43.4,6.5,46.8,8.7L46.8,8.7z M56.9,34.4c-0.4,7-2.9,13.3-6.7,18.3c-4.1,3.6-9.2,6-14.9,6.7c-0.2,0-0.4,0-0.5-0.2   c-0.1-0.1-0.2-0.3-0.2-0.5c0.1-0.9-0.3-2.2-1-2.8c-0.2-0.2-0.3-0.5-0.1-0.8c0.1-0.2,0.2-0.4,0.4-0.4c1.9-0.4,3.9-0.8,5.7-1.4   c3.4-1.1,5.9-3,8.3-5.5c3.8-3.8,5.8-8.7,6.5-14.1c0-0.3,0.3-0.5,0.6-0.5c0,0,0,0,0,0c0.3-0.1,0.6,0,0.8,0.2   C56.1,34,56.5,34.2,56.9,34.4L56.9,34.4z M31.1,55c0.1,0.3,0,0.6-0.3,0.8c-1,0.6-1.5,1.9-1.6,3.1c0,0.2-0.1,0.3-0.2,0.4   c-0.1,0.1-0.3,0.1-0.4,0.1c-12.6-1.5-22.5-11.4-24.1-24c0-0.2,0-0.3,0.1-0.5c0.1-0.1,0.3-0.2,0.4-0.2c1.2,0,2.4-0.1,3.1-1.2   c0.2-0.3,0.5-0.3,0.8-0.2c0.2,0.1,0.3,0.3,0.3,0.5c1.2,11.5,9.8,19.6,21.2,20.8C30.9,54.6,31.1,54.8,31.1,55L31.1,55z M8.4,21.7   c-0.3,0.6-1.2,3-0.8,3.4c0.1,0,0.5-0.2,0.6-0.3c0.1-0.5,0.8-2.6,0.7-3.4C8.7,21.5,8.5,21.6,8.4,21.7L8.4,21.7z M17.1,12.1   c0.4-0.3-0.1-0.9-0.5-0.6c-1.6,1.2-4,3.2-5,4.9c-0.1,0.1-0.5,1.1-0.3,1.3c0.2,0.1,0.4-0.1,0.5-0.2C13.3,15.4,15.1,13.6,17.1,12.1   L17.1,12.1z M21.3,8.6l-1,0.5l0.4,0.7l1-0.5L21.3,8.6L21.3,8.6z M22.3,54.9c-3.8-1.6-7.2-4.2-9.8-7.5c-0.1-0.1-0.2-0.1-0.2-0.1   c-0.1,0-0.2,0-0.3,0c-0.2,0.1,0.2,0.9,0.3,1c0.9,1.5,2.9,3.1,4.2,4.1c1.3,1,3.4,2.5,5.1,3c0.1,0,1,0.2,1.1,0   C22.6,55.3,22.5,55,22.3,54.9L22.3,54.9z M7.6,39.1c-0.1,0.2-0.1,0.4-0.1,0.6c0.2,0.6,0.9,2.6,1.4,2.7c0.1-0.1,0.3-0.5,0.2-0.6   C8.9,41.3,8.1,39.5,7.6,39.1z"/><path class="st9" d="M4.6,33.3v-2.4c0-0.3,0.3-0.6,0.6-0.6c3.6,0,3.6,3.6,0,3.6C4.8,33.9,4.6,33.6,4.6,33.3L4.6,33.3z M30.9,4.4   l2.3,0c0.3,0,0.6,0.3,0.6,0.6c0,3.7-3.5,3.6-3.5,0c0-0.2,0.1-0.3,0.2-0.4C30.6,4.4,30.7,4.4,30.9,4.4L30.9,4.4z M59.5,30.9l0,2.4   c0,0.3-0.3,0.6-0.6,0.6c-3.6,0-3.6-3.6,0-3.6c0.2,0,0.3,0.1,0.4,0.2C59.5,30.6,59.5,30.8,59.5,30.9L59.5,30.9z M33.2,59.5l-2.3,0   c-0.2,0-0.3-0.1-0.4-0.2c-0.1-0.1-0.2-0.3-0.2-0.4c0-3.1,3.5-3.1,3.5,0C33.8,59.3,33.6,59.5,33.2,59.5L33.2,59.5z M29.7,10.9   c0,2.3-1,7.6,2.6,7.6c3.5,0,2.6-5.2,2.6-7.5c0-0.2,0.1-0.3,0.2-0.5c0.1-0.1,0.3-0.2,0.5-0.1c4.6,0.8,8.7,3,12,6.3   c3.2,3.3,5.3,7.5,6,12.1c0,0.2,0,0.3-0.1,0.5c-0.1,0.1-0.3,0.2-0.5,0.2c-2.2,0-7.1-0.9-7.1,2.6c0,3.4,4.8,2.6,7,2.6   c0.2,0,0.3,0.1,0.5,0.2c0.1,0.1,0.2,0.3,0.1,0.5c-1.5,9.2-8.7,16.5-17.9,18.1c-0.2,0-0.3,0-0.5-0.1c-0.1-0.1-0.2-0.3-0.2-0.5   c0-2.2,0.9-7.2-2.6-7.2c-3.5,0-2.6,5.1-2.6,7.3c0,0.2-0.1,0.3-0.2,0.5c-0.1,0.1-0.3,0.2-0.5,0.1c-9.5-1.3-17.2-8.7-18.7-18.2   c0-0.2,0-0.3,0.1-0.5c0.1-0.1,0.3-0.2,0.5-0.2c2.3,0,7.7,1,7.7-2.6c0-3.6-5.5-2.6-7.8-2.6c-0.2,0-0.3-0.1-0.5-0.2   c-0.1-0.1-0.2-0.3-0.1-0.5c1.4-9.6,9-17.2,18.7-18.5c0.2,0,0.3,0,0.5,0.1C29.7,10.6,29.7,10.8,29.7,10.9L29.7,10.9z M20.6,44.8   c-0.1,0.3-0.7,1.9-0.4,2.2c0.3,0.2,2.1-0.7,2.4-0.9c1.6-0.9,3.2-2.1,4.8-3.2c1.2-0.9,2.4-1.7,3.6-2.6c0.9-0.6,1.9-1.3,2.9-1.8   c2.7-1.2,4.8-3.1,4.9-6.2c0-0.1,0-0.1,0-0.2l4-11.1c0.2-0.7,1.3-3.6,0.9-4.1c-0.4-0.1-1.8,0.8-2.1,1c-3.5,2.4-7.1,4.7-10.8,6.9   c-1.3,0.8-3.2,1.8-4.1,3c-0.9,1.2-1.5,3.3-2,4.7C23.4,36.7,22.1,40.7,20.6,44.8L20.6,44.8z M16.8,42.3c-0.5,0.7,0.6,1.5,1.1,0.8   C18.4,42.4,17.3,41.6,16.8,42.3L16.8,42.3z M25.4,49.2c0,0.9,1.4,0.9,1.4,0C26.8,48.3,25.4,48.3,25.4,49.2L25.4,49.2z M47.5,22.3   c0.5-0.7-0.6-1.5-1.1-0.8C45.9,22.1,47,22.9,47.5,22.3L47.5,22.3z M21.9,16.9c-0.7-0.5-1.5,0.6-0.8,1.1   C21.8,18.5,22.6,17.4,21.9,16.9L21.9,16.9z M14.4,37.2c-0.7,0.5,0.1,1.6,0.8,1.1C16,37.8,15.1,36.7,14.4,37.2L14.4,37.2z    M37.3,49.7c0.5,0.7,1.6-0.2,1.1-0.8C37.9,48.2,36.8,49,37.3,49.7L37.3,49.7z M42.4,47.3c0.7,0.5,1.5-0.6,0.8-1.1   C42.4,45.7,41.7,46.8,42.4,47.3L42.4,47.3z M46.5,43.5c0.8,0.3,1.2-1,0.4-1.3C46,41.9,45.6,43.2,46.5,43.5L46.5,43.5z M49.2,38.6   c0.9,0,0.9-1.4,0-1.4C48.3,37.3,48.3,38.6,49.2,38.6L49.2,38.6z M49.8,27.4c0.7-0.5-0.1-1.6-0.8-1.1C48.3,26.8,49.1,27.9,49.8,27.4   L49.8,27.4z M39,15.2c0-0.9-1.3-0.9-1.4,0C37.7,16,39,16,39,15.2L39,15.2z M26.9,14.5c-0.5-0.7-1.6,0.1-1.1,0.8   C26.4,16,27.5,15.2,26.9,14.5L26.9,14.5z M17.8,20.6c-0.8-0.3-1.2,1-0.4,1.3C18.2,22.2,18.6,20.9,17.8,20.6L17.8,20.6z M15,25.5   c-0.9,0-0.9,1.4,0,1.4S15.8,25.5,15,25.5z"/><path class="st10" d="M27.6,53.4c0.7-0.1,1.4-0.2,2.1-0.3c0,0.2-0.1,0.3-0.2,0.4c-0.1,0.1-0.3,0.2-0.5,0.1   C28.6,53.5,28.1,53.5,27.6,53.4L27.6,53.4z M35,50.8c0.8-0.5,1.5-1.1,2.2-1.7c-0.1,0.2,0,0.4,0.1,0.6c0.5,0.7,1.6-0.2,1.1-0.8   c-0.2-0.2-0.4-0.3-0.6-0.2c4-3.8,6.6-9.6,6.6-16c0-3.6-0.8-7-2.2-10l0.6-1.6c0.2-0.7,1.3-3.6,0.9-4.1c-0.4-0.1-1.8,0.8-2.1,1   C41,18.2,40.5,18.6,40,19c-1.4-1.8-3.1-3.4-4.9-4.6c0-1.2-0.1-2.5-0.1-3.3c0-0.2,0.1-0.3,0.2-0.5c0.1-0.1,0.3-0.2,0.5-0.1   c4.6,0.8,8.7,3,12,6.3c3.2,3.3,5.3,7.5,6,12.1c0,0.2,0,0.3-0.1,0.5c-0.1,0.1-0.3,0.2-0.5,0.2c-2.2,0-7.1-0.9-7.1,2.6   c0,3.4,4.8,2.6,7,2.6c0.2,0,0.3,0.1,0.5,0.2c0.1,0.1,0.2,0.3,0.1,0.5c-1.5,9.2-8.7,16.5-17.9,18.1c-0.2,0-0.3,0-0.5-0.1   c-0.1-0.1-0.2-0.3-0.2-0.5C34.9,52.3,35,51.6,35,50.8L35,50.8z M29.7,12.1c-1.2-0.3-2.4-0.4-3.6-0.4c-0.9,0-1.9,0.1-2.8,0.2   c1.8-0.8,3.7-1.3,5.8-1.6c0.2,0,0.3,0,0.5,0.1c0.1,0.1,0.2,0.3,0.2,0.5C29.7,11.3,29.7,11.7,29.7,12.1L29.7,12.1z M47.5,22.3   c0.5-0.7-0.6-1.5-1.1-0.8C45.9,22.1,47,22.9,47.5,22.3L47.5,22.3z M42.4,47.3c0.7,0.5,1.5-0.6,0.8-1.1   C42.4,45.7,41.7,46.8,42.4,47.3L42.4,47.3z M46.5,43.5c0.8,0.3,1.2-1,0.4-1.3C46,41.9,45.6,43.2,46.5,43.5L46.5,43.5z M49.2,38.6   c0.9,0,0.9-1.4,0-1.4C48.3,37.3,48.3,38.6,49.2,38.6L49.2,38.6z M49.8,27.4c0.7-0.5-0.1-1.6-0.8-1.1C48.3,26.8,49.1,27.9,49.8,27.4   L49.8,27.4z M39,15.2c0-0.9-1.3-0.9-1.4,0C37.7,16,39,16,39,15.2z"/><path class="st5" d="M34.3,3.1C49.3,4.3,61,16.9,61,32c0,25.3-31,39-49.5,20.5C-5.4,35.7,3.5,3,33.8,3C34,3,34.2,3,34.3,3.1   L34.3,3.1z M28.7,58.8c0.1-0.9,0.4-2.9,2-3.6C19,54,10.1,45.8,8.8,33.8c-0.8,1.3-2.2,1.5-3.6,1.5C6.7,47.6,16.4,57.3,28.7,58.8   L28.7,58.8z M31.1,55c0.2,0,0.3-0.1,0.5-0.1c0.8-0.1,1.4,0,1.9,0.3c0.1-1.8,0.5-6.9-0.3-7.7h0C30.4,44.7,31,53.6,31.1,55L31.1,55z    M33.8,55.4c1.2,0.9,1.5,2.6,1.4,3.4c12.3-1.5,22-11.2,23.5-23.5c-1.5,0-2.9-0.3-3.6-1.8c-0.6,5.7-2.8,10.9-6.7,14.8   C42.7,54.1,39.5,54,33.8,55.4L33.8,55.4z M22.6,54.4c-3.8-1.6-7.1-4.1-9.6-7.3c-0.9-1.1-4.6-0.1,3.1,5.8   C23.8,58.8,23.8,54.9,22.6,54.4L22.6,54.4z M9.6,41.5c-2.4-5.7-2.8-1.9-2.8-1.8C8.5,45,10,42.3,9.6,41.5L9.6,41.5z M8.7,25   c2-6.6-0.8-3.6-0.8-3.6C5.4,27.1,8.5,25.8,8.7,25L8.7,25z M12.3,17.8c1.4-2,3.2-3.8,5.1-5.2c1-0.8-0.2-2.4-1.2-1.6   C7.6,17.4,11.2,19.2,12.3,17.8L12.3,17.8z M19.4,8.9l1,1.8l2-1l-0.8-1.8L19.4,8.9L19.4,8.9z M33.1,30.5c-1.9-1.5-4.2,1.5-2.3,2.9   C32.7,34.9,35,32,33.1,30.5L33.1,30.5z M14.1,36.7c-1.3,1,0.2,3,1.6,2C16.9,37.8,15.4,35.7,14.1,36.7L14.1,36.7z M16.3,41.9   c-1,1.4,1.1,2.8,2.1,1.5C19.3,42.1,17.3,40.6,16.3,41.9L16.3,41.9z M24.8,49.2c0,1.7,2.6,1.7,2.6,0C27.4,47.5,24.8,47.5,24.8,49.2   L24.8,49.2z M36.8,50c1,1.3,3-0.3,2-1.6C37.9,47.2,35.8,48.7,36.8,50L36.8,50z M42,47.8c1.4,0.9,2.8-1.2,1.5-2.1   C42.1,44.7,40.7,46.8,42,47.8L42,47.8z M46.3,44c1.6,0.5,2.3-2,0.8-2.4C45.5,41.1,44.7,43.6,46.3,44L46.3,44z M49.2,39.2   c1.7,0,1.6-2.6,0-2.6C47.5,36.7,47.6,39.2,49.2,39.2L49.2,39.2z M50.1,27.8c1.3-1-0.2-3-1.5-2.1C47.3,26.8,48.8,28.8,50.1,27.8   L50.1,27.8z M48,22.6c1-1.3-1.1-2.8-2.1-1.5C45,22.4,47,23.9,48,22.6L48,22.6z M39.6,15.2c0-1.7-2.5-1.7-2.6-0.1   C37.1,16.8,39.6,16.8,39.6,15.2L39.6,15.2z M27.4,14.1c-1-1.3-3,0.2-2,1.6C26.4,17,28.4,15.5,27.4,14.1L27.4,14.1z M22.2,16.4   c-1.4-0.9-2.8,1.1-1.5,2.1C22.1,19.4,23.6,17.3,22.2,16.4L22.2,16.4z M17.9,20.1c-1.6-0.5-2.3,1.9-0.8,2.4   C18.7,23,19.5,20.6,17.9,20.1L17.9,20.1z M15,24.9c-1.7,0-1.7,2.6,0,2.6S16.6,24.9,15,24.9L15,24.9z M39.3,32.3l4-11.1   c1-2.9,2.4-6.8-2.1-3.8C20.7,31.6,28.9,21.1,20,44.5C16.8,53,29.7,41,34,39C36.9,37.7,39.2,35.7,39.3,32.3L39.3,32.3z M30.3,39.1   c-2.1-0.5-3.9-1.9-4.8-3.8l-3.3,9.2L30.3,39.1L30.3,39.1z M37.3,31.3c-0.4-3.2-3.5-5.4-6.7-4.5v0c-7.2,1.9-3.7,12.1,2.8,10.4   C35.9,36.5,37.6,33.9,37.3,31.3L37.3,31.3z M33.2,58.9c0-2.3-2.3-2.3-2.3,0L33.2,58.9L33.2,58.9z M55.1,33.3   c-0.3-0.7-0.3-1.6,0-2.4c-0.4,0-10.3-0.9-7.4,2v0C48.5,33.8,53.7,33.3,55.1,33.3L55.1,33.3z M55.2,30.7c0.7-1.5,2.1-1.8,3.6-1.8   C57.4,16.5,47.6,6.7,35.2,5.2c0,1.5-0.3,2.9-1.7,3.6C45.5,10.1,54.1,18.6,55.2,30.7L55.2,30.7z M58.9,30.9c-2.8,0-2.8,2.4,0,2.4   L58.9,30.9L58.9,30.9z M5.2,30.9v2.4C8,33.3,8,30.9,5.2,30.9L5.2,30.9z M5.1,28.9c1.5,0,2.8,0.1,3.7,1.5   c1.1-11.8,10-20.6,21.8-21.6c-1.4-0.7-1.7-2.1-1.7-3.6C16.4,6.5,6.5,16.5,5.1,28.9L5.1,28.9z M9.1,30.9c0.3,0.7,0.3,1.6,0,2.4   c0.3,0,10.9,1,7.9-2h0C16.1,30.4,10.5,30.9,9.1,30.9L9.1,30.9z M33.5,8.8c-0.7,0.4-1.6,0.5-2.4,0.2c0,1.4-0.6,6.9,0.3,7.8v0   C34.5,19.8,33.5,9.1,33.5,8.8L33.5,8.8z M30.9,5c0,2.9,2.3,2.9,2.3,0L30.9,5L30.9,5z M47.1,17.1C44.1,14,40,11.8,35.5,11   c0,2.6,1,8.1-3.2,8.1c-4.2,0-3.2-5.6-3.2-8.2c-9.4,1.2-16.8,8.6-18.2,18c2.7,0,8.4-1,8.4,3.2c0,4.2-5.7,3.2-8.3,3.2   c1.5,9.2,8.9,16.5,18.1,17.7c0-2.6-0.9-7.9,3.2-7.9c4.1,0,3.2,5.2,3.2,7.8c9-1.5,16-8.6,17.4-17.6c-2.6,0-7.6,0.8-7.6-3.2   c0-4,5.1-3.2,7.7-3.2C52.3,24.4,50.2,20.3,47.1,17.1z"/></g></svg>