<?xml version="1.0" ?><svg id="Layer_1" style="enable-background:new 0 0 64 64;" version="1.1" viewBox="0 0 64 64" xml:space="preserve" xmlns="http://www.w3.org/2000/svg" xmlns:xlink="http://www.w3.org/1999/xlink"><style type="text/css">
	.st0{fill-rule:evenodd;clip-rule:evenodd;fill:#389BDC;}
	.st1{fill-rule:evenodd;clip-rule:evenodd;fill:#FF9933;}
	.st2{fill-rule:evenodd;clip-rule:evenodd;fill:#FFFFCC;}
	.st3{fill-rule:evenodd;clip-rule:evenodd;fill:#EBD79F;}
	.st4{fill-rule:evenodd;clip-rule:evenodd;fill:#FF0000;}
	.st5{fill-rule:evenodd;clip-rule:evenodd;fill:#232E7A;}
	.st6{fill-rule:evenodd;clip-rule:evenodd;fill:#E6E6E6;}
	.st7{fill-rule:evenodd;clip-rule:evenodd;fill:#DE9800;}
	.st8{fill-rule:evenodd;clip-rule:evenodd;fill:#00FFFF;}
	.st9{fill-rule:evenodd;clip-rule:evenodd;fill:#FFCC00;}
	.st10{fill-rule:evenodd;clip-rule:evenodd;fill:#FF3399;}
	.st11{fill-rule:evenodd;clip-rule:evenodd;fill:#6666CC;}
	.st12{fill-rule:evenodd;clip-rule:evenodd;fill:#BA8E8E;}
</style><g><path class="st2" d="M26.9,41c0.1-0.1,0.3-0.2,0.5-0.2c1.8-0.2,3.5,5,4.4,6.4c0.1,0.2,0.1,0.4,0.1,0.6c-0.1,0.2-0.3,0.3-0.5,0.4   c-1.4,0.2-2.5,1.1-3.3,2.3c-0.1,0.2-0.3,0.3-0.5,0.3c-0.2,0-0.4-0.1-0.5-0.3c-1.5-2.3-2.6-4.8-3.4-7.4c-0.1-0.2,0-0.4,0.1-0.5   C24.7,41.3,25.6,41,26.9,41L26.9,41z M33.9,8.1c0.5,1.3,1.7,2.8,2.5,4c0.1,0.1,0.1,0.3,0.1,0.5c0,0.2-0.1,0.3-0.3,0.4   c-0.5,0.3-0.9,0.6-1.3,0.9c-0.2,0.2-0.5,0.2-0.8,0c-1.3-1.1-2.3-2.5-2.9-4.1c-0.1-0.2,0-0.5,0.2-0.7c0.5-0.4,1-0.8,1.6-1.2   c0.2-0.1,0.3-0.1,0.5-0.1C33.7,7.8,33.9,7.9,33.9,8.1L33.9,8.1z M58.7,39.2c0.2-0.1,0.3-0.2,0.4-0.4c0.3-1.8,0.5-3.6,0.5-5.5   c0.1-5.9-1.2-12.2-4-17.5c-2.3-4.5-6-8.7-11-10.1c-3.3-0.9-6.6-0.4-9.7,1.1c-0.3,0.1-0.4,0.5-0.3,0.7c0.5,1.3,1.9,3.2,2.8,4.4   c0.2,0.2,0.4,0.3,0.7,0.2c2-0.7,4.1-0.8,6.1-0.1c6.1,2.2,8.9,10.8,9.7,16.6c0.4,3.1,0.4,6.4-0.3,9.5c0,0.2,0.1,0.5,0.3,0.6   C55.3,39.8,57.1,39.9,58.7,39.2L58.7,39.2z M54,39.8c1.2,0.6,2.6,0.8,3.9,0.5c0.2,0,0.4,0,0.6,0.2c0.1,0.2,0.2,0.4,0.2,0.6   c-1.3,5.3-3.7,10.2-7.8,13.9c-0.2,0.2-0.5,0.2-0.7,0.1c-1.7-0.9-3.3-2.6-2.8-4.7c0-0.1,0-0.1,0.1-0.2c0.6-1.1,1.8-2,2.6-3.1   c1.6-2,2.5-4.5,3.2-6.9c0-0.2,0.2-0.3,0.3-0.4C53.6,39.7,53.8,39.7,54,39.8L54,39.8z M49,56.3c0.2-0.1,0.3-0.3,0.3-0.5   c0-0.2-0.1-0.4-0.3-0.5c-1.3-0.8-2.3-2-2.6-3.5c0-0.2-0.2-0.4-0.3-0.4c-0.2-0.1-0.4-0.1-0.6,0c-1.6,0.9-3,1.2-4.8,1.1   c-1.2,0-2.7-0.3-3.8,0.1c-1.6,0.7-2.1,2.8-2.3,4.3c0,0.3,0.1,0.5,0.3,0.6C39.6,59.8,44.8,59.2,49,56.3L49,56.3z M36.2,52.4   c0.2-0.1,0.3-0.3,0.3-0.5c0-0.2-0.1-0.4-0.3-0.5c-1.4-0.8-2.6-2.5-4.4-2.6c-1.7-0.1-2.7,1.5-3.4,2.8c-0.1,0.2-0.1,0.4,0.1,0.6   c1.3,1.6,2.8,3.1,4.5,4.2c0.2,0.1,0.4,0.1,0.6,0c0.2-0.1,0.3-0.3,0.3-0.5C34.1,54.5,34.9,53.3,36.2,52.4z"/><path class="st10" d="M26.9,41c0.1-0.1,0.3-0.2,0.5-0.2c1.8-0.2,3.5,5,4.4,6.4c0.1,0.2,0.1,0.4,0.1,0.6c-0.1,0.2-0.3,0.3-0.5,0.4   c-1.4,0.2-2.5,1.1-3.3,2.3c-0.1,0.2-0.3,0.3-0.5,0.3c-0.2,0-0.4-0.1-0.5-0.3c-1.5-2.3-2.6-4.8-3.4-7.4c-0.1-0.2,0-0.4,0.1-0.5   C24.7,41.3,25.6,41,26.9,41L26.9,41z M39.3,6.6c10.2,0,18.5,11.7,18.5,26.2c0,2.4-0.2,4.6-0.6,6.8c-1.1,0.1-2.2-0.1-3.2-0.8   c-0.2-0.1-0.3-0.4-0.3-0.6c0.6-3.1,0.6-6.4,0.3-9.5c-0.7-5.8-3.6-14.4-9.7-16.6c-2-0.7-4.1-0.6-6.1,0.1c-0.2,0.1-0.5,0-0.7-0.2   c-0.9-1.2-2.3-3.1-2.8-4.4l0,0C36,6.9,37.6,6.6,39.3,6.6L39.3,6.6z M56.9,40.4c-1,0.1-2-0.2-2.9-0.6c-0.2-0.1-0.3-0.1-0.5,0   c-0.2,0.1-0.3,0.2-0.3,0.4c-0.7,2.4-1.6,4.9-3.2,6.9c-0.8,1-2,2-2.6,3.1c0,0.1-0.1,0.1-0.1,0.2c-0.4,1.8,0.7,3.3,2.1,4.3   C53,51.3,55.6,46.3,56.9,40.4L56.9,40.4z M48.8,55.2c-2.6,2.2-5.7,3.6-8.9,3.7c-1.7-0.1-3.3-0.5-4.9-1.3c-0.2-0.1-0.4-0.4-0.3-0.6   c0.2-1.5,0.7-3.6,2.3-4.3c1.1-0.5,2.6-0.2,3.8-0.1c1.8,0.1,3.2-0.2,4.8-1.1c0.2-0.1,0.4-0.1,0.6,0c0.2,0.1,0.3,0.2,0.3,0.4   C46.7,53.3,47.6,54.4,48.8,55.2L48.8,55.2z M31.3,9.2c-0.1,0.1-0.1,0.3,0,0.5c0.6,1.6,1.6,3,2.9,4.1c0.2,0.2,0.5,0.2,0.8,0   c0.4-0.3,0.9-0.6,1.3-0.9c0.2-0.1,0.3-0.2,0.3-0.4c0-0.2,0-0.3-0.1-0.5c-0.9-1.1-2-2.6-2.5-4c0-0.1-0.1-0.2-0.2-0.3   C32.9,8.2,32.1,8.6,31.3,9.2L31.3,9.2z M36.2,52.4c0.2-0.1,0.3-0.3,0.3-0.5c0-0.2-0.1-0.4-0.3-0.5c-1.4-0.8-2.6-2.5-4.4-2.6   c-1.7-0.1-2.7,1.5-3.4,2.8c-0.1,0.2-0.1,0.4,0.1,0.6c1.3,1.6,2.8,3.1,4.5,4.2c0.2,0.1,0.4,0.1,0.6,0c0.2-0.1,0.3-0.3,0.3-0.5   C34.1,54.5,34.9,53.3,36.2,52.4z"/><path class="st0" d="M25.4,40.2C25.4,40.2,25.4,40.2,25.4,40.2c-0.4,0-0.7,0-1,0.1c-0.6,0.3-1.3,1.6-1.6,2.1   c-3.2,5.9-10.9,7.2-15.4,2c-4.2-4.9-2.9-13.1-2.9-19c0-1.6,1.1-3.3,2.8-3.3H46c0.4,0,0.7,0.1,1,0.3c2.2,1.1,2,6,2,8.1   c0,1.9-0.2,3.8-0.2,5.7c0,10.8-12.8,16.3-18.3,6.1C29.1,39.7,28.1,40.2,25.4,40.2L25.4,40.2z M43.1,26.9H10.3v8.7   c0,4.4,4.8,8.4,8.8,5.3c0.8-0.7,1.7-1.5,2-2.5c0.2-0.6,0.3-1.3,0.6-1.8c0.4-0.7,1.3-1,2.1-1.1c1.6-0.3,3.6-0.3,5.3-0.3   c4.2,0,3,6.8,8.5,6.8C44.6,42,43.3,31.8,43.1,26.9L43.1,26.9z M12.7,43.6c-2.1-1.1-4.4-3-4.7-5.5c0,0,0,0,0-0.1L7.8,25.8   c0-0.5-0.8-0.5-0.8,0l0.2,12.4c0.1,0.6,0.4,1.5,0.7,2c0.6,1.2,1.4,2.3,2.5,2.9c0.7,0.5,1.9,1.1,2.8,1.2c0.1,0,0.5,0,0.5-0.1   c0.1-0.2-0.2-0.7-0.5-0.6C13,43.7,12.8,43.7,12.7,43.6L12.7,43.6z M38.2,44.2c0,0.1-0.1,0.3,0,0.3c0.2,0.3,1.5-0.1,1.8-0.1   c1.2-0.4,2.5-1.1,3.4-2c1.1-1,2.1-2.3,2.2-3.8c0-0.5-0.8-0.6-0.8-0.1c0,1-0.4,1.9-1,2.6c-0.4,0.5-1,0.9-1.5,1.3   c-0.8,0.5-1.7,0.9-2.6,1.2C39.3,43.7,38.4,44,38.2,44.2z"/><path class="st2" d="M46.2,22.1c0.3,0,0.6,0.1,0.9,0.2c2.2,1.1,2,6,2,8.1c0,1.9-0.2,3.8-0.2,5.7c0,9.2-9.3,14.6-15.5,9.6   c2.9,0.1,7.2-0.4,10.6-4l0.1-0.1l0,0l0,0c0.4-0.4,0.7-0.9,1-1.4C47.7,35.6,47,27.2,46.2,22.1z"/><path class="st8" d="M42.3,35.6c0,5.8-7.3,7.8-9.3,2c-1.3-3.9-5.4-3.2-8.6-3.2c-4.6,0-3.5,6.8-8.5,6.8c-1.1,0-2.1-0.3-2.9-1   c-2.8-2.5-1.9-8.5-1.9-11.9c0-0.3,0.3-0.6,0.6-0.6h30.1c0.3,0,0.6,0.3,0.6,0.6V35.6z"/><path class="st5" d="M7.4,20.7H46c2.5,0,4.2,2.3,4.2,4.7c0,6.5,1.2,14.7-3.3,19.9c-3.1,3.6-8.3,4.9-12.6,2.8   c11.9,12.8,24.9-13.8,14.8-29.6c-3.5-5.5-9.3-7.2-13.9-3.1c-1.7,1.5-6.9-5.5-5.2-7c14.6-13.1,31,3.8,31,23.8   c0,30.1-28.8,38.6-38.1,12.7c-7.2,9.2-19.7,2.4-19.7-8.6C3.2,31.2,1.5,20.7,7.4,20.7L7.4,20.7z M44.2,38.5   c-0.2,4.1-6.3,4.6-6.6,5.4c-1.1,3.3,8.2-0.2,8.6-5.3C46.2,37.3,44.3,37.2,44.2,38.5L44.2,38.5z M54.2,38.3c0.7,0.5,2.3,1.1,4.3,0.3   C61.6,21,50.1-0.1,35.1,7.3c0.5,1.2,2,3.3,2.7,4.2C50,7.4,56.7,25.8,54.2,38.3L54.2,38.3z M58,40.9c-1.8,0.4-3.3,0-4.3-0.5   c-2,7.5-4.7,8.2-5.9,10.1c-0.1,0.6-0.3,2.5,2.5,4C54.3,51,56.7,46.3,58,40.9L58,40.9z M48.7,55.8c-1.9-1.3-2.6-2.7-2.8-3.9   c-5.9,3.4-9.5-2.2-10.6,5.2C39.7,59.2,44.6,58.6,48.7,55.8L48.7,55.8z M33.3,56c0.3-2,1.5-3.3,2.5-4.1c-2-1.2-4.5-5-6.9,0   C30.2,53.5,31.7,54.9,33.3,56L33.3,56z M27.7,50.1c1.1-1.8,2.5-2.4,3.7-2.6c-1-1.4-2.9-7.2-4.2-5.9c-1.2,0-2.1,0.2-2.8,1.2   C25.2,45.5,26.3,47.9,27.7,50.1L27.7,50.1z M36,12.4c-0.8-1.1-2.1-2.8-2.6-4.1c-0.5,0.3-1,0.7-1.5,1.1c0.6,1.6,1.5,2.9,2.7,3.9   C35,13,35.5,12.7,36,12.4L36,12.4z M22.4,42.2c1.2-2.2,1.6-2.6,3-2.6v0c2.8,0,4.1-0.5,5.6,2.5c5.2,9.6,17.2,4.4,17.2-5.8   c0-4.2,1.3-13.5-2.2-13.5c-12.9,0-25.8,0-38.7,0c-1.4,0-2.2,1.4-2.2,2.7c0,5.8-1.2,14,2.8,18.6C12.2,48.9,19.4,47.7,22.4,42.2   L22.4,42.2z M6.4,25.8l0.2,12.4c0,0.2,0.6,3.7,3.5,5.5c5.8,3.5,4.5-1.2,2.9-0.6c0,0-4-1.8-4.4-5L8.4,25.8   C8.4,24.5,6.4,24.5,6.4,25.8L6.4,25.8z M11.7,28.3c0,3.4-1.5,12.3,4.2,12.3c4.5,0,3.5-6.8,8.5-6.8c3.6,0,7.8-0.6,9.2,3.6   c1.7,5.1,8.1,3.2,8.1-1.8v-7.3H11.7L11.7,28.3z M9.7,35.6c0,5,5.4,9.2,9.7,5.7c5.3-4.2-1.3-5.5,9.6-5.5c3.6,0,2.6,6.8,8.5,6.8   c8,0,6.2-11.3,6.2-16.3H9.7V35.6z"/></g></svg>