<?xml version="1.0" ?><svg id="Layer_1" style="enable-background:new 0 0 64 64;" version="1.1" viewBox="0 0 64 64" xml:space="preserve" xmlns="http://www.w3.org/2000/svg" xmlns:xlink="http://www.w3.org/1999/xlink"><style type="text/css">
	.st0{fill-rule:evenodd;clip-rule:evenodd;fill:#389BDC;}
	.st1{fill-rule:evenodd;clip-rule:evenodd;fill:#FF9933;}
	.st2{fill-rule:evenodd;clip-rule:evenodd;fill:#FFFFCC;}
	.st3{fill-rule:evenodd;clip-rule:evenodd;fill:#EBD79F;}
	.st4{fill-rule:evenodd;clip-rule:evenodd;fill:#FF0000;}
	.st5{fill-rule:evenodd;clip-rule:evenodd;fill:#232E7A;}
	.st6{fill-rule:evenodd;clip-rule:evenodd;fill:#E6E6E6;}
	.st7{fill-rule:evenodd;clip-rule:evenodd;fill:#DE9800;}
	.st8{fill-rule:evenodd;clip-rule:evenodd;fill:#00FFFF;}
	.st9{fill-rule:evenodd;clip-rule:evenodd;fill:#FFCC00;}
	.st10{fill-rule:evenodd;clip-rule:evenodd;fill:#FF3399;}
	.st11{fill-rule:evenodd;clip-rule:evenodd;fill:#6666CC;}
	.st12{fill-rule:evenodd;clip-rule:evenodd;fill:#BA8E8E;}
</style><g><path class="st6" d="M25.3,36C19.1,31.8,6.2,22.6,4.8,14.9C3.2,6.3,10.5,4.2,17.4,4.8c0.2,0,0.4,0.2,0.5,0.4c0.1,0.2,0,0.5-0.2,0.6   c-3.7,3.4-2.1,7.5,0.5,11.1c2.7,3.7,6.2,7.3,9.5,10.6c1.1,1.1,2.1,2.1,3.2,3.1c0.1,0.1,0.2,0.3,0.2,0.4c0,0.2-0.1,0.3-0.2,0.4   c-1.6,1.5-3.2,3-4.9,4.4C25.9,36.1,25.6,36.1,25.3,36L25.3,36z M33.6,40.2c1.4-0.9,2.8-1.8,4.2-2.7c0.2-0.2,0.5-0.1,0.7,0.1   c1.2,1.1,2.4,2.1,3.6,3.1c0.2,0.2,0.3,0.6,0.1,0.8l-2.1,2.9c-0.2,0.2-0.5,0.3-0.8,0.2c-2-1.1-3.9-2.2-5.8-3.3   c-0.2-0.1-0.3-0.3-0.3-0.5C33.3,40.5,33.4,40.3,33.6,40.2L33.6,40.2z M23.8,44.4c0.2,0.2,0.5,0.3,0.8,0.2   c9.1-5,32.7-19.1,34.6-29.7c1.6-8.5-5.7-10.6-12.6-10.1c-0.2,0-0.4,0.2-0.5,0.4c-0.1,0.2,0,0.5,0.2,0.6c3.7,3.4,2.1,7.5-0.5,11.1   c-2.7,3.7-6.2,7.3-9.5,10.6c-4.6,4.6-9.5,9-14.4,13.2c-0.2,0.2-0.3,0.6-0.1,0.8L23.8,44.4L23.8,44.4z M11,8.4   c-0.4,0.2-3,1.5-2.2,2.2c0,0,0.1,0.1,0.1,0.1c0.5,0.1,1.8-1.3,2.4-1.5C11.7,9,11.4,8.2,11,8.4L11,8.4z M8.2,14.8   c-0.1-0.5-0.9-0.3-0.8,0.2c0.2,0.9,0.9,2.2,1.4,3c0.2,0.4,1.7,2.8,2.3,2.2c0,0,0.1-0.1,0.1-0.1c0.1-0.3-0.9-1.5-1.1-1.7   C9.3,17.3,8.6,16.2,8.2,14.8L8.2,14.8z M15.8,24.2c-0.4-0.3-0.9,0.3-0.5,0.6c3,2.6,6.4,5.3,9.7,7.5c0.2,0.1,0.4,0.1,0.6-0.1   c0,0,0.1-0.1,0.1-0.1c0-0.4-2-1.8-2.3-2.1C20.7,28.1,18.2,26.3,15.8,24.2L15.8,24.2z M52.4,11.6c-0.9,0,0-3.2-2.7-4.3   c-0.5-0.2-0.2-0.9,0.3-0.7c0.7,0.3,1.4,1,1.8,1.6c0.4,0.6,0.8,1.4,0.9,2.2c0.1,0.3,0.1,1-0.1,1.2C52.6,11.5,52.5,11.6,52.4,11.6   L52.4,11.6z M50.5,16.2c0.1-0.1,0.6-0.2,0.7-0.2c0.2,0.4-0.9,2-1.1,2.3c-1.8,2.6-4.6,5.3-6.9,7.6c-0.4,0.3-0.9-0.2-0.5-0.6   C45.4,22.8,48.7,19.6,50.5,16.2L50.5,16.2z M38,29.6c-2,1.7-4,3.4-6.1,5c-0.9,0.7-1.7,1.4-2.6,2c-0.4,0.3,0.1,0.9,0.5,0.6   c3-2.2,5.9-4.7,8.7-7.1C38.8,29.9,38.3,29.3,38,29.6z"/><path class="st2" d="M46.4,4.8c3.6,0.7,7.5,2.2,9.8,5.6c5.1,7.4-9.6,17.6-18,23.5c-6.9,4.8-13.1,8.4-15,9.5l0.7,0.9   c0.2,0.2,0.5,0.3,0.8,0.2c9.1-5,32.7-19.1,34.6-29.7c1.6-8.5-5.7-10.6-12.6-10.1C46.5,4.8,46.4,4.8,46.4,4.8z"/><path class="st2" d="M17.8,5c1.1,1.4-5.8,3.2,0.5,11.9c3.3,4.6,8.5,9.7,12.7,13.7c0.6,0.6-0.5,1.3-1.2,2   C22.5,25.8,14.3,17.3,13.1,13C12,8.6,14.9,6.3,17.8,5L17.8,5z M36.2,38.5c3,2.7,5,4.4,5,4.4c1.7-2.5,2-1.3-2.7-5.4   C38,37.1,37.2,37.9,36.2,38.5z"/><path class="st7" d="M59,52.8c0.2,0.4,0.3,1,0.3,1.4c-0.1,1.2-0.9,2.2-2.1,1.4c-0.3-0.2-0.4-0.5-0.2-0.8c0.4-0.6,0.7-1.3,1-2   c0.1-0.2,0.3-0.3,0.5-0.4C58.7,52.5,58.9,52.6,59,52.8L59,52.8z M6.9,55.7C6.5,55.9,6,56,5.6,55.8c-0.9-0.5-1-2.2-0.6-3   c0.1-0.2,0.3-0.3,0.6-0.3c0.2,0,0.4,0.1,0.5,0.4c0.3,0.7,0.6,1.3,1,2C7.2,55.1,7.2,55.5,6.9,55.7L6.9,55.7z M10.9,52.6   c-0.5-0.9-0.8-1.8-1-2.7c-0.1-0.2,0-0.5,0.2-0.6l7.3-5.7c0.2-0.2,0.6-0.2,0.8,0.1c0.8,0.8,1.5,1.7,2,2.7c0.2,0.3,0.1,0.6-0.2,0.8   l-8.3,5.7c-0.1,0.1-0.3,0.1-0.5,0.1C11.1,52.9,11,52.8,10.9,52.6L10.9,52.6z M54.1,49.9c-0.3,0.9-0.6,1.9-1,2.7   c-0.1,0.2-0.2,0.3-0.4,0.3c-0.2,0-0.3,0-0.5-0.1l-8.3-5.7c-0.3-0.2-0.3-0.5-0.2-0.8c0.6-1,1.3-1.9,2-2.7c0.2-0.2,0.6-0.3,0.8-0.1   l7.3,5.7C54.1,49.4,54.2,49.6,54.1,49.9z"/><path class="st0" d="M41.8,51.3c0.5,3.3,2.8,6.5,6.5,5.9c7-1.1,6.3-10.5,8.2-11.6c0.4-0.3,1-0.4,1.5-0.1c1.3,0.8,0.1,4.3-0.3,5.4   c-0.4,1.1-1.2,3.2-1.9,4.1c-2.6,3.4-6.6,5.5-10.9,3.7c-2.7-1.2-4.9-3.7-5.5-6.6c-1.1-5,1.4-7.1,3.9-10.9c0,0,0,0,0-0.1   c1-1.2,3.4-3.7,5.1-3.5c0.3,0,0.5,0.3,0.5,0.6c-0.1,0.9-1,1.8-1.5,2.4c-0.9,0.9-1.9,1.8-2.7,2.8C42.9,45.7,41.4,48.2,41.8,51.3   L41.8,51.3z M24.5,52.1c-0.7,3.3-2.9,5.9-6.2,6.9c-2.7,0.8-5.6,0.2-7.8-1.5c-3-2.2-4.4-5.7-5-9.2c-0.1-0.9-0.5-2.9,0.9-2.9   c0.2,0,0.4,0,0.5,0.1c1.3,0.5,1.7,3.1,2.1,4.3c0.6,2.1,1.4,4.2,3,5.7c4.3,4,9.2,1.3,10.1-4.1c0.5-3.1-1-5.6-3-7.9   c-0.9-1-1.8-1.9-2.7-2.8c-0.6-0.6-1.5-1.5-1.5-2.4c0-0.3,0.2-0.6,0.5-0.6c1.1-0.1,2.9,1.4,3.7,2.1c1.6,1.4,3.1,3.3,4.1,5.2   C24.3,47,25,49.6,24.5,52.1z"/><path class="st5" d="M6.1,48.2c2,13.5,15.7,13.2,17.8,3.8c1.5-6.6-6.7-13.9-8.4-13.7c0.2,2.2,8.4,6.3,7.3,13.2   c-0.9,5.9-6.5,8.7-11.1,4.4c-3.8-3.5-3.2-10-5.2-9.9C5.6,46,6,47.7,6.1,48.2L6.1,48.2z M10.7,7.9c1.2-0.5,2,1.4,0.8,1.8   C10.7,10,9.3,12,8.3,11.1C6.8,9.7,10.7,7.9,10.7,7.9L10.7,7.9z M49.5,7.8C48.3,7.3,49,5.5,50.2,6c2.7,1.1,4.4,6.2,2.1,6.2   C50.6,12.2,52.1,8.8,49.5,7.8L49.5,7.8z M50,16c0.5-1,6.5-1.8-6.4,10.4c-0.9,0.9-2.3-0.6-1.4-1.4C45,22.3,48.3,19.1,50,16L50,16z    M37.6,29.2c1-0.8,2.3,0.7,1.3,1.5c-4.7,4-8.7,7.1-8.8,7.1c-1,0.8-2.2-0.8-1.2-1.6C28.9,36.2,32.9,33.1,37.6,29.2L37.6,29.2z    M6.9,15.2c-0.3-1.3,1.6-1.7,1.9-0.5c0.8,3,4,4.9,2.7,6C10,22.1,7.2,16.5,6.9,15.2L6.9,15.2z M14.9,25.2c-1-0.8,0.3-2.3,1.3-1.5   c7.2,6.2,10.9,7.3,9.9,8.8c-0.3,0.5-0.9,0.6-1.4,0.3C24.7,32.8,19.6,29.3,14.9,25.2L14.9,25.2z M44,41.5c-2.3,3.4-4.9,5.6-3.9,10.4   c1.3,6,9.3,10.5,15.3,2.7c1.1-1.5,4.3-10.2,1.5-8.5c-1.4,0.8-1.2,10.6-8.5,11.7c-3.9,0.6-6.6-2.6-7.2-6.4   c-1.1-6.9,7.1-10.9,7.3-13.2C47.4,38.1,45.6,39.6,44,41.5L44,41.5z M41.8,41.1c-0.8-0.6-2-1.7-3.6-3.1c-1.5,1-2.9,1.9-4.2,2.7   c2.6,1.6,4.7,2.7,5.8,3.3L41.8,41.1L41.8,41.1z M39.9,36.8c1.4,1.2,2.5,2.2,3.2,2.8c5.3-5.7,11-3.6,4.5,3l6.5,5   c1.3-5.2,8-5.7,5.2,3.4c3.3,2.9,0.4,8.4-3,5.8c-7.9,9.6-22,0.1-17.5-11c-1.2-0.7-3.7-2-6.8-3.9c-3.1,1.9-5.6,3.3-6.8,3.9   c4.5,11.1-9.6,20.6-17.5,11c-3.4,2.6-6.3-2.9-3-5.8c-2.7-8.9,3.8-8.9,5.2-3.4l6.5-5c-6.4-6.6-0.8-8.7,4.5-3   c0.7-0.6,1.8-1.5,3.2-2.8c-10.3-7-23-16.8-20.7-26.6c1.6-7,11.4-7.7,16.2-6.6c1.7,0.4,0.9,1.7,0,2.4c-1.3,1.1-4.7,3.7-0.2,10   c2.9,4,7.9,9.1,12.6,13.6C56,7,44.2,8.6,43.5,5c-0.1-0.7,0.1-1.1,0.9-1.3c4.7-1.1,14.6-0.5,16.2,6.6C62.8,20.1,50.2,29.8,39.9,36.8   L39.9,36.8z M30.5,31c-4.8-4.5-9.8-9.7-12.8-13.8C13,10.7,15.4,7.2,17.4,5.4c-6.4-0.5-13.5,1.2-12,9.4c1.2,6.6,11.2,14.7,20.3,20.7   C27.1,34.2,28.8,32.7,30.5,31L30.5,31z M57.4,55.1c0.4-0.7,0.8-1.4,1-2C58.9,53.7,58.7,56,57.4,55.1L57.4,55.1z M44.3,46.6   c0.5-0.9,1.2-1.8,2-2.6l7.3,5.7c-0.2,0.9-0.5,1.8-1,2.6L44.3,46.6L44.3,46.6z M51.4,54c-4.4,4.8-9.6-0.2-8-5.5L51.4,54L51.4,54z    M24.3,44l-2.1-2.9c3.5-3,18-15.5,24-23.8c4.7-6.6,2.4-10.1,0.4-11.9c6.4-0.5,13.5,1.2,12,9.4C56.6,25.8,29.5,41.2,24.3,44L24.3,44   z M5.5,53.1c0.3,0.7,0.6,1.4,1,2C5.3,56,5.1,53.7,5.5,53.1L5.5,53.1z M20.6,48.5c1.6,5.3-3.6,10.3-8,5.5L20.6,48.5L20.6,48.5z    M11.4,52.3c-0.5-0.9-0.8-1.8-1-2.6l7.3-5.7c0.7,0.8,1.4,1.7,2,2.6L11.4,52.3z"/></g></svg>