<?xml version="1.0" ?><svg id="Layer_1" style="enable-background:new 0 0 64 64;" version="1.1" viewBox="0 0 64 64" xml:space="preserve" xmlns="http://www.w3.org/2000/svg" xmlns:xlink="http://www.w3.org/1999/xlink"><style type="text/css">
	.st0{fill-rule:evenodd;clip-rule:evenodd;fill:#389BDC;}
	.st1{fill-rule:evenodd;clip-rule:evenodd;fill:#FF9933;}
	.st2{fill-rule:evenodd;clip-rule:evenodd;fill:#FFFFCC;}
	.st3{fill-rule:evenodd;clip-rule:evenodd;fill:#EBD79F;}
	.st4{fill-rule:evenodd;clip-rule:evenodd;fill:#FF0000;}
	.st5{fill-rule:evenodd;clip-rule:evenodd;fill:#232E7A;}
	.st6{fill-rule:evenodd;clip-rule:evenodd;fill:#E6E6E6;}
	.st7{fill-rule:evenodd;clip-rule:evenodd;fill:#DE9800;}
	.st8{fill-rule:evenodd;clip-rule:evenodd;fill:#00FFFF;}
	.st9{fill-rule:evenodd;clip-rule:evenodd;fill:#FFCC00;}
	.st10{fill-rule:evenodd;clip-rule:evenodd;fill:#FF3399;}
	.st11{fill-rule:evenodd;clip-rule:evenodd;fill:#6666CC;}
	.st12{fill-rule:evenodd;clip-rule:evenodd;fill:#BA8E8E;}
</style><g><path class="st4" d="M29.5,16.8c-1.7,1.6-3.4,3.2-5,4.8c-0.2,0.2-0.6,0.2-0.8,0c-1.7-1.4-6.8-4.7-5.5-7.1c0.1-0.2,0.2-0.3,0.4-0.3   c0.2,0,0.4,0,0.5,0.1c0.4,0.4,2.1,2.5,2.7,1.9c0.6-0.6-2.1-2.4-2.4-2.8c-0.2-0.2-0.3-0.5-0.1-0.8c0.7-1,1.9-2.8,3.3-2.9   c1.1-0.1,2.1,0.9,2.8,1.6c1.4,1.4,2.8,3.1,4.2,4.6C29.8,16.2,29.8,16.5,29.5,16.8L29.5,16.8z M19.8,26.3c0.2-0.2,0.2-0.6,0-0.8   c-1.3-1.4-2.5-2.9-3.8-4.2c-0.7-0.7-1.7-1.6-2.7-1.5c-1.4,0.1-2.7,2-3.4,3c-0.2,0.2-0.1,0.6,0.1,0.8c0.4,0.3,2.9,2,2.3,2.7   c-0.5,0.6-2.2-1.5-2.5-1.8c-0.1-0.1-0.3-0.2-0.5-0.1c-0.2,0-0.3,0.2-0.4,0.3c-0.8,1.8,2,4,3.1,4.9c0.8,0.6,1.6,1.2,2.3,1.9   c0.3,0.2,0.6,0.2,0.8-0.1C16.5,29.7,18.1,28,19.8,26.3L19.8,26.3z M23.3,18.2c0.6,0.6,1.4,0.2,0.9-0.3   C23.6,17.4,22.8,17.8,23.3,18.2L23.3,18.2z M13.7,28.3c-0.5-0.5,0.2-0.9,0.9-0.3C15.1,28.5,14.3,28.8,13.7,28.3z"/><path class="st2" d="M20.1,11.5c0.7-0.8,1.5-1.6,2.4-1.7c1.1-0.1,2.1,0.9,2.8,1.6c1.4,1.4,2.8,3.1,4.2,4.6c0.1,0.2,0.2,0.4,0.1,0.6   l-2.3,2.2c0,0-2.3-2.9-5.3-5.8C21.4,12.3,20.8,11.8,20.1,11.5L20.1,11.5z M11.4,20.8L11.4,20.8c2.5,2.5,6.8,7.1,6.8,7.1l1.7-1.7   c0.1-0.2,0.1-0.5-0.1-0.7c-1.3-1.4-2.5-2.9-3.8-4.2c-0.7-0.7-1.7-1.6-2.7-1.5C12.5,19.8,11.9,20.2,11.4,20.8z"/><path class="st8" d="M17.6,42.1c-2.1-1.8-5.5-5.4-3.5-8.3c1.1-1.6,2.5-3.1,3.8-4.5c1.8-1.9,3.6-3.8,5.5-5.6   c3.5-3.4,7.1-6.8,10.7-10.1c2.7-2.5,6.8,2.3,8.3,4.2c0.2,0.2,0.2,0.6-0.1,0.8L18.4,42C18.2,42.2,17.9,42.3,17.6,42.1L17.6,42.1z    M49.1,24.9c2.1,2,0.5,5.5-2.3,5.5c-1.2,0-2.4-0.4-2.9-1.6c-0.4-0.9-0.3-2,0.1-2.9C44.9,23.6,47.2,23.1,49.1,24.9L49.1,24.9z    M40.8,33.6c-1.8-1.8-4.2-1.3-5.2,1c-0.4,0.9-0.5,2-0.1,2.9c0.6,1.2,1.7,1.6,2.9,1.6C41.3,39.2,42.9,35.7,40.8,33.6L40.8,33.6z    M36.1,16.2c-0.2-0.1-0.6,0-0.7,0c-0.2,0.2-1.4,1.4-1.4,1.8c0.1,0.1,0.5,0,0.6,0C34.9,17.8,36.1,16.7,36.1,16.2L36.1,16.2z    M32.9,19.7c0.4-0.3-0.2-0.9-0.5-0.6c-0.3,0.3-2.4,1.7-1.9,2.3C31.1,22,32.6,20,32.9,19.7L32.9,19.7z M26.1,25.1   c-0.7,0.7-1.5,1.3-2.3,2c-0.3,0.2-1.9,1.8-1.5,2.3c0,0,0,0,0.1,0c0.9,0.3,3.6-3.1,4.2-3.7C27,25.3,26.4,24.8,26.1,25.1L26.1,25.1z    M20.2,30.9c-1.5,1.6-3.6,4.4-2.9,6.7c0.2,0.5,0.5,1,0.9,1.3c0.1,0.1,0.5,0.3,0.6,0.2c0,0,0.2-0.2,0.2-0.3c0-0.1-0.3-0.4-0.4-0.5   c-0.3-0.4-0.6-0.8-0.7-1.4c-0.5-2,1.6-4.2,2.8-5.5C21.2,31.1,20.6,30.5,20.2,30.9z"/><path class="st2" d="M31.4,16.1c0.9-0.8,1.8-1.7,2.8-2.5c2.7-2.5,6.8,2.3,8.3,4.2c0.2,0.2,0.2,0.6-0.1,0.8l-2.6,2.5   c0,0-1.6-2-4.1-4.2l0,0c0.2-0.3,0.4-0.5,0.4-0.7c-0.2-0.1-0.6,0-0.7,0c0,0-0.1,0.1-0.2,0.2C33.9,15.7,32.5,15.8,31.4,16.1z"/><path class="st0" d="M17.3,43.9c0.2,0.1,0.3,0.1,0.4,0l36.9-36c0.2-0.2,0.4-0.2,0.7-0.1c0.2,0.1,0.4,0.3,0.4,0.6   c0,4.8,0.2,9.7,0.2,14.5c0,2.6-0.1,5.4-1,7.8c-0.8,2.1-2.1,3.8-3.6,5.4c-2.4,2.7-5,5.3-7.5,7.9c0,0-0.1,0.1-0.1,0.2   c-0.1,0.3-0.4,0.5-0.7,0.4c-1.2-0.3-2.3-0.2-3.4,0.4c-2.9,1.7-4.4,0.8-7.4,0.1c-0.7-0.1-1.4-0.2-2,0.1c-0.5,0.2-0.8,0.6-1.3,0.8   c-0.9,0.5-1.7,0.3-2.6,0c-0.9-0.4-2-0.8-2.9-1c-0.2,0-0.4-0.2-0.5-0.4c-0.1-0.2,0-0.5,0.2-0.6c0.4-0.3,3.2-2.7,2.7-3.3   c0,0,0,0-0.1,0c-0.8-0.3-3.5,2.9-4.1,3.5c-0.1,0.1-0.2,0.2-0.1,0.4c0.1,0.3,0,0.6-0.3,0.8c-0.1,0-0.2,0.1-0.4,0.2   c-1.3,0.6-2.9,0.4-4.1-0.4c-0.3-0.2-0.4-0.5-0.2-0.8C16.6,43.8,17,43.7,17.3,43.9L17.3,43.9z M38.5,31.9c-5.2,0-5.2,8.1,0,8.1   C43.7,40,43.7,31.9,38.5,31.9L38.5,31.9z M29.1,36.7c-0.4,0.3,0.2,0.9,0.6,0.6c0.4-0.4,3.3-2.4,2.6-3.1   C31.7,33.5,29.5,36.3,29.1,36.7L29.1,36.7z M46.7,31.2c5.2,0,5.2-8.1,0-8.1S41.5,31.2,46.7,31.2z"/><path class="st2" d="M52.1,10.2l2.5-2.4c0.2-0.2,0.4-0.2,0.7-0.1c0.2,0.1,0.4,0.3,0.4,0.6c0,4.8,0.2,9.7,0.2,14.5   c0,2.6-0.1,5.4-1,7.8c-0.8,2.1-2.1,3.8-3.6,5.4c-2.2,2.5-4.6,4.9-6.9,7.2c1.9-2.3,6.2-7.8,7.5-13.5C52.9,24.9,52.5,16,52.1,10.2   L52.1,10.2z M43.6,44c0,0.1-0.1,0.2-0.2,0.3l-0.1,0C43.3,44.3,43.4,44.2,43.6,44z"/><path class="st5" d="M4.7,48.6c-1.1,0.6-2-1.2-0.9-1.8c6.1-3,6.3,3.9,11.8,3.2c1.3-0.1,1.5,1.8,0.2,2C10.2,52.7,8.8,46.5,4.7,48.6   L4.7,48.6z M22.5,45c-0.9,0.9-2.3-0.5-1.4-1.4c0.8-0.8,3.8-4.7,5-3.4C27.3,41.3,23.3,44.2,22.5,45L22.5,45z M30.1,37.7   c-0.9,0.9-2.3-0.5-1.4-1.4c0.7-0.7,2.8-3.7,4-2.5C33.9,35,30.8,37,30.1,37.7L30.1,37.7z M19.8,13c0.7,0.7,3.6,2.4,2.5,3.6   c-1.1,1.2-2.8-1.3-3.5-1.9c-0.9,1.9,3.2,4.6,5.4,6.4c1.8-1.7,3.5-3.4,5-4.8C23.1,9.7,22.9,8.7,19.8,13L19.8,13z M22.9,18.7   c-1.1-1,0.4-2.3,1.7-1.1C25.7,18.5,24.2,19.9,22.9,18.7L22.9,18.7z M10.3,23.2c3.2-4.6,3.5-3.4,9.1,2.7c-1.9,1.9-3.6,3.7-4.8,5.1   c-2.1-1.8-6-4.5-5.3-6.1c0.7,0.6,2.3,2.9,3.4,1.8C13.7,25.5,11,23.8,10.3,23.2L10.3,23.2z M13.3,28.7c1.3,1.2,2.8-0.2,1.7-1.1   C13.7,26.4,12.2,27.7,13.3,28.7L13.3,28.7z M35,15.8c0.5-0.5,3.5-0.6,0,2.7C34.5,19,31.7,19,35,15.8L35,15.8z M32,18.7   c0.9-0.9,2.3,0.6,1.4,1.5c-0.7,0.6-2.2,2.8-3.3,1.7C29.1,20.7,31.3,19.3,32,18.7L32,18.7z M25.7,24.7c0.9-0.9,2.3,0.5,1.4,1.4   c-0.8,0.8-3.9,4.9-5.1,3.6C20.7,28.5,24.8,25.5,25.7,24.7L25.7,24.7z M19.8,30.5c-6.2,6.4-1.7,10.2-0.5,9.1c1.9-1.8-4-1.6,1.9-7.7   C22.1,30.9,20.7,29.5,19.8,30.5L19.8,30.5z M46.7,22.6c6,0,6,9.3,0,9.3C40.7,31.8,40.7,22.6,46.7,22.6L46.7,22.6z M48.6,25.3   c-3.6-3.6-7.1,4.5-1.9,4.5C49.1,29.8,50.3,27,48.6,25.3L48.6,25.3z M22.6,22.6c-0.6,0.6-1.3,1.3-1.9,1.9c-5.4-5.9-7.2-8.6-11.3-3.5   c-4.2,5.2-2.6,6,3.8,11.6c-3,4,1.1,8.5,3.3,10.4c-0.6,1,0.7,2,1.5,1.2L55,8.2c0,24.5,2.6,20.3-11.7,35.2c-0.9,0.9,0.5,2.3,1.4,1.4   C59.7,29.2,57,33.4,57,5.9c0-0.8-1.1-1.3-1.7-0.7c-3.9,3.8-7.9,7.7-11.9,11.6c-5.8-7.3-8.2-6.1-12.8-1.8c-6-6.6-7.7-9-11.8-4   C14.6,16.2,16.2,17,22.6,22.6L22.6,22.6z M38.5,31.3c-6,0-6,9.3,0,9.3C44.5,40.6,44.5,31.3,38.5,31.3L38.5,31.3z M40.4,34.1   c-3.6-3.6-7.1,4.5-1.9,4.5C40.8,38.6,42.1,35.7,40.4,34.1L40.4,34.1z M42,18.2c-1.3-1.7-5.1-6.3-7.4-4.2   c-3.2,2.9-16.5,15.1-20,20.1c-1.8,2.6,1.8,6.2,3.4,7.5L42,18.2L42,18.2z M4.7,55.6c4.2-2.1,5.5,4.1,11.2,3.4c1.3-0.1,1.1-2.1-0.2-2   c-5.5,0.6-5.7-6.3-11.8-3.2C2.6,54.4,3.5,56.2,4.7,55.6L4.7,55.6z M48.7,55.6c-1.1,0.6-2-1.2-0.9-1.8c6.1-3,6.3,3.9,11.8,3.2   c1.3-0.1,1.5,1.8,0.2,2C54.2,59.7,52.9,53.5,48.7,55.6L48.7,55.6z M39.9,55.6c4.2-2.1,5.5,4.1,11.2,3.4c1.3-0.1,1.1-2.1-0.2-2   c-5.5,0.6-5.7-6.3-11.8-3.2C37.9,54.4,38.8,56.2,39.9,55.6L39.9,55.6z M31.1,55.6c-1.1,0.6-2-1.2-0.9-1.8c6.1-3,6.3,3.9,11.8,3.2   c1.3-0.1,1.5,1.8,0.2,2C36.6,59.7,35.3,53.5,31.1,55.6L31.1,55.6z M22.3,55.6c4.2-2.1,5.5,4.1,11.2,3.4c1.3-0.1,1.1-2.1-0.2-2   c-5.5,0.6-5.7-6.3-11.8-3.2C20.3,54.4,21.1,56.2,22.3,55.6L22.3,55.6z M13.5,55.6c4.2-2.1,5.5,4.1,11.2,3.4c1.3-0.1,1.1-2.1-0.2-2   c-5.5,0.6-5.7-6.3-11.8-3.2C11.4,54.4,12.3,56.2,13.5,55.6L13.5,55.6z M48.7,48.6c-1.1,0.6-2-1.2-0.9-1.8c6.1-3,6.3,3.9,11.8,3.2   c1.3-0.1,1.5,1.8,0.2,2C54.2,52.7,52.9,46.5,48.7,48.6L48.7,48.6z M39.9,48.6c-1.1,0.6-2-1.2-0.9-1.8c6.1-3,6.3,3.9,11.8,3.2   c1.3-0.1,1.5,1.8,0.2,2C45.4,52.7,44.1,46.5,39.9,48.6L39.9,48.6z M31.1,48.6c-1.1,0.6-2-1.2-0.9-1.8c6.1-3,6.3,3.9,11.8,3.2   c1.3-0.1,1.5,1.8,0.2,2C36.6,52.7,35.3,46.5,31.1,48.6L31.1,48.6z M22.3,48.6c4.2-2.1,5.5,4.1,11.2,3.4c1.3-0.1,1.1-2.1-0.2-2   c-5.5,0.6-5.7-6.3-11.8-3.2C20.3,47.4,21.1,49.2,22.3,48.6L22.3,48.6z M13.5,48.6c4.2-2.1,5.5,4.1,11.2,3.4c1.3-0.1,1.1-2.1-0.2-2   c-5.5,0.6-5.7-6.3-11.8-3.2C11.4,47.4,12.3,49.2,13.5,48.6z"/></g></svg>