<?xml version="1.0" ?><svg id="Layer_1" style="enable-background:new 0 0 64 64;" version="1.1" viewBox="0 0 64 64" xml:space="preserve" xmlns="http://www.w3.org/2000/svg" xmlns:xlink="http://www.w3.org/1999/xlink"><style type="text/css">
	.st0{fill-rule:evenodd;clip-rule:evenodd;fill:#389BDC;}
	.st1{fill-rule:evenodd;clip-rule:evenodd;fill:#FF9933;}
	.st2{fill-rule:evenodd;clip-rule:evenodd;fill:#FFFFCC;}
	.st3{fill-rule:evenodd;clip-rule:evenodd;fill:#EBD79F;}
	.st4{fill-rule:evenodd;clip-rule:evenodd;fill:#FF0000;}
	.st5{fill-rule:evenodd;clip-rule:evenodd;fill:#232E7A;}
	.st6{fill-rule:evenodd;clip-rule:evenodd;fill:#E6E6E6;}
	.st7{fill-rule:evenodd;clip-rule:evenodd;fill:#DE9800;}
	.st8{fill-rule:evenodd;clip-rule:evenodd;fill:#00FFFF;}
	.st9{fill-rule:evenodd;clip-rule:evenodd;fill:#FFCC00;}
	.st10{fill-rule:evenodd;clip-rule:evenodd;fill:#FF3399;}
	.st11{fill-rule:evenodd;clip-rule:evenodd;fill:#6666CC;}
	.st12{fill-rule:evenodd;clip-rule:evenodd;fill:#BA8E8E;}
</style><g><path class="st4" d="M37.8,41.2c0.7-0.4,1.3-0.9,1.9-1.5c0.2-0.2,0.4-0.4,0.5-0.6c0.1-0.1,0.3-0.2,0.4-0.1c4.9,1.6,7.9,5.8,8,11   c0,0.1,0,0.2-0.1,0.3c-1,0.9-2,1.7-3.1,2.4c-0.1,0.1-0.2,0.1-0.4,0c-0.1-0.1-0.2-0.2-0.2-0.3c-0.9-4.3-3.2-8.3-7-10.6   c-0.1-0.1-0.2-0.2-0.2-0.3C37.7,41.4,37.7,41.3,37.8,41.2L37.8,41.2z M41.8,27.2c-0.5-1-1.2-2-2-2.8c-0.1-0.1-0.2-0.3-0.1-0.5   c2.6-4.6,7.4-6.9,12.6-5.8c0.1,0,0.2,0.1,0.3,0.2c0.7,1,1.2,2,1.8,3.1c0.1,0.1,0.1,0.3,0,0.4c-0.1,0.1-0.2,0.2-0.3,0.2   c-4.5-0.1-8.5,2.2-11.5,5.4c-0.1,0.1-0.2,0.1-0.4,0.1C41.9,27.4,41.8,27.3,41.8,27.2L41.8,27.2z M22,9.5c4.7,2,7.5,6.4,7.7,11.5   c0,0.2-0.1,0.4-0.3,0.4c-1.1,0.3-2.2,0.7-3.2,1.3c-0.1,0.1-0.2,0.1-0.4,0c-0.1-0.1-0.2-0.1-0.2-0.3c-1-4.4-3.6-8.3-7.9-10   c-0.1-0.1-0.2-0.2-0.3-0.3c0-0.2,0-0.3,0.2-0.4c1.3-0.9,2.6-1.7,4-2.3C21.8,9.5,21.9,9.5,22,9.5L22,9.5z M21.4,34.5   c0.2,1,0.6,2,1.2,3c0.1,0.1,0.1,0.3,0,0.4c-0.1,0.1-0.2,0.2-0.3,0.2c-4.5,0.2-8.3,2.6-11.2,6c-0.1,0.1-0.2,0.2-0.3,0.1   c-0.1,0-0.2-0.1-0.3-0.2c-0.6-1.1-1.2-2.3-1.6-3.5c0-0.1,0-0.2,0-0.3c2.6-4.5,7.2-6.8,12.3-5.9C21.2,34.2,21.4,34.3,21.4,34.5z"/><path class="st2" d="M50.5,16.6c-5-0.2-9.1,2-11.7,6.3c-0.1,0.1-0.1,0.2-0.3,0.2c-0.1,0-0.2,0-0.3-0.1c-1.8-1.3-4-2-6.2-2l-0.6,0   c-0.2,0-0.4-0.2-0.4-0.4c-0.2-2.9-1.1-5.6-2.8-7.9c-0.1-0.1-0.1-0.3-0.1-0.4c0.1-0.1,0.2-0.2,0.3-0.2c0.7-0.1,1.4-0.2,2.1-0.2   c1.1-0.1,2.3,0,3.4,0.1c0.3,0,0.6-0.2,0.7-0.5c0-0.3-0.2-0.6-0.5-0.7c-1.2-0.1-2.4-0.1-3.6-0.1c-1.2,0.1-2.3,0.2-3.4,0.5   c-0.1,0-0.3,0-0.4-0.1c-0.8-0.7-1.6-1.4-2.5-1.9C24,9.2,23.9,9,23.9,8.9c0-0.2,0.1-0.3,0.3-0.3c2.5-0.8,5.1-1.3,7.8-1.3   c6.6,0,12.8,2.6,17.5,7.2c0.5,0.5,0.9,1,1.4,1.5c0.1,0.1,0.1,0.3,0.1,0.4C50.8,16.6,50.7,16.7,50.5,16.6L50.5,16.6z M55.2,23.4   c-0.1-0.1-0.2-0.2-0.3-0.3c-4.8-0.6-9.3,2.2-12.2,5.7c-0.1,0.1-0.1,0.2-0.1,0.4c0.2,0.9,0.4,1.8,0.4,2.8c0,1.9-0.5,3.8-1.5,5.5   c-0.1,0.1-0.1,0.2,0,0.3c0,0.1,0.1,0.2,0.2,0.2c4.5,1.7,7.5,5.3,8.2,10.1c0,0.2,0.1,0.3,0.3,0.3c0.2,0,0.3,0,0.4-0.1   c4-4.5,6.2-10.3,6.2-16.4C56.7,29.1,56.2,26.1,55.2,23.4L55.2,23.4z M16.2,13.2c-0.1,0-0.3,0-0.3,0.1c-0.4,0.4-0.9,0.8-1.3,1.2   C9.9,19.2,7.3,25.4,7.3,32c0,2,0.2,3.9,0.7,5.9c0,0.2,0.2,0.3,0.3,0.3s0.3,0,0.4-0.2c0.6-0.8,1.2-1.5,1.9-2.2   c0.1-0.1,0.2-0.2,0.1-0.4c-0.1-0.8-0.2-1.7-0.3-2.6c0-0.9,0-1.7,0-2.6c0-0.3,0.3-0.6,0.6-0.6c0.3,0,0.6,0.3,0.6,0.6   c-0.1,0.8-0.1,1.6,0,2.5c0,0.5,0.1,0.9,0.1,1.4c0,0.1,0.1,0.3,0.2,0.3c0.1,0.1,0.3,0.1,0.4,0c2.5-1.5,5.4-2,8.3-1.7   c0.1,0,0.2,0,0.3-0.1c0.1-0.1,0.1-0.2,0.1-0.3l0-0.5c0-2.9,1.1-5.6,3.2-7.7l0.3-0.3c0.1-0.1,0.1-0.2,0.1-0.4c-0.6-3-1.8-5.9-4.1-8   c-0.1-0.1-0.4-0.1-0.5,0L19.6,16c-0.3,0.2-0.6,0.5-0.9,0.7c-0.2,0.2-0.6,0.2-0.8-0.1c-0.2-0.2-0.2-0.6,0.1-0.8   c0.3-0.3,0.6-0.5,0.9-0.7l0.1-0.1c0.1-0.1,0.2-0.2,0.2-0.3c0-0.1-0.1-0.3-0.2-0.3C18,13.9,17.1,13.5,16.2,13.2L16.2,13.2z    M43.6,53.8c-3.6,1.9-7.6,2.9-11.6,2.9c-6.6,0-12.8-2.6-17.5-7.2c-1.1-1.1-2.2-2.4-3-3.7c-0.1-0.1-0.1-0.3,0-0.5   c0.5-0.7,1.1-1.3,1.7-1.9c0.1-0.1,0.2-0.1,0.3-0.1c0.1,0,0.2,0.1,0.3,0.2c0.6,0.9,1.3,1.8,2,2.7c0.9,1,1.8,1.9,2.9,2.7   c0.3,0.2,0.6,0.2,0.8-0.1c0.2-0.3,0.2-0.6-0.1-0.8c-1-0.8-1.9-1.6-2.7-2.5c-0.8-0.9-1.5-1.8-2.1-2.8c-0.1-0.2-0.1-0.4,0.1-0.5   c2.5-1.9,5.7-3.1,8.9-2.8c0.1,0,0.2,0,0.2,0.1l0.3,0.3c2,2,4.8,3.2,7.7,3.2c1.3,0,2.5-0.2,3.7-0.6c0.1,0,0.2,0,0.3,0   c4.5,1.9,7,6.5,7.9,11.1C43.9,53.5,43.8,53.7,43.6,53.8z"/><path class="st6" d="M49.9,16.6c-4.7,0-8.6,2.2-11.1,6.3c-0.1,0.1-0.1,0.2-0.3,0.2c-0.1,0-0.2,0-0.3-0.1c-1.8-1.3-4-2-6.2-2l-0.6,0   c-0.2,0-0.4-0.2-0.4-0.4c-0.2-2.9-1.1-5.6-2.8-7.9c-0.1-0.1-0.1-0.3-0.1-0.4c0.1-0.1,0.2-0.2,0.3-0.2c0.7-0.1,1.4-0.2,2.1-0.2   c1.1-0.1,2.3,0,3.4,0.1c0.3,0,0.6-0.2,0.7-0.5c0-0.3-0.2-0.6-0.5-0.7c-1.2-0.1-2.4-0.1-3.6-0.1c-1.2,0.1-2.3,0.2-3.4,0.5   c-0.1,0-0.3,0-0.4-0.1c-0.8-0.7-1.6-1.4-2.5-1.9C24,9.2,23.9,9,23.9,8.9c0-0.2,0.1-0.3,0.3-0.3c2.5-0.8,5.1-1.3,7.8-1.3   c5.9,0,11.5,2.1,15.9,5.8C48.7,14.2,49.3,15.4,49.9,16.6L49.9,16.6z M51.9,23.1c-3.7,0.5-7,2.9-9.3,5.7c-0.1,0.1-0.1,0.2-0.1,0.4   c0.2,0.9,0.4,1.8,0.4,2.8c0,1.9-0.5,3.8-1.5,5.5c-0.1,0.1-0.1,0.2,0,0.3c0,0.1,0.1,0.2,0.2,0.2c2.5,1,4.5,2.5,5.9,4.5   c3-4.2,4.8-9.4,4.8-15C52.3,26.1,52.2,24.6,51.9,23.1L51.9,23.1z M42.1,48.2c-4.4,3.4-10,5.4-16,5.4c-2.9,0-5.7-0.5-8.3-1.3   c-1.2-0.8-2.3-1.8-3.3-2.8c-1.1-1.1-2.2-2.4-3-3.7c-0.1-0.1-0.1-0.3,0-0.5c0.5-0.7,1.1-1.3,1.7-1.9c0.1-0.1,0.2-0.1,0.3-0.1   c0.1,0,0.2,0.1,0.3,0.2c0.6,0.9,1.3,1.8,2,2.7c0.9,1,1.8,1.9,2.9,2.7c0.3,0.2,0.6,0.2,0.8-0.1c0.2-0.3,0.2-0.6-0.1-0.8   c-1-0.8-1.9-1.6-2.7-2.5c-0.8-0.9-1.5-1.8-2.1-2.8c-0.1-0.2-0.1-0.4,0.1-0.5c2.5-1.9,5.7-3.1,8.9-2.8c0.1,0,0.2,0,0.2,0.1l0.3,0.3   c2,2,4.8,3.2,7.7,3.2c1.3,0,2.5-0.2,3.7-0.6c0.1,0,0.2,0,0.3,0C38.8,43.4,40.8,45.6,42.1,48.2L42.1,48.2z M16.2,13.2   c-0.1,0-0.3,0-0.3,0.1c-0.4,0.4-0.9,0.8-1.3,1.2C9.9,19.2,7.3,25.4,7.3,32c0,2,0.2,3.9,0.7,5.9c0,0.2,0.2,0.3,0.3,0.3   s0.3,0,0.4-0.2c0.6-0.8,1.2-1.5,1.9-2.2c0.1-0.1,0.2-0.2,0.1-0.4c-0.1-0.8-0.2-1.7-0.3-2.6c0-0.9,0-1.7,0-2.6   c0-0.3,0.3-0.6,0.6-0.6c0.3,0,0.6,0.3,0.6,0.6c-0.1,0.8-0.1,1.6,0,2.5c0,0.5,0.1,0.9,0.1,1.4c0,0.1,0.1,0.3,0.2,0.3   c0.1,0.1,0.3,0.1,0.4,0c2.5-1.5,5.4-2,8.3-1.7c0.1,0,0.2,0,0.3-0.1c0.1-0.1,0.1-0.2,0.1-0.3l0-0.5c0-2.9,1.1-5.6,3.2-7.7l0.3-0.3   c0.1-0.1,0.1-0.2,0.1-0.4c-0.6-3-1.8-5.9-4.1-8c-0.1-0.1-0.4-0.1-0.5,0L19.6,16c-0.3,0.2-0.6,0.5-0.9,0.7c-0.2,0.2-0.6,0.2-0.8-0.1   c-0.2-0.2-0.2-0.6,0.1-0.8c0.3-0.3,0.6-0.5,0.9-0.7l0.1-0.1c0.1-0.1,0.2-0.2,0.2-0.3c0-0.1-0.1-0.3-0.2-0.3   C18,13.9,17.1,13.5,16.2,13.2z"/><path class="st5" d="M32,5.7c7.3,0,13.8,2.9,18.6,7.7c4.8,4.8,7.7,11.3,7.7,18.6s-2.9,13.8-7.7,18.6c-4.8,4.8-11.3,7.7-18.6,7.7   s-13.8-2.9-18.6-7.7C8.6,45.8,5.7,39.3,5.7,32s2.9-13.8,7.7-18.6C18.2,8.6,24.7,5.7,32,5.7L32,5.7z M27.4,51.2   C27,51.1,26.5,51,26,50.8c-0.5-0.1-0.9-0.3-1.4-0.5c-0.5-0.2-1.1,0.1-1.3,0.6c-0.2,0.5,0.1,1.1,0.6,1.3c0.5,0.2,1,0.4,1.5,0.5   c0.5,0.2,1,0.3,1.5,0.4c0.5,0.1,1.1-0.2,1.2-0.8C28.3,51.8,28,51.3,27.4,51.2L27.4,51.2z M19.7,47.5c0.4,0.3,0.5,1,0.2,1.4   c-0.3,0.4-1,0.5-1.4,0.2c-1.1-0.8-2-1.7-2.9-2.7c-0.8-0.9-1.4-1.8-2.1-2.7c-0.6,0.5-1.1,1.2-1.7,1.9c0.9,1.3,1.9,2.5,3,3.6   c4.4,4.4,10.5,7.1,17.2,7.1c4.1,0,8-1,11.5-2.9c-1.4-7.6-5.9-10.1-7.6-10.8c-1.2,0.4-2.5,0.7-3.8,0.7c-3.1,0-5.9-1.3-8-3.3   c-0.1-0.1-0.2-0.2-0.3-0.3c-1.4-0.2-4.9-0.1-8.7,2.7c0.6,0.9,1.3,1.9,2,2.7C17.9,46,18.7,46.8,19.7,47.5L19.7,47.5z M10.4,35.5   c-0.1-0.9-0.2-1.7-0.3-2.6c0-0.9,0-1.8,0-2.7c0-0.5,0.5-1,1.1-0.9c0.5,0,1,0.5,0.9,1.1c-0.1,0.8-0.1,1.6,0,2.4   c0,0.5,0.1,0.9,0.1,1.4c3.2-2,6.6-1.9,8.5-1.7c0-0.2,0-0.3,0-0.5c0-3.1,1.3-5.9,3.3-8c0.1-0.1,0.2-0.2,0.3-0.3   c-0.7-3.9-2.3-6.3-4-7.8c-0.2,0.1-0.4,0.3-0.5,0.4c-0.3,0.2-0.6,0.5-0.9,0.7c-0.4,0.4-1,0.3-1.4-0.1c-0.4-0.4-0.3-1,0.1-1.4   c0.3-0.3,0.6-0.5,0.9-0.8l0.1-0.1c-1.1-0.7-2.1-0.9-2.6-1.1c-0.4,0.4-0.9,0.8-1.3,1.2C10.4,19.2,7.7,25.3,7.7,32   c0,2,0.2,3.9,0.7,5.8C9,36.9,9.7,36.2,10.4,35.5L10.4,35.5z M13.7,24.1c0.2-0.5,0.4-0.9,0.7-1.4c0.2-0.5,0.5-0.9,0.8-1.3   c0.3-0.4,0.5-0.8,0.8-1.2l0,0c0.3-0.4,0.6-0.8,0.9-1.1c0.4-0.4,0.3-1-0.1-1.4c-0.4-0.4-1-0.3-1.4,0.1c-0.4,0.4-0.7,0.8-1,1.2l0,0   c-0.3,0.4-0.6,0.9-0.9,1.3c-0.3,0.5-0.6,1-0.9,1.5l0,0c-0.3,0.5-0.5,1-0.7,1.5c-0.2,0.5,0,1.1,0.5,1.3   C12.9,24.8,13.5,24.6,13.7,24.1L13.7,24.1z M26.9,10.9c1.1-0.3,2.3-0.4,3.5-0.5c1.2-0.1,2.4-0.1,3.6,0.1c0.5,0.1,0.9,0.5,0.9,1.1   c-0.1,0.5-0.5,0.9-1.1,0.9c-1.1-0.1-2.2-0.1-3.3-0.1c-0.7,0-1.4,0.1-2.1,0.2c1.5,1.9,2.7,4.6,2.9,8.1c0.2,0,0.4,0,0.6,0   c2.4,0,4.7,0.8,6.5,2c3.6-5.9,8.9-6.7,12-6.5c-0.4-0.5-0.9-1-1.3-1.4C44.8,10.4,38.7,7.7,32,7.7c-2.7,0-5.3,0.4-7.7,1.2   C25.1,9.4,26,10,26.9,10.9L26.9,10.9z M40.6,14.4c0.3,0.1,0.6,0.3,0.9,0.5c0.3,0.2,0.6,0.3,0.9,0.5c0.5,0.3,1.1,0.2,1.4-0.3   c0.3-0.5,0.2-1.1-0.3-1.4c-0.3-0.2-0.7-0.4-1-0.6c-0.3-0.2-0.7-0.4-1-0.5c-0.5-0.2-1.1,0-1.3,0.4C39.9,13.5,40.1,14.1,40.6,14.4   L40.6,14.4z M52.2,18.4c-1.6-0.3-8.2-1.2-12.2,5.6c0.8,0.9,1.6,1.8,2.1,2.9c4.6-4.9,9.3-5.6,11.8-5.5   C53.4,20.4,52.8,19.4,52.2,18.4L52.2,18.4z M54.8,23.5c-1.6-0.2-6.9-0.4-11.9,5.6c0.2,0.9,0.4,1.9,0.4,2.9c0,2.1-0.6,4-1.5,5.7   c2.4,1,7.5,3.7,8.4,10.5c3.8-4.3,6.1-10,6.1-16.2C56.3,29,55.8,26.2,54.8,23.5L54.8,23.5z M21,34.5c-2-0.3-8.1-0.8-11.9,5.7   c0.4,1.2,1,2.4,1.6,3.5c4.3-4.9,8.8-6,11.5-6.1C21.7,36.7,21.3,35.6,21,34.5L21,34.5z M24.7,37.8c0.1,0,0.1,0,0.1,0l0,0.1   c0.2,0.2,0.4,0.5,0.6,0.7c1.7,1.7,4,2.7,6.6,2.7c1.3,0,2.5-0.3,3.6-0.7l0-0.1c0,0,0.1,0,0.1,0c1-0.5,2-1.1,2.8-1.9   c1.7-1.7,2.7-4,2.7-6.6s-1-4.9-2.7-6.6c-1.7-1.7-4-2.7-6.6-2.7s-4.9,1-6.6,2.7c-1.7,1.7-2.7,4-2.7,6.6   C22.7,34.2,23.5,36.2,24.7,37.8L24.7,37.8z M48.3,50c-0.2-7.5-5.9-10-7.8-10.6c-0.2,0.2-0.4,0.4-0.6,0.6c-0.6,0.6-1.2,1.1-1.9,1.5   c2.4,1.4,5.8,4.5,7.2,10.8C46.4,51.7,47.4,50.9,48.3,50L48.3,50z M29.4,21c-0.4-7.6-6-10.5-7.5-11.1c-1.4,0.6-2.7,1.4-3.9,2.3   c2.5,1,6.6,3.6,8.1,10.2C27.1,21.8,28.2,21.3,29.4,21z"/></g></svg>