<?xml version="1.0" ?><svg id="Layer_1" style="enable-background:new 0 0 64 64;" version="1.1" viewBox="0 0 64 64" xml:space="preserve" xmlns="http://www.w3.org/2000/svg" xmlns:xlink="http://www.w3.org/1999/xlink"><style type="text/css">
	.st0{fill-rule:evenodd;clip-rule:evenodd;fill:#389BDC;}
	.st1{fill-rule:evenodd;clip-rule:evenodd;fill:#FF9933;}
	.st2{fill-rule:evenodd;clip-rule:evenodd;fill:#FFFFCC;}
	.st3{fill-rule:evenodd;clip-rule:evenodd;fill:#EBD79F;}
	.st4{fill-rule:evenodd;clip-rule:evenodd;fill:#FF0000;}
	.st5{fill-rule:evenodd;clip-rule:evenodd;fill:#232E7A;}
	.st6{fill-rule:evenodd;clip-rule:evenodd;fill:#E6E6E6;}
	.st7{fill-rule:evenodd;clip-rule:evenodd;fill:#DE9800;}
	.st8{fill-rule:evenodd;clip-rule:evenodd;fill:#00FFFF;}
	.st9{fill-rule:evenodd;clip-rule:evenodd;fill:#FFCC00;}
	.st10{fill-rule:evenodd;clip-rule:evenodd;fill:#FF3399;}
	.st11{fill-rule:evenodd;clip-rule:evenodd;fill:#6666CC;}
	.st12{fill-rule:evenodd;clip-rule:evenodd;fill:#BA8E8E;}
</style><g><path class="st0" d="M22.2,40.7c-1.5-2.6-0.1-6,2.8-6.5c1.3-0.2,2.5,0.2,3.4,1.1c0.9,0.7,1.3,2,1.3,3.1   C29.7,42.4,24.3,44.2,22.2,40.7z"/><path class="st1" d="M32.3,55.8l1.4,1.6c0.1,0.1,0.1,0.2,0,0.3c-0.1,0.1-0.2,0.2-0.3,0.2l-3.1,0c-0.1,0-0.3-0.1-0.3-0.2   c0-0.1,0-0.3,0.1-0.3c0.6-0.4,1.2-0.9,1.6-1.6c0.1-0.1,0.1-0.1,0.2-0.1C32.2,55.7,32.3,55.7,32.3,55.8L32.3,55.8z M46,32.4   c0.9,0.4,2.3,0.6,3.1,1.3c1,0.9,0.9,2.6,0.8,3.9c0,0.1-0.1,0.2-0.2,0.2c-0.1,0-0.2,0-0.3,0c-0.3-0.2-0.7-0.4-1-0.6   c-0.2-0.1-0.4-0.2-0.5-0.3c-0.3-0.2-0.5-0.7-0.7-1c-0.5-1-1-2.1-1.6-3.1c-0.1-0.1,0-0.2,0-0.3C45.7,32.3,45.8,32.3,46,32.4L46,32.4   z M13.7,37.6c-0.2-1.2-0.1-2.5,0.5-3.6c0-0.1,0.1-0.1,0.2-0.1l3.5-1.4c0.1,0,0.3,0,0.3,0.1c0.1,0.1,0.1,0.2,0,0.4L18,33.3   c-0.5,0.9-1,1.8-1.5,2.7c-0.1,0.2-0.2,0.6-0.4,0.7c-0.1,0-0.3,0.1-0.4,0.1c-0.5,0.2-1.1,0.6-1.5,1c-0.1,0.1-0.2,0.1-0.3,0   C13.8,37.8,13.7,37.7,13.7,37.6z"/><path class="st2" d="M46.3,32.5c0.8,0.7,1.8,1.8,2.2,2.8c0.3,0.7,0.2,1.4,0.1,2c0.3,0.1,0.5,0.3,0.8,0.5c0.1,0.1,0.2,0.1,0.3,0   c0.1,0,0.2-0.1,0.2-0.2c0.2-1.3,0.3-2.9-0.8-3.9C48.4,33.1,47.2,32.8,46.3,32.5z"/><path class="st3" d="M48.8,39.1c2.3,1.8,2.3,5,0,6.9c-0.1,0.1-0.2,0.1-0.3,0c-0.1-0.1-0.2-0.2-0.1-0.3c0.4-2.1,0.4-4.2,0-6.3   c0-0.1,0-0.2,0.1-0.3C48.6,39,48.7,39,48.8,39.1L48.8,39.1z M15.6,39.2c-0.4,2.2-0.4,4.5,0,6.6c0,0.1,0,0.2-0.1,0.3   c-0.1,0.1-0.2,0.1-0.3,0c-2.6-1.9-2.6-5.4,0-7.2c0.1-0.1,0.2-0.1,0.3,0C15.5,39,15.6,39.1,15.6,39.2L15.6,39.2z M20.5,41.3L17,42   c-0.1,0-0.2,0-0.3-0.1c-0.1-0.1-0.1-0.1-0.1-0.2c0-1.6,0.4-3.2,0.9-4.6c0.8-1.9,1.5-3.2,2.8-4.8c0.1-0.1,0.1-0.1,0.2-0.1h3.8   c0.2,0,0.3,0.1,0.3,0.3c0,0.2-0.1,0.3-0.2,0.3c-3.5,0.8-5.3,4.9-3.7,8.1c0,0.1,0,0.2,0,0.3C20.7,41.2,20.6,41.3,20.5,41.3   L20.5,41.3z M26.8,32.2h2.7c0.1,0,0.2,0,0.3,0.1c0.1,0.1,0.1,0.2,0,0.3l-0.2,0.5l-0.3,0.6c-0.1,0.1-0.2,0.2-0.4,0.1l-2.2-1   c-0.1-0.1-0.2-0.2-0.2-0.3C26.6,32.3,26.7,32.2,26.8,32.2L26.8,32.2z M30.2,35c0,0.1,0,0.2,0,0.3c2.1,3.3,0.2,7.6-3.4,8.6   c-1.8,0.5-3.5-0.1-4.9-1.4c-0.1-0.1-0.2-0.1-0.3-0.1l-4.7,1.1c-0.1,0-0.2,0.2-0.2,0.3c0.4,5.7,4,10.8,9.3,13.1c0,0,0,0,0.1,0   c1.6,0.3,2.9,0,4.1-1.2c0.4-0.4,1.2-1.7,1.7-1.9c0.6-0.1,1.5,1,1.7,1.3c0.7,0.9,1.9,2.5,3.3,2.1c2.4-0.7,4.5-2,6.2-3.8   c5.4-5.8,5.6-15.1,0.4-21.1c-0.1-0.1-0.1-0.1-0.2-0.1H31.7c-0.1,0-0.2,0.1-0.3,0.2L30.2,35z"/><path class="st2" d="M48.8,39.1c2.3,1.8,2.3,5,0,6.9c-0.1,0.1-0.2,0.1-0.3,0c-0.1-0.1-0.2-0.2-0.1-0.3c0.4-2.1,0.4-4.2,0-6.3   c0-0.1,0-0.2,0.1-0.3C48.6,39,48.7,39,48.8,39.1L48.8,39.1z M40.3,32.2c1.8,2.5,3.6,6.7,3.5,13.5c0,5.1-3.2,8.8-7.3,11.6   c0.1,0,0.2,0,0.3-0.1c2.4-0.7,4.5-2,6.2-3.8c5.4-5.8,5.6-15.1,0.4-21.1c-0.1-0.1-0.1-0.1-0.2-0.1H40.3z"/><path class="st4" d="M14.1,25.7c0.3-3.4,2-5.2,5.4-5.8v-2.3C19.5,7,33,2.3,40.4,9.4c3.3,3.1,3.6,6.3,3.6,10.5   c3.4,0.6,5.1,2.4,5.4,5.8h6.7c2.1,0,6,8.1-0.1,8.1c-2.5,0-4.2-0.7-6.5-1.6c-2-0.8-3.6-1.4-5.8-1.4H19.3c-1.6,0-3.4,0.9-4.9,1.5   c-2,0.8-3.9,1.5-6.1,1.5c-5.2,0-3.6-8.1-0.7-8.1H14.1z"/><path class="st2" d="M28.5,6.4c4-1.1,8.6-0.3,12,2.9c3.3,3.1,3.6,6.3,3.6,10.5c3.4,0.6,5.1,2.4,5.4,5.8h6.7c2,0,5.6,7.3,0.8,8.1   c0.5-1.2,0.6-3-1.7-4.2c-3.8-2-8.2-0.8-8.2-0.8s0.9-3.7-2.1-5.5c-3-1.9-5.2-0.5-5.2-0.5s1.3-5.2-3.3-11.5   C34.2,8.5,31.2,7.1,28.5,6.4z"/><path class="st5" d="M45.9,32.6c2.8,5.5,1.3,3.2,3.7,4.9C50.1,33.3,48.3,33.6,45.9,32.6L45.9,32.6z M29.2,18.8c-1.3,0-1.3-2,0-2   l1.7,0l0-1.4c-3.4-1.2-2.7-6.5,1.1-6.5c3.7,0,4.5,5.4,1.1,6.5l0,1.4c0.9,0,2.8-0.4,2.8,1c0,1.4-1.9,1-2.8,1l0.1,7.7   c2.9,0.8,2.8-3.4,2.4-4.4c-0.5-1.2,1.4-1.9,1.9-0.7c0,0,1.3,2.9-0.6,5.5c-1.6,2.2-3.7,1.7-4.7,1.4c-0.9,0.4-3.1,0.9-4.7-1.4   c-2-2.8-0.9-6.7,0.7-6.1c1.9,0.8-0.9,2.4,0.9,5c0.6,0.9,1.5,0.9,2,0.7l-0.1-7.6L29.2,18.8L29.2,18.8z M32.8,11.3   c-1.8-1.8-3.4,2.3-0.9,2.3C33.1,13.6,33.6,12.1,32.8,11.3L32.8,11.3z M51.2,39.2c2.5,3.5,0.4,7.7-3.3,9.3   c-5.4,15-26.4,15.1-31.9,0.1c-3.8-1.4-6.1-5.7-3.6-9.2c-0.5-1.7-0.4-3.2-0.2-4.4C-0.3,38.4,2,24,7.5,24h5.1   c0.5-2.6,2.6-4.7,5.2-5.5c0-18.9,27.9-18.9,27.9,0c2.6,0.7,4.6,2.8,5.2,5.5c4.3,0,7.5-1,9.5,4.4c2.3,6.5-3.2,8.3-9,6.4   C51.6,35.8,51.7,37.4,51.2,39.2L51.2,39.2z M14,37.6c3.6-2.6,0.4,1.1,3.7-4.5l0.2-0.4l-3.5,1.4C14.2,34.6,13.8,35.9,14,37.6   L14,37.6z M43.7,30.5H19.3c-3.2,0-6.6,3-11.1,3C3.4,33.5,5,26,7.5,26h6.9c0.2-3.6,1.9-5.3,5.4-5.8v-2.5c0-10.5,13.2-15,20.4-8.1   c3.3,3.2,3.5,6.3,3.5,10.6c3.5,0.6,5.2,2.3,5.4,5.8h6.9c1.7,0,5.6,7.5-0.1,7.5C50.7,33.5,48.8,30.5,43.7,30.5L43.7,30.5z    M26.1,56.5c-5.1-2.2-8.7-7.1-9.1-12.8l4.7-1.1c5,4.8,12.3-1.9,8.8-7.6l1.2-2.6h11.6c7.1,8.2,3.4,21.6-6.5,24.4   c-1.2,0.3-2.2-1.1-3-2C30.3,50.5,31.4,57.6,26.1,56.5L26.1,56.5z M33.5,57.6L32.1,56c-0.3,0.5-0.9,1.1-1.7,1.6L33.5,57.6L33.5,57.6   z M34.1,39.3c0.2,1.4,3.7,3.3,5.2,0.8c1.6-2.5,0.1-5,0.1-5C38.9,36.8,36.1,39.2,34.1,39.3L34.1,39.3z M28.2,35.4   c-3.1-3.1-8.1,1.1-5.7,5.1c1.9,3.2,6.9,1.7,6.9-2.2C29.4,37.2,29,36.1,28.2,35.4L28.2,35.4z M29.3,33l0.2-0.5c-0.9,0-1.8,0-2.7,0   c0.8,0.3,1.6,0.4,2.2,1C29.1,33.3,29.2,33.1,29.3,33L29.3,33z M17.9,37.2c-0.5,1.4-0.9,3-0.9,4.5l3.5-0.7c-1.6-3.3,0.2-7.7,3.9-8.5   h-3.8C19.3,34.1,18.7,35.3,17.9,37.2L17.9,37.2z M32.6,51.4c0.7-1.4,1.9-4.3,3.9-1.5c4.7,6.7,8.2-3.3,3.9-4.1   c-2.8-0.5-2.9,3.3-0.5,2c0.6-0.3,0.5,1.6,0.3,1.9c-1.2,2.4-2.1-3.5-5.7-2.9c-1.3,0.2-2.2,1.2-2.8,2.1c-0.6-0.9-1.6-1.8-2.9-2   c-2-0.3-2.7,0.8-3.6,2.1C23.1,52,22.9,49,23,48.6c0.3-1.5,0.9,0.2,1.9-0.7c1.2-1.2-0.9-2.2-2-2c-4.3,1-0.6,10.8,4,4   c1.8-2.7,3.3-0.2,3.9,1.3C31,52.1,32.2,52.2,32.6,51.4L32.6,51.4z M48.6,39.3c0.4,2.1,0.4,4.3,0,6.4C50.8,44,50.8,41,48.6,39.3   L48.6,39.3z M15.3,45.9c-0.4-2.2-0.4-4.5,0-6.7C12.8,40.9,12.8,44.1,15.3,45.9z"/></g></svg>