<?xml version="1.0" ?><svg id="Layer_1" style="enable-background:new 0 0 64 64;" version="1.1" viewBox="0 0 64 64" xml:space="preserve" xmlns="http://www.w3.org/2000/svg" xmlns:xlink="http://www.w3.org/1999/xlink"><style type="text/css">
	.st0{fill-rule:evenodd;clip-rule:evenodd;fill:#389BDC;}
	.st1{fill-rule:evenodd;clip-rule:evenodd;fill:#FF9933;}
	.st2{fill-rule:evenodd;clip-rule:evenodd;fill:#FFFFCC;}
	.st3{fill-rule:evenodd;clip-rule:evenodd;fill:#EBD79F;}
	.st4{fill-rule:evenodd;clip-rule:evenodd;fill:#FF0000;}
	.st5{fill-rule:evenodd;clip-rule:evenodd;fill:#232E7A;}
	.st6{fill-rule:evenodd;clip-rule:evenodd;fill:#E6E6E6;}
	.st7{fill-rule:evenodd;clip-rule:evenodd;fill:#DE9800;}
	.st8{fill-rule:evenodd;clip-rule:evenodd;fill:#00FFFF;}
	.st9{fill-rule:evenodd;clip-rule:evenodd;fill:#FFCC00;}
	.st10{fill-rule:evenodd;clip-rule:evenodd;fill:#FF3399;}
	.st11{fill-rule:evenodd;clip-rule:evenodd;fill:#6666CC;}
	.st12{fill-rule:evenodd;clip-rule:evenodd;fill:#BA8E8E;}
</style><g><path class="st2" d="M39.9,16c-2.9-1.5-4.3-5.1-1.7-7.6c5.2-5.1,12.3,4.4,4.9,7.7v5.2c0,2.2,0.2,4.4,0.2,6.6c0,1.7,0,3.5-0.1,5.1   c-0.1,0.9-0.3,2.8-1.4,3c-0.5,0.1-0.9-0.1-1.3-0.4c-0.2-0.2-0.3-0.3-0.4-0.5c-0.3-0.8-0.3-2.9-0.3-3.8c-0.1-2.1-0.1-4.2,0-6.2   C39.8,22,39.9,19,39.9,16z"/><path class="st4" d="M39.9,16c-2.9-1.5-4.3-5.1-1.7-7.6c1.4-1.4,3-1.7,4.4-1.3c2.5,1.9,3.4,6.2-1.1,8.2v5.2c0,2.2,0.2,4.4,0.2,6.6   c0,1.7,0,3.5-0.1,5.1c-0.1,0.9-0.3,2.7-1.4,3c0,0,0-0.1,0-0.1c-0.3-0.8-0.3-2.9-0.3-3.8c-0.1-2.1-0.1-4.2,0-6.2   C39.8,22,39.9,19,39.9,16z"/><path class="st0" d="M16.1,46.1c-1.2,0.4-2.5,0.9-3.6,1.6c-0.2,0.1-0.3,0.1-0.5,0c-0.2-0.1-0.3-0.2-0.4-0.3L8,38.8   c-0.1-0.2,0-0.5,0.2-0.7c1.1-0.9,2.2-1.9,3.7-1.9c0.2,0,0.5,0.1,0.6,0.4l4,8.8c0.1,0.2,0.1,0.3,0,0.5   C16.4,45.9,16.2,46.1,16.1,46.1L16.1,46.1z M44,30.7v-4.8c0-0.3,0.2-0.5,0.5-0.6c0.3-0.1,0.5,0.1,0.7,0.3l1.7,3.3   c0.1,0.2,0.1,0.5-0.1,0.7c-0.6,0.5-1.1,1-1.7,1.5c-0.2,0.1-0.4,0.2-0.6,0.1C44.1,31.2,44,31,44,30.7L44,30.7z M48.3,29.3   c0.8-0.8,1.6-1.7,2.4-2.5c0.1-0.2,0.3-0.2,0.5-0.2s0.4,0.1,0.5,0.3l3.7,7.5c0.1,0.2,0.1,0.5-0.1,0.7c-0.8,0.9-1.6,1.8-2.4,2.7   c-0.1,0.1-0.3,0.2-0.5,0.2c-0.2,0-0.4-0.1-0.4-0.3L48.2,30C48,29.8,48.1,29.5,48.3,29.3L48.3,29.3z M47.5,43.4c1.4-1,2.7-2.1,4-3.2   c0.1-0.1,0.3-0.2,0.5-0.1c0.2,0,0.3,0.1,0.4,0.3l2.6,5.2c0.1,0.3,0.1,0.5-0.1,0.7c-1.3,1.1-2.5,2.1-3.9,3.1   c-0.1,0.1-0.3,0.1-0.5,0.1c-0.2,0-0.3-0.1-0.4-0.3l-2.9-5C47.2,43.9,47.3,43.5,47.5,43.4L47.5,43.4z M39.8,36   c0.5,0.5,1.2,0.8,2,0.7c0.2,0,0.5,0.1,0.6,0.3l3.4,5.9c0.2,0.3,0.1,0.6-0.2,0.8c-1.1,0.7-2.2,1.2-3.3,1.7c-0.3,0.1-0.6,0-0.8-0.3   l-4.3-7.7c-0.1-0.2-0.1-0.3,0-0.5c0.1-0.2,0.2-0.3,0.3-0.4c0.5-0.2,1.1-0.5,1.6-0.8C39.4,35.8,39.6,35.8,39.8,36L39.8,36z    M29.5,37.6l-3.3-6.4c-0.1-0.2-0.1-0.3,0-0.5c0.1-0.2,0.2-0.3,0.4-0.3l4.5-1.2c0.3-0.1,0.5,0,0.7,0.3l3.5,6.4   c0.1,0.2,0.1,0.4,0,0.5c-0.1,0.2-0.2,0.3-0.4,0.3l-4.8,1.2C29.9,38,29.7,37.9,29.5,37.6L29.5,37.6z M41.6,47.1l3.1,5.6   c0.1,0.2,0.1,0.3,0,0.5c-0.1,0.2-0.2,0.3-0.3,0.4l-5,2.3c-0.3,0.1-0.6,0-0.8-0.3l-3.6-7c-0.1-0.2-0.1-0.4,0-0.5   c0.1-0.2,0.2-0.3,0.4-0.3l5.4-0.9C41.2,46.8,41.5,46.9,41.6,47.1L41.6,47.1z M24.7,44.1c0.1,0.2,0.3,0.3,0.5,0.3   c3.6,0,4,1.4,6.9,2.2c0.2,0.1,0.5,0,0.6-0.2c0.2-0.2,0.2-0.4,0.1-0.7l-3.4-6.6c-0.1-0.2-0.3-0.3-0.6-0.3c-2.6,0.1-4.5-0.4-6.6-1.9   c-0.2-0.2-0.5-0.1-0.7,0c-0.2,0.2-0.3,0.5-0.1,0.7L24.7,44.1L24.7,44.1z M24.5,45.6l2.8,5.5c0.1,0.2,0.1,0.5-0.1,0.6   c-0.1,0.2-0.4,0.3-0.6,0.2c-1.7-0.4-3.6,0.2-5.1,1.2c-0.2,0.1-0.3,0.1-0.5,0.1c-0.2-0.1-0.3-0.2-0.4-0.3L18.1,47   c-0.1-0.2-0.1-0.4,0-0.5c0.1-0.2,0.2-0.3,0.4-0.3l5.4-0.9C24.2,45.2,24.4,45.3,24.5,45.6L24.5,45.6z M12.3,34.4L8.9,27   c-0.1-0.3,0-0.7,0.3-0.8c1.4-0.7,2.8-1.1,4.3-1.2c0.2,0,0.5,0.1,0.6,0.3L18,33c0.1,0.2,0.1,0.4,0,0.6c-0.1,0.2-0.3,0.3-0.5,0.3   c-1.5,0-3,0.4-4.4,0.9C12.8,34.8,12.5,34.7,12.3,34.4z"/><path class="st8" d="M7.4,37.4c-0.6-1.3-1.2-2.6-1.8-3.9c-0.4-1-0.9-2.2-0.7-3.3c0.2-1.4,1.3-2.3,2.5-3c0.2-0.1,0.3-0.1,0.5-0.1   c0.2,0.1,0.3,0.2,0.4,0.3l3.3,7.3c0.1,0.3,0,0.6-0.3,0.8c-1.1,0.6-2.1,1.3-3,2.1c-0.1,0.1-0.3,0.2-0.5,0.1   C7.6,37.7,7.5,37.5,7.4,37.4L7.4,37.4z M56.4,36.3l1.4,2.9c0.4,0.7,1.4,2.4,1.3,3.2c-0.1,0.5-0.5,0.8-0.9,1.1   c-0.6,0.5-1.1,0.9-1.7,1.4C56.4,45,56.2,45.1,56,45c-0.2,0-0.3-0.1-0.4-0.3l-2.7-5.3c-0.1-0.2-0.1-0.5,0.1-0.7   c0.8-0.8,1.6-1.7,2.4-2.5c0.1-0.2,0.3-0.2,0.5-0.2C56.1,36,56.3,36.1,56.4,36.3L56.4,36.3z M44.2,32.8c0.9-0.7,1.7-1.4,2.6-2.1   c0.1-0.1,0.3-0.2,0.5-0.1c0.2,0,0.3,0.1,0.4,0.3l3.8,7.6c0.1,0.2,0.1,0.5-0.1,0.7c-1.3,1.2-2.7,2.4-4.2,3.4   c-0.1,0.1-0.3,0.1-0.5,0.1c-0.2,0-0.3-0.1-0.4-0.3l-3.2-5.6C43,36.5,43,36.2,43.2,36c0.8-0.7,0.7-1.8,0.7-2.8   C44,33,44,32.9,44.2,32.8L44.2,32.8z M44.5,21.6c0.7-0.5,1.3-1.1,1.9-1.6c0.4-0.3,0.8-0.8,1.3-0.8c0.7,0.1,1,1.1,1.2,1.7   c0.6,1.4,1.1,2.8,1.8,4.1c0.1,0.2,0.1,0.5-0.1,0.6c-0.8,0.9-1.6,1.8-2.4,2.7c-0.1,0.1-0.3,0.2-0.5,0.2c-0.2,0-0.4-0.1-0.4-0.3   l-2.9-5.8C44.2,22,44.2,21.7,44.5,21.6L44.5,21.6z M38.8,35.2c-0.6,0.3-1.2,0.6-1.8,0.8c-0.3,0.1-0.6,0-0.8-0.3l-3.6-6.4   c-0.1-0.1-0.1-0.3,0-0.5c0-0.2,0.1-0.3,0.3-0.4l5.3-2.7c0.2-0.1,0.4-0.1,0.6,0c0.2,0.1,0.3,0.3,0.3,0.5c0,2.7-0.3,5.5,0,8.3   C39.2,34.8,39,35.1,38.8,35.2L38.8,35.2z M46.7,44.7l2.9,5.1c0.2,0.3,0.1,0.6-0.2,0.8l-3.2,2c-0.1,0.1-0.3,0.1-0.5,0.1   c-0.2,0-0.3-0.1-0.4-0.3l-3-5.4c-0.1-0.2-0.1-0.3,0-0.5c0.1-0.2,0.2-0.3,0.3-0.4c1.1-0.5,2.1-1.1,3.2-1.7c0.1-0.1,0.3-0.1,0.5-0.1   C46.5,44.4,46.6,44.5,46.7,44.7L46.7,44.7z M30.9,38.7l4.8-1.3c0.3-0.1,0.5,0,0.7,0.3l4.2,7.7c0.1,0.2,0.1,0.3,0,0.5   c-0.1,0.2-0.2,0.3-0.4,0.3c-1.6,0.5-3.9,0.8-5.6,0.8c-0.2,0-0.4-0.1-0.5-0.3l-3.6-7.1c-0.1-0.2-0.1-0.3,0-0.5   C30.6,38.8,30.7,38.7,30.9,38.7L30.9,38.7z M33.9,48c-0.1-0.2-0.3-0.3-0.5-0.3c-1.5-0.1-2.3-0.5-3.6-1.3c-1.2-0.7-2.2-1.1-3.5-1.2   c-0.2,0-0.4,0.1-0.6,0.3c-0.1,0.2-0.1,0.4,0,0.6c1.1,2.2,2.1,4.5,3.3,6.7c0.8,1.4,1.7,3,3.2,3.8c1.7,0.9,3.6,0.5,5.3,0   c0.2-0.1,0.3-0.2,0.4-0.3c0.1-0.2,0.1-0.3,0-0.5L33.9,48L33.9,48z M19.5,34.1l-4-7.8c-0.1-0.2-0.1-0.5,0.1-0.7   c0.2-0.2,0.4-0.2,0.7-0.2c4,1.6,2.6,5.4,8.4,5.2c0.2,0,0.4,0.1,0.5,0.3l3.2,6.3c0.1,0.2,0.1,0.4,0,0.6c-0.1,0.2-0.3,0.3-0.5,0.3   c-2-0.1-3.4-0.6-5.1-1.8c-1-0.7-1.9-1.4-3-1.9C19.7,34.3,19.6,34.2,19.5,34.1L19.5,34.1z M13.5,35.4c-0.2,0.1-0.3,0.2-0.3,0.3   c-0.1,0.2-0.1,0.3,0,0.5l4.1,9c0.1,0.3,0.4,0.4,0.7,0.3c1.7-0.5,3.4-0.8,5.1-1c0.2,0,0.4-0.1,0.5-0.3c0.1-0.2,0.1-0.4,0-0.6   l-4.4-8.5c-0.1-0.2-0.2-0.3-0.4-0.3C17.2,34.3,15,34.8,13.5,35.4L13.5,35.4z M20,54.3c-5.5,4.4-5.9-1-7.6-5.1   c-0.1-0.3,0-0.6,0.3-0.8c1.2-0.7,2.5-1.2,3.8-1.7c0.3-0.1,0.6,0,0.7,0.3l3,6.5C20.3,53.8,20.3,54.1,20,54.3z"/><path class="st5" d="M57.3,39.4l-1.4-2.9c-0.6,0.7-1.4,1.6-2.4,2.6l2.7,5.3C59.1,41.8,59,43,57.3,39.4L57.3,39.4z M54.9,34.6   c-0.4,0.5-1.3,1.5-2.4,2.6l-3.8-7.5c1-1,1.9-1.9,2.4-2.6L54.9,34.6L54.9,34.6z M51.9,40.6l2.6,5.2c-1.1,0.9-2.4,2-3.8,3l-2.9-5   C49.4,42.8,50.7,41.7,51.9,40.6L51.9,40.6z M46.2,45c-1,0.6-2.1,1.2-3.2,1.7l3,5.4l3.2-2L46.2,45L46.2,45z M41.1,47.4l3.1,5.6   l-5,2.3l-3.6-7L41.1,47.4L41.1,47.4z M33.4,48.3c-3.5-0.3-3.9-2.1-7.2-2.5C30.4,54,30.8,58,37.4,56L33.4,48.3L33.4,48.3z M24,45.8   l2.8,5.5c-1.9-0.4-3.9,0.2-5.6,1.3l-2.7-5.8L24,45.8L24,45.8z M16.7,47.4c-1.8,0.6-3,1.2-3.7,1.6c2,4.7,2,8.6,6.7,4.9L16.7,47.4   L16.7,47.4z M12.2,47.1c0.8-0.4,2-1,3.7-1.6l-4-8.8c-0.9,0-1.8,0.4-3.3,1.8L12.2,47.1L12.2,47.1z M17.8,44.9l-4.1-9   c1.3-0.5,3.4-1,4.9-0.6l4.4,8.5C21.1,44.2,19.3,44.5,17.8,44.9L17.8,44.9z M25.2,43.8l-3.3-6.4c1.6,1.1,3.6,2.2,7,2.1l3.4,6.6   C29.4,45.2,29,43.8,25.2,43.8L25.2,43.8z M34.7,46.4L31,39.2l4.8-1.3l4.2,7.7C38.5,46.1,36.1,46.4,34.7,46.4L34.7,46.4z M42,44.9   c1.1-0.5,2.2-1.1,3.2-1.7l-3.4-5.9c-0.9,0.1-1.8-0.3-2.4-0.9c-0.5,0.3-1.1,0.5-1.7,0.8L42,44.9L42,44.9z M46.9,42.1   c1.5-1.1,2.9-2.3,4.1-3.4l-3.8-7.6c-0.8,0.7-1.7,1.4-2.6,2.1c0,1.2,0,2.3-0.9,3.2L46.9,42.1L46.9,42.1z M50.2,25.2   c-3.5-7.1-1.3-6.2-5.3-3.2l2.9,5.8C48.9,26.7,49.8,25.7,50.2,25.2L50.2,25.2z M44.6,30.7v-4.8l1.7,3.3   C45.7,29.8,45.2,30.2,44.6,30.7L44.6,30.7z M8,37.1c-1.9-4.5-4.3-7-0.2-9.4l3.3,7.3C9.6,35.8,8.5,36.6,8,37.1L8,37.1z M12.9,34.2   c1.3-0.5,3-0.9,4.6-0.9l-3.9-7.6c-1.5,0.1-2.8,0.5-4.1,1.1L12.9,34.2L12.9,34.2z M20,33.8c2.9,1.3,3.8,3.5,7.8,3.7l-3.2-6.3   c-6.2,0.2-5.1-3.8-8.7-5.3L20,33.8L20,33.8z M30.1,37.4L26.8,31l4.5-1.2l3.5,6.4L30.1,37.4L30.1,37.4z M36.8,35.5   c0.6-0.3,1.2-0.5,1.8-0.8c-0.3-2.7,0-5.6,0-8.3l-5.3,2.7L36.8,35.5L36.8,35.5z M44.6,16.9v2.8c5.8-4.6,2.3-3.6,15.3,20.3   c1.6,3,0,3.7-2.3,5.8c-4.5,4.1-11.2,8.9-17.4,11.3c-13.5,5.2-8.9-5.5-15.8-3.8c-5,1.3-8.1,8.8-11.7,0.3C11.2,50,3.2,32.7,3.5,29.7   c0.4-3.7,7.3-6.1,10.7-6.1c7.4,0,5.1,12.3,24.3,0.4v-7.2c-7.8-4.5,0.9-15.9,7.5-9.5C48.9,10.2,48.1,15.1,44.6,16.9L44.6,16.9z    M42.6,21.2v-5.6c7.2-2.8,0.7-11.4-3.9-6.9c-2.5,2.4-0.8,5.6,1.8,6.8c0,2.8-0.4,17.5,0.2,19.3c0,0.1,0.1,0.2,0.2,0.3   C43.7,37.6,42.6,24.9,42.6,21.2z"/></g></svg>