<?xml version="1.0" ?><svg id="Layer_1" style="enable-background:new 0 0 64 64;" version="1.1" viewBox="0 0 64 64" xml:space="preserve" xmlns="http://www.w3.org/2000/svg" xmlns:xlink="http://www.w3.org/1999/xlink"><style type="text/css">
	.st0{fill-rule:evenodd;clip-rule:evenodd;fill:#389BDC;}
	.st1{fill-rule:evenodd;clip-rule:evenodd;fill:#FF9933;}
	.st2{fill-rule:evenodd;clip-rule:evenodd;fill:#FFFFCC;}
	.st3{fill-rule:evenodd;clip-rule:evenodd;fill:#EBD79F;}
	.st4{fill-rule:evenodd;clip-rule:evenodd;fill:#FF0000;}
	.st5{fill-rule:evenodd;clip-rule:evenodd;fill:#232E7A;}
	.st6{fill-rule:evenodd;clip-rule:evenodd;fill:#E6E6E6;}
	.st7{fill-rule:evenodd;clip-rule:evenodd;fill:#DE9800;}
	.st8{fill-rule:evenodd;clip-rule:evenodd;fill:#00FFFF;}
	.st9{fill-rule:evenodd;clip-rule:evenodd;fill:#FFCC00;}
	.st10{fill-rule:evenodd;clip-rule:evenodd;fill:#FF3399;}
	.st11{fill-rule:evenodd;clip-rule:evenodd;fill:#6666CC;}
	.st12{fill-rule:evenodd;clip-rule:evenodd;fill:#BA8E8E;}
</style><g><path class="st4" d="M29.5,38.7c0.3-1.3,0.2-2.7,0.3-4c0.1-0.8-1.1-0.8-1.2-0.1c-0.1,0.9-0.4,3.3-0.2,4.1c0,0.1,0,0.2-0.1,0.3   c-0.1,0.1-0.2,0.2-0.3,0.2h-1.6c-0.1,0-0.2,0-0.3-0.1c-0.1-0.1-0.1-0.2-0.1-0.3l0.4-5.4c0-0.2,0.2-0.4,0.4-0.4h11.1   c0.2,0,0.4,0.2,0.4,0.4l0.4,5.4c0,0.1,0,0.2-0.1,0.3c-0.1,0.1-0.2,0.1-0.3,0.1h-8.4c-0.1,0-0.2-0.1-0.3-0.2   C29.5,38.9,29.5,38.8,29.5,38.7L29.5,38.7z M32.3,18.9c-1.7,0-1.2,2.8-1.2,3.9c0,0.2-0.2,0.4-0.4,0.4h-3.1c-0.1,0-0.2,0-0.3-0.1   c-0.1-0.1-0.1-0.2-0.1-0.3l0.5-6c0-0.2,0.2-0.4,0.4-0.4h8.7c0.2,0,0.4,0.2,0.4,0.4l0.4,6c0,0.1,0,0.2-0.1,0.3   c-0.1,0.1-0.2,0.1-0.3,0.1h-3.2c-0.2,0-0.4-0.2-0.4-0.4C33.5,21.7,34.1,18.9,32.3,18.9z"/><path class="st8" d="M25.3,46.7l0.5-6c0-0.2,0.2-0.4,0.4-0.4h12.2c0.2,0,0.4,0.2,0.4,0.4l0.4,6c0,0.1,0,0.2-0.1,0.3   c-0.1,0.1-0.2,0.1-0.3,0.1H25.7c-0.1,0-0.2,0-0.3-0.1C25.3,47,25.3,46.9,25.3,46.7L25.3,46.7z M27.8,14.8c0-1.4-0.2-4.1,0.7-5.2   c1.1-1.3,4-1.2,5.4-1.2c3.7,0,3.4,3.8,3.4,6.4c0,0.2-0.2,0.4-0.4,0.4l-8.8,0C27.9,15.2,27.8,15,27.8,14.8L27.8,14.8z M26.5,31.3   l0.5-6.6c0-0.2,0.2-0.4,0.4-0.4h9.9c0.2,0,0.4,0.2,0.4,0.4l0.5,6.6c0,0.1,0,0.2-0.1,0.3c-0.1,0.1-0.2,0.1-0.3,0.1H26.9   c-0.1,0-0.2,0-0.3-0.1C26.5,31.6,26.5,31.5,26.5,31.3L26.5,31.3z M28.1,42.2c0,0.6-0.7,3.9,0.3,3.9c1,0.1,0.8-3.2,0.9-3.9   C29.3,41.5,28.1,41.4,28.1,42.2L28.1,42.2z M33.2,10.1c-1.1-0.1-2.4,0.1-3.2,1c-0.3,0.3-0.8,1.1-0.5,1.6c0.1,0.1,0.3,0.2,0.4,0.2   c0.1,0,0.3,0,0.4,0c0.1-0.1,0.3-0.7,0.6-0.9c0.5-0.6,1.5-0.7,2.2-0.6C33.9,11.3,34,10.1,33.2,10.1L33.2,10.1z M30.4,26.6   c0.1-0.8-1.1-0.8-1.2-0.1c0,0.7-0.8,4.2,0.3,4.3C30.5,30.9,30.3,27.3,30.4,26.6z"/><path class="st2" d="M34.2,40.4h4.1c0.2,0,0.4,0.2,0.4,0.4l0.4,6c0,0.1,0,0.2-0.1,0.3c-0.1,0.1-0.2,0.1-0.3,0.1h-4.4L34.2,40.4   L34.2,40.4z M33.3,8.4l0.1,1.7c0.6,0.1,0.5,1,0,1.2l0.1,3.9l3.4,0c0.2,0,0.4-0.2,0.4-0.4c0-2.6,0.3-6.4-3.4-6.4L33.3,8.4L33.3,8.4z    M33.8,24.4l0.2,7.4h3.8c0.1,0,0.2,0,0.3-0.1c0.1-0.1,0.1-0.2,0.1-0.3l-0.5-6.6c0-0.2-0.2-0.4-0.4-0.4H33.8z"/><path class="st5" d="M25.2,52.8c-0.1,1.3-2.1,1.1-2-0.2l2.2-27.8c-1,0-4,0.5-4-1c0-1.5,3.2-1,4.2-1l0.5-6c-0.9,0-2.8,0.4-2.8-1   c0-1.4,2.1-1,2.9-1c0-2.8-0.2-8,5.1-8c0-1-0.5-4,1-4s1,3,1,4c6.1,0,5.7,4.7,5.7,8c0.8,0,2.3-0.2,2.3,1c0,1.3-1.6,1-2.5,1l0.4,6   c1.1,0,4.5-0.6,4.5,1c0,1.5-3.4,1-4.4,1l1.9,28c0.1,1.3-1.9,1.4-2,0.1l-0.3-4.1H25.5L25.2,52.8L25.2,52.8z M30.7,22.8   c0-1.4-0.5-4.3,1.6-4.3c2.1,0,1.6,2.9,1.6,4.3h3.2l-0.4-6h-8.7l-0.5,6H30.7L30.7,22.8z M4.7,57.7c-1.1,0.6-2-1.2-0.9-1.8   c6.1-3,6.3,3.9,11.8,3.2c1.3-0.1,1.5,1.8,0.2,2C9.9,61.9,8.9,55.6,4.7,57.7L4.7,57.7z M48.7,57.7c-1.1,0.6-2-1.2-0.9-1.8   c6.1-3,6.3,3.9,11.8,3.2c1.3-0.1,1.5,1.8,0.2,2C53.9,61.9,53,55.6,48.7,57.7L48.7,57.7z M39.9,57.7c4.3-2.1,5.2,4.1,11.2,3.4   c1.3-0.1,1.1-2.1-0.2-2c-5.5,0.6-5.7-6.3-11.8-3.2C37.9,56.5,38.8,58.3,39.9,57.7L39.9,57.7z M31.1,57.7c4.3-2.1,5.2,4.1,11.2,3.4   c1.3-0.1,1.1-2.1-0.2-2c-5.5,0.6-5.7-6.3-11.8-3.2C29.1,56.5,30,58.3,31.1,57.7L31.1,57.7z M22.3,57.7c4.3-2.1,5.2,4.1,11.2,3.4   c1.3-0.1,1.1-2.1-0.2-2c-5.5,0.6-5.7-6.3-11.8-3.2C20.3,56.5,21.1,58.3,22.3,57.7L22.3,57.7z M13.5,57.7c4.3-2.1,5.2,4.1,11.2,3.4   c1.3-0.1,1.1-2.1-0.2-2c-5.5,0.6-5.7-6.3-11.8-3.2C11.4,56.5,12.3,58.3,13.5,57.7L13.5,57.7z M33.3,9.7c-4-0.3-5.3,3.2-3.4,3.6   c1.6,0.3,0.3-1.8,3.2-1.6C34.4,11.8,34.6,9.8,33.3,9.7L33.3,9.7z M28.8,26.5c-0.1,1.2-0.9,4.6,0.7,4.7c1.5,0.1,1.3-3.3,1.3-4.5   C30.9,25.4,28.9,25.2,28.8,26.5L28.8,26.5z M28.2,34.5c0.1-1.3,2.1-1.2,2,0.1c-0.1,1.3,0,2.8-0.3,4.1h8.4l-0.4-5.4H26.8l-0.4,5.4   H28C27.8,38,28.1,35.5,28.2,34.5L28.2,34.5z M27.7,42.2c-0.1,1-0.8,4.3,0.7,4.4c1.5,0.1,1.2-3.2,1.3-4.2   C29.8,41,27.8,40.9,27.7,42.2L27.7,42.2z M27.2,50c-0.1,1-0.8,3.9,0.7,4c1.5,0.1,1.2-2.9,1.3-3.9C29.2,48.8,27.3,48.7,27.2,50   L27.2,50z M45.1,20.3c-1.2-0.6-0.3-2.4,0.9-1.8l11,5.3c1.2,0.6,0.3,2.4-0.9,1.8L45.1,20.3L45.1,20.3z M45.8,15.2c-1.3,0-1.3-2,0-2   h10.7c1.3,0,1.3,2,0,2H45.8L45.8,15.2z M46,10.1c-1.2,0.6-2-1.2-0.9-1.8L56,3c1.2-0.6,2,1.2,0.9,1.8L46,10.1L46,10.1z M18.7,18.5   c1.2-0.6,2,1.2,0.9,1.8l-11,5.3c-1.2,0.6-2-1.2-0.9-1.8L18.7,18.5L18.7,18.5z M19,13.1c1.3,0,1.3,2,0,2H8.2c-1.3,0-1.3-2,0-2H19   L19,13.1z M19.6,9.1c1.2,0.6,0.3,2.4-0.9,1.8l-11-5.3C6.6,5,7.5,3.2,8.7,3.8L19.6,9.1L19.6,9.1z M26.9,31.4h10.8l-0.5-6.6h-9.9   L26.9,31.4L26.9,31.4z M38.4,40.8H26.2l-0.5,6h13.1L38.4,40.8L38.4,40.8z M28.2,14.8l8.8,0c0-2.3,0.4-6-3-6   C27.8,8.8,28.2,9.6,28.2,14.8z"/></g></svg>