<?xml version="1.0" ?><svg id="Layer_1" style="enable-background:new 0 0 64 64;" version="1.1" viewBox="0 0 64 64" xml:space="preserve" xmlns="http://www.w3.org/2000/svg" xmlns:xlink="http://www.w3.org/1999/xlink"><style type="text/css">
	.st0{fill-rule:evenodd;clip-rule:evenodd;fill:#389BDC;}
	.st1{fill-rule:evenodd;clip-rule:evenodd;fill:#FF9933;}
	.st2{fill-rule:evenodd;clip-rule:evenodd;fill:#FFFFCC;}
	.st3{fill-rule:evenodd;clip-rule:evenodd;fill:#EBD79F;}
	.st4{fill-rule:evenodd;clip-rule:evenodd;fill:#FF0000;}
	.st5{fill-rule:evenodd;clip-rule:evenodd;fill:#232E7A;}
	.st6{fill-rule:evenodd;clip-rule:evenodd;fill:#E6E6E6;}
	.st7{fill-rule:evenodd;clip-rule:evenodd;fill:#DE9800;}
	.st8{fill-rule:evenodd;clip-rule:evenodd;fill:#00FFFF;}
	.st9{fill-rule:evenodd;clip-rule:evenodd;fill:#FFCC00;}
	.st10{fill-rule:evenodd;clip-rule:evenodd;fill:#FF3399;}
	.st11{fill-rule:evenodd;clip-rule:evenodd;fill:#6666CC;}
	.st12{fill-rule:evenodd;clip-rule:evenodd;fill:#BA8E8E;}
</style><g><path class="st2" d="M48.1,16.4c8.6,8.3,8.6,22.4,0,30.7c-8.6,8.2-22.6,8.3-31.5,0.6c-4.7-4.1-7.3-9.7-7.3-15.9   c0-6.2,2.5-11.9,7.3-15.9C25.5,8.1,39.5,8.2,48.1,16.4L48.1,16.4z M52.9,16.5c-2.9,1.6-0.3,5.2,2,4.7c0.9-0.2,1.3-0.9,1.5-1.7   C57,17.5,54.8,15.5,52.9,16.5L52.9,16.5z M56.5,29.5C56.5,29.5,56.5,29.5,56.5,29.5c-2.2,2.2,1,6,3.3,3.7   C61.9,31,58.8,27.3,56.5,29.5L56.5,29.5z M54.2,42.3c-3,0.8-2.2,5.7,1,4.8C58.2,46.3,57.4,41.4,54.2,42.3L54.2,42.3z M46.6,51.5   c-3-0.7-4.6,4-1.4,4.7C48.2,56.9,49.8,52.2,46.6,51.5L46.6,51.5z M33.7,56.3C33.7,56.3,33.7,56.3,33.7,56.3c-2.2-2.3-6,0.9-3.8,3.2   C32.1,61.7,35.9,58.6,33.7,56.3L33.7,56.3z M21.3,53.9c-0.8-3-5.7-2.2-4.8,1C17.3,57.9,22.2,57.1,21.3,53.9L21.3,53.9z M11,44.6   C11,44.6,11,44.6,11,44.6c1-3-3.5-5-4.6-1.9C5.5,45.7,9.9,47.6,11,44.6L11,44.6z M7.5,34C7.5,34,7.5,34,7.5,34c2.2-2.2-1-6-3.3-3.7   C2.1,32.5,5.2,36.3,7.5,34L7.5,34z M9.9,21.1c3-0.8,2.2-5.7-1-4.8C5.9,17,6.7,21.9,9.9,21.1L9.9,21.1z M17.9,11.7   c3,0.8,4.7-3.9,1.5-4.7C16.4,6.2,14.7,10.8,17.9,11.7L17.9,11.7z M29.4,7.7C29.4,7.8,29.4,7.8,29.4,7.7c2.3,2.2,6-1.1,3.6-3.3   C30.8,2.3,27.1,5.5,29.4,7.7L29.4,7.7z M42.3,10c0.8,3,5.7,2.2,4.8-1C46.4,6,41.5,6.8,42.3,10L42.3,10z M18.2,23.7   c-4.6,8.5-1.7,18.7,7.5,22.3c18.7,7.3,31.9-18.7,13.8-27.9C32.2,14.3,22.7,16.7,18.2,23.7L18.2,23.7z M20.3,23   c-0.3-0.1-0.6-0.1-0.8,0.2c-0.2,0.3-0.5,0.6-0.7,1c-0.2,0.3-0.4,0.6-0.5,0.9c-0.2,0.3,0,0.6,0.2,0.8c1,0.5,5.8,2.7,6.1,3.6   c-0.2,0.5-3,0.6-3.5,0.6c-1.3,0-2.6-0.1-3.9-0.1c-0.3,0-0.6,0.3-0.6,0.6l0,2.1c0,0.2,0.1,0.3,0.2,0.4c0.1,0.1,0.3,0.2,0.4,0.2   c1,0,6-0.6,6.6,0.1c0.2,0.5-2.2,1.8-2.5,2c-1,0.6-2.1,1-3.1,1.5C18.1,37,18,37.2,18,37.3c0,0.2,0,0.3,0.1,0.5l1.1,1.9   c0.2,0.3,0.5,0.4,0.8,0.2c1-0.6,5.7-3.6,6.6-3.4c0.3,0.5-1.1,2.9-1.3,3.3c-0.7,1.1-1.5,2.2-2.1,3.2C23,43.1,23,43.3,23,43.5   c0,0.2,0.1,0.3,0.3,0.4l1.9,1c0.3,0.2,0.6,0.1,0.8-0.2c0.6-1,3-5.9,3.9-6.2c0.5,0,0.6,3.1,0.6,3.4c0,1.3-0.2,2.6-0.2,3.8   c0,0.3,0.3,0.6,0.6,0.6l2.1,0c0.2,0,0.3-0.1,0.4-0.2c0.1-0.1,0.2-0.3,0.2-0.4c0-1.1-0.4-6.5,0.2-7.2c0.6-0.1,2,2.3,2.2,2.7   c0.6,1.1,1.2,2.3,1.8,3.4c0.2,0.3,0.5,0.4,0.8,0.2l1.9-1c0.1-0.1,0.2-0.2,0.3-0.4c0-0.2,0-0.3-0.1-0.5c-0.6-1-3.8-5.6-3.6-6.5   c0.4-0.4,3,1,3.4,1.3c1.2,0.7,2.3,1.5,3.4,2.1c0.3,0.2,0.6,0.1,0.8-0.2l1.1-1.9c0.1-0.1,0.1-0.3,0.1-0.5c0-0.2-0.1-0.3-0.3-0.4   c-1-0.6-6.2-3-6.5-3.9c0.2-0.5,3.1-0.6,3.6-0.6c1.3,0,2.7,0.1,4,0.1c0.2,0,0.3-0.1,0.4-0.2c0.1-0.1,0.2-0.3,0.2-0.4l-0.1-2.1   c0-0.3-0.3-0.6-0.6-0.6c-1,0-6,0.6-6.6-0.1c-0.2-0.5,2.1-1.8,2.4-1.9c1-0.5,2.1-1,3-1.5c0.2-0.1,0.3-0.2,0.3-0.4   c0-0.2,0-0.3-0.1-0.5l-1.2-1.8c-0.2-0.3-0.5-0.4-0.8-0.2c-1,0.5-5.4,3.5-6.3,3.2c-0.4-0.3,1-2.7,1.2-3c0.6-1,1.4-2,2-3   c0.1-0.1,0.1-0.3,0.1-0.5c0-0.2-0.1-0.3-0.3-0.4l-1.9-1c-0.3-0.1-0.6,0-0.8,0.2C37,19.5,34.8,24,34,24.2c-0.2,0-0.4-0.2-0.4-0.4v-6   c0-0.2-0.1-0.3-0.2-0.4c-0.1-0.1-0.3-0.2-0.4-0.2l-2.1,0c-0.3,0-0.6,0.3-0.6,0.6c0,1,0.4,5.8-0.2,6.4c-0.4,0.3-1.9-2.1-2-2.4   c-0.6-1-1-2.1-1.6-3.1c-0.2-0.3-0.5-0.4-0.8-0.2l-1.9,1c-0.2,0.1-0.3,0.2-0.3,0.4c0,0.2,0,0.3,0.1,0.5c0.5,0.9,3.4,5,3.2,5.8   c-0.3,0.5-2.9-0.9-3.2-1.1C22.4,24.3,21.4,23.6,20.3,23L20.3,23z M32,28.5c-4.3,0-4.3,6.4,0,6.4S36.3,28.5,32,28.5L32,28.5z    M15.1,22.5c2.1-3.4,4.9-5.6,8.6-7c1.1-0.4,2.3-0.7,3.4-1.1c0.2-0.1,1.2-0.4,1.2-0.6c0-0.1,0-0.1-0.1-0.2c-0.5-0.7-3.1,0.2-3.7,0.5   c-2.4,0.9-4.8,2.4-6.7,4.1c-1.3,1.1-2.5,2.4-3.4,3.9C14.2,22.5,14.8,23,15.1,22.5L15.1,22.5z M14.3,39.7c-2.1-4.2-2.6-9.1-1.1-13.5   c0-0.1,0.1-0.4-0.1-0.5c-0.3-0.2-0.8,0.6-0.9,0.8c-0.9,1.7-0.8,4.7-0.6,6.6c0.2,1.9,0.5,4.9,1.7,6.4c0.1,0.2,0.8,0.9,1,0.7   C14.4,40.1,14.4,39.8,14.3,39.7L14.3,39.7z M15.8,43.3c0.6,0.8,1.6,2,2.5,2.4c0.1,0,0.5,0.2,0.6,0.1c0.1-0.1,0-0.6-0.2-0.6   c-0.1,0-0.3-0.1-0.4-0.2l-1.9-2.2C16.1,42.4,15.5,42.9,15.8,43.3L15.8,43.3z M21.9,48.1c0.4,0.2,3.2,1.9,3.5,1.1   c0.3-0.6-2.7-1.6-3-1.8C21.9,47.2,21.4,47.9,21.9,48.1z"/><path class="st7" d="M32.1,53.4c-5.6,0-11.2-1.9-15.6-5.7c-4.7-4.1-7.3-9.7-7.3-15.9c0-6.2,2.5-11.9,7.3-15.9   c2.9-2.4,6.2-4.1,9.7-5c0.8-0.1,1.5-0.1,2.3-0.1c12.4,0,22.5,9.6,22.5,21.5C51.1,42.9,42.9,51.7,32.1,53.4L32.1,53.4z M10.7,45.2   c0.1-0.2,0.2-0.4,0.3-0.6c0,0,0,0,0-0.1c0.7-2-1.3-3.6-2.9-3.3C8.8,42.6,9.7,44,10.7,45.2L10.7,45.2z M6.2,34.7   C6.1,33.9,6,33,6,32.2c0-0.9,0.1-1.7,0.2-2.5C7.9,30,9.1,32.4,7.5,34c0,0,0,0-0.1,0C7.1,34.4,6.6,34.6,6.2,34.7L6.2,34.7z    M9.2,21.2c0.2,0,0.4,0,0.7-0.1c1.5-0.4,2.1-1.9,1.8-3.1C10.8,19,10,20,9.2,21.2L9.2,21.2z M18.2,23.7c-4.6,8.5-1.7,18.7,7.5,22.3   c18.7,7.3,31.9-18.7,13.8-27.9C32.2,14.3,22.7,16.7,18.2,23.7L18.2,23.7z M20.3,23c-0.3-0.1-0.6-0.1-0.8,0.2   c-0.2,0.3-0.5,0.6-0.7,1c-0.2,0.3-0.4,0.6-0.5,0.9c-0.2,0.3,0,0.6,0.2,0.8c1,0.5,5.8,2.7,6.1,3.6c-0.2,0.5-3,0.6-3.5,0.6   c-1.3,0-2.6-0.1-3.9-0.1c-0.3,0-0.6,0.3-0.6,0.6l0,2.1c0,0.2,0.1,0.3,0.2,0.4c0.1,0.1,0.3,0.2,0.4,0.2c1,0,6-0.6,6.6,0.1   c0.2,0.5-2.2,1.8-2.5,2c-1,0.6-2.1,1-3.1,1.5C18.1,37,18,37.2,18,37.3c0,0.2,0,0.3,0.1,0.5l1.1,1.9c0.2,0.3,0.5,0.4,0.8,0.2   c1-0.6,5.7-3.6,6.6-3.4c0.3,0.5-1.1,2.9-1.3,3.3c-0.7,1.1-1.5,2.2-2.1,3.2C23,43.1,23,43.3,23,43.5c0,0.2,0.1,0.3,0.3,0.4l1.9,1   c0.3,0.2,0.6,0.1,0.8-0.2c0.6-1,3-5.9,3.9-6.2c0.5,0,0.6,3.1,0.6,3.4c0,1.3-0.2,2.6-0.2,3.8c0,0.3,0.3,0.6,0.6,0.6l2.1,0   c0.2,0,0.3-0.1,0.4-0.2c0.1-0.1,0.2-0.3,0.2-0.4c0-1.1-0.4-6.5,0.2-7.2c0.6-0.1,2,2.3,2.2,2.7c0.6,1.1,1.2,2.3,1.8,3.4   c0.2,0.3,0.5,0.4,0.8,0.2l1.9-1c0.1-0.1,0.2-0.2,0.3-0.4c0-0.2,0-0.3-0.1-0.5c-0.6-1-3.8-5.6-3.6-6.5c0.4-0.4,3,1,3.4,1.3   c1.2,0.7,2.3,1.5,3.4,2.1c0.3,0.2,0.6,0.1,0.8-0.2l1.1-1.9c0.1-0.1,0.1-0.3,0.1-0.5c0-0.2-0.1-0.3-0.3-0.4c-1-0.6-6.2-3-6.5-3.9   c0.2-0.5,3.1-0.6,3.6-0.6c1.3,0,2.7,0.1,4,0.1c0.2,0,0.3-0.1,0.4-0.2c0.1-0.1,0.2-0.3,0.2-0.4l-0.1-2.1c0-0.3-0.3-0.6-0.6-0.6   c-1,0-6,0.6-6.6-0.1c-0.2-0.5,2.1-1.8,2.4-1.9c1-0.5,2.1-1,3-1.5c0.2-0.1,0.3-0.2,0.3-0.4c0-0.2,0-0.3-0.1-0.5l-1.2-1.8   c-0.2-0.3-0.5-0.4-0.8-0.2c-1,0.5-5.4,3.5-6.3,3.2c-0.4-0.3,1-2.7,1.2-3c0.6-1,1.4-2,2-3c0.1-0.1,0.1-0.3,0.1-0.5   c0-0.2-0.1-0.3-0.3-0.4l-1.9-1c-0.3-0.1-0.6,0-0.8,0.2C37,19.5,34.8,24,34,24.2c-0.2,0-0.4-0.2-0.4-0.4v-6c0-0.2-0.1-0.3-0.2-0.4   c-0.1-0.1-0.3-0.2-0.4-0.2l-2.1,0c-0.3,0-0.6,0.3-0.6,0.6c0,1,0.4,5.8-0.2,6.4c-0.4,0.3-1.9-2.1-2-2.4c-0.6-1-1-2.1-1.6-3.1   c-0.2-0.3-0.5-0.4-0.8-0.2l-1.9,1c-0.2,0.1-0.3,0.2-0.3,0.4c0,0.2,0,0.3,0.1,0.5c0.5,0.9,3.4,5,3.2,5.8c-0.3,0.5-2.9-0.9-3.2-1.1   C22.4,24.3,21.4,23.6,20.3,23L20.3,23z M32,28.5c-4.3,0-4.3,6.4,0,6.4S36.3,28.5,32,28.5L32,28.5z M15.1,22.5   c2.1-3.4,4.9-5.6,8.6-7c1.1-0.4,2.3-0.7,3.4-1.1c0.2-0.1,1.2-0.4,1.2-0.6c0-0.1,0-0.1-0.1-0.2c-0.5-0.7-3.1,0.2-3.7,0.5   c-2.4,0.9-4.8,2.4-6.7,4.1c-1.3,1.1-2.5,2.4-3.4,3.9C14.2,22.5,14.8,23,15.1,22.5L15.1,22.5z M14.3,39.7c-2.1-4.2-2.6-9.1-1.1-13.5   c0-0.1,0.1-0.4-0.1-0.5c-0.3-0.2-0.8,0.6-0.9,0.8c-0.9,1.7-0.8,4.7-0.6,6.6c0.2,1.9,0.5,4.9,1.7,6.4c0.1,0.2,0.8,0.9,1,0.7   C14.4,40.1,14.4,39.8,14.3,39.7L14.3,39.7z M15.8,43.3c0.6,0.8,1.6,2,2.5,2.4c0.1,0,0.5,0.2,0.6,0.1c0.1-0.1,0-0.6-0.2-0.6   c-0.1,0-0.3-0.1-0.4-0.2l-1.9-2.2C16.1,42.4,15.5,42.9,15.8,43.3L15.8,43.3z M21.9,48.1c0.4,0.2,3.2,1.9,3.5,1.1   c0.3-0.6-2.7-1.6-3-1.8C21.9,47.2,21.4,47.9,21.9,48.1z"/><path class="st9" d="M29.4,7.7c-2.3-2.3,1.4-5.5,3.6-3.3C35.4,6.7,31.7,9.9,29.4,7.7C29.4,7.8,29.4,7.8,29.4,7.7L29.4,7.7z    M19.4,6.9c3.2,0.8,1.5,5.5-1.5,4.7C14.7,10.8,16.4,6.2,19.4,6.9L19.4,6.9z M8.9,16.2c3.2-0.8,4,4.1,1,4.8   C6.7,21.9,5.9,17,8.9,16.2L8.9,16.2z M7.5,34c-2.3,2.2-5.4-1.5-3.3-3.7C6.5,28,9.7,31.8,7.5,34C7.5,34,7.5,34,7.5,34L7.5,34z    M11,44.6c-1.1,3-5.5,1-4.6-1.9C7.5,39.6,12,41.6,11,44.6C11,44.6,11,44.6,11,44.6L11,44.6z M16.5,54.9c-0.8-3.2,4.1-4,4.8-1   C22.2,57.1,17.3,57.9,16.5,54.9L16.5,54.9z M33.7,56.3c2.2,2.3-1.6,5.4-3.8,3.2C27.7,57.2,31.5,54,33.7,56.3   C33.7,56.3,33.7,56.3,33.7,56.3L33.7,56.3z M45.2,56.2c-3.2-0.8-1.6-5.4,1.4-4.7C49.8,52.2,48.2,56.9,45.2,56.2L45.2,56.2z    M55.2,47.1c-3.2,0.8-4-4-1-4.8C57.4,41.4,58.2,46.3,55.2,47.1L55.2,47.1z M56.5,29.5c2.3-2.2,5.4,1.5,3.3,3.7   C57.5,35.5,54.3,31.7,56.5,29.5C56.5,29.5,56.5,29.5,56.5,29.5L56.5,29.5z M52.9,16.5c1.9-1.1,4.1,1,3.6,3   c-0.2,0.8-0.7,1.5-1.5,1.7C52.6,21.7,50,18.1,52.9,16.5L52.9,16.5z M42.3,10c-0.8-3.2,4-4,4.8-1C48,12.2,43.1,13,42.3,10L42.3,10z    M20.3,23c1.1,0.6,2.1,1.3,3.1,1.9c0.3,0.2,2.9,1.6,3.2,1.1c0.2-0.8-2.7-4.9-3.2-5.8c-0.1-0.1-0.1-0.3-0.1-0.5   c0-0.2,0.1-0.3,0.3-0.4l1.9-1c0.3-0.1,0.6,0,0.8,0.2c0.6,1,1,2.1,1.6,3.1c0.2,0.3,1.6,2.6,2,2.4c0.6-0.6,0.2-5.4,0.2-6.4   c0-0.3,0.3-0.6,0.6-0.6l2.1,0c0.2,0,0.3,0.1,0.4,0.2c0.1,0.1,0.2,0.3,0.2,0.4v6c0,0.2,0.2,0.4,0.4,0.4c0.9-0.2,3-4.7,3.5-5.6   c0.2-0.3,0.5-0.4,0.8-0.2l1.9,1c0.2,0.1,0.3,0.2,0.3,0.4c0,0.2,0,0.3-0.1,0.5c-0.6,1-1.3,2-2,3c-0.2,0.3-1.6,2.8-1.2,3   c0.9,0.2,5.4-2.7,6.3-3.2c0.3-0.2,0.6-0.1,0.8,0.2l1.2,1.8c0.1,0.1,0.1,0.3,0.1,0.5c0,0.2-0.1,0.3-0.3,0.4c-1,0.5-2,1-3,1.5   c-0.3,0.2-2.6,1.5-2.4,1.9c0.6,0.6,5.6,0.1,6.6,0.1c0.3,0,0.6,0.2,0.6,0.6l0.1,2.1c0,0.2,0,0.3-0.2,0.4c-0.1,0.1-0.3,0.2-0.4,0.2   c-1.3,0-2.7-0.1-4-0.1c-0.5,0-3.4,0.1-3.6,0.6c0.3,0.9,5.5,3.3,6.5,3.9c0.1,0.1,0.2,0.2,0.3,0.4c0,0.2,0,0.3-0.1,0.5l-1.1,1.9   c-0.2,0.3-0.5,0.4-0.8,0.2c-1.1-0.6-2.2-1.4-3.4-2.1c-0.4-0.2-3-1.6-3.4-1.3c-0.2,0.9,3,5.5,3.6,6.5c0.1,0.1,0.1,0.3,0.1,0.5   c0,0.2-0.1,0.3-0.3,0.4l-1.9,1c-0.3,0.2-0.6,0.1-0.8-0.2c-0.6-1.1-1.2-2.3-1.8-3.4c-0.2-0.4-1.7-2.8-2.2-2.7   c-0.6,0.7-0.2,6.1-0.2,7.2c0,0.2-0.1,0.3-0.2,0.4c-0.1,0.1-0.3,0.2-0.4,0.2l-2.1,0c-0.3,0-0.6-0.3-0.6-0.6c0-1.2,0.2-2.5,0.2-3.8   c0-0.4,0-3.4-0.6-3.4c-0.9,0.2-3.3,5.2-3.9,6.2c-0.2,0.3-0.5,0.4-0.8,0.2l-1.9-1c-0.1-0.1-0.2-0.2-0.3-0.4c0-0.2,0-0.3,0.1-0.5   c0.6-1.1,1.5-2.1,2.1-3.2c0.3-0.4,1.6-2.8,1.3-3.3c-0.9-0.2-5.6,2.8-6.6,3.4c-0.3,0.2-0.6,0.1-0.8-0.2L18,37.8   c-0.1-0.1-0.1-0.3-0.1-0.5c0-0.2,0.1-0.3,0.3-0.4c1-0.6,2.1-1,3.1-1.5c0.3-0.2,2.7-1.5,2.5-2c-0.6-0.6-5.6-0.1-6.6-0.1   c-0.2,0-0.3-0.1-0.4-0.2c-0.1-0.1-0.2-0.3-0.2-0.4l0-2.1c0-0.3,0.3-0.6,0.6-0.6c1.3,0,2.6,0.1,3.9,0.1c0.5,0,3.3-0.1,3.5-0.6   c-0.3-0.9-5.1-3.1-6.1-3.6c-0.3-0.2-0.4-0.5-0.2-0.8c0.2-0.3,0.3-0.6,0.5-0.9c0.2-0.3,0.4-0.7,0.7-1C19.7,22.9,20.1,22.9,20.3,23   L20.3,23z M32,28.5c-4.3,0-4.3,6.4,0,6.4S36.3,28.5,32,28.5z"/><path class="st5" d="M34.1,8.7c2.4,0.2,4.7,0.7,6.9,1.6c-1.2-4.9,6.3-6.4,7.5-1.7c0.5,1.8-0.5,3.8-2.3,4.5l4.4,4   c2.7-6.3,11.4,1.8,5.4,5.1c-0.6,0.3-1.2,0.5-1.8,0.5c0.8,1.8,1.4,3.7,1.7,5.6c5.4-4.3,9.1,7.2,2.2,7.1c-0.8,0-1.5-0.3-2.1-0.7   c-0.3,2.2-0.9,4.3-1.8,6.3c4.8-0.8,5.9,6.4,1.4,7.6c-1.9,0.5-4-0.6-4.5-2.5l-4.4,4.2c5.1,0.9,3.2,8.7-1.8,7.5   c-2.2-0.5-3.4-2.8-2.7-4.9c-2.5,1.1-5.3,1.9-8.2,2.1c4.6,3.1-1.3,9.6-5.1,5.7c-1.6-1.7-1.3-4.4,0.6-5.7c-2.5-0.2-4.9-0.8-7.1-1.7   c2.1,5-6,7.3-7.3,2.2c-0.5-2.1,0.8-4.2,2.9-4.6c-2.2-1.5-4.2-3.4-5.8-5.5c-1.7,4.7-8.7,1.8-7.2-2.8c0.6-1.8,2.5-2.9,4.3-2.5   c-0.6-1.5-1-3-1.2-4.5c-5.4,4.3-9.1-7.1-2.2-7c0.8,0,1.5,0.3,2.1,0.7c0.3-2.3,0.9-4.5,1.8-6.5c-4.8,0.8-5.9-6.4-1.4-7.6   c1.9-0.5,4,0.6,4.5,2.6c1.4-1.7,3-3.1,4.8-4.4c-5.1-0.9-3-8.7,1.9-7.5c2.2,0.6,3.3,2.9,2.5,5c2-0.8,4.1-1.4,6.3-1.7   C24.8,5.4,30.4,0,34,3.4C35.5,4.8,35.5,7.3,34.1,8.7L34.1,8.7z M35,18l0,2.1l1.1-1.9C35.7,18.1,35.4,18.1,35,18L35,18z M39.8,17.5   c-7.6-3.8-17.4-1.5-22.1,5.9l0,0c-4.7,8.7-1.9,19.4,7.8,23.1C45,54.1,58.5,27.2,39.8,17.5L39.8,17.5z M41.6,21l-1.3,2.2l2.3-1.3   L41.6,21L41.6,21z M45.9,27.1L44.4,28l1.8,0C46.1,27.6,46,27.4,45.9,27.1L45.9,27.1z M46.5,34l-3.2,0.1l2.9,1.6   C46.3,35.2,46.4,34.6,46.5,34L46.5,34z M43.1,41l-2.8-1.6l1.6,2.7L43.1,41L43.1,41z M36.5,45.1L35,42.6v2.9   C35.5,45.4,36,45.3,36.5,45.1L36.5,45.1z M28.9,45.5v-2.9l-1.5,2.5C27.9,45.2,28.3,45.4,28.9,45.5L28.9,45.5z M22,42.1l1.6-2.6   l-2.7,1.5L22,42.1L22,42.1z M17.8,35.6l1.6-0.9l-1.9,0C17.7,35,17.7,35.3,17.8,35.6L17.8,35.6z M17.6,28.6l2.9-0.1l-2.5-1.4   C17.9,27.6,17.7,28.1,17.6,28.6L17.6,28.6z M21.4,22l2.2,1.2l-1.2-2.1L21.4,22L21.4,22z M27.8,18.3l1.1,1.8V18   C28.5,18.1,28.1,18.2,27.8,18.3L27.8,18.3z M32,27.9c-5,0-5,7.6,0,7.6S37,27.9,32,27.9L32,27.9z M33.4,30.5   c-1.7-1.6-4.6,0.8-2.8,2.5v0C32.3,34.6,35.2,32.2,33.4,30.5L33.4,30.5z M33,23.8v-6l-2.1,0c0,1.2,0.5,6.3-0.5,6.9   c-1.5,0.9-3.9-4.6-4.5-5.7L24,20c0.6,1.1,3.8,5.4,3.2,6.4c-0.9,1.6-6-2.2-7.1-2.8c-0.2,0.3-0.4,0.6-0.6,0.9l0,0   c-0.2,0.3-0.3,0.6-0.5,0.9c1.1,0.6,6.3,2.9,6.4,4.1c0,1.8-6.6,1.2-7.9,1.2l0,2.1c1.2,0,6.5-0.7,7.1,0.4c0.9,1.6-4.8,3.8-5.8,4.4   l1.1,1.9c1.1-0.6,6.2-4,7.2-3.4c1.6,0.9-2.5,6.3-3.2,7.4l1.9,1c0.7-1.1,3.1-6.5,4.4-6.5c1.8,0,1,6.6,1,7.9l2.1,0   c0-1.3-0.5-7.1,0.5-7.7c1.6-0.9,4.3,5.2,4.9,6.4l1.9-1c-0.7-1.1-4.2-6-3.6-7c0.9-1.6,6.5,2.4,7.7,3.1l1.1-1.9   c-1.2-0.6-6.8-3.1-6.8-4.3c0-1.8,6.8-1.2,8.1-1.2l-0.1-2.1c-1.2,0-6.5,0.7-7.1-0.4c-0.8-1.5,4.6-3.7,5.6-4.2l-1.2-1.8   c-1.1,0.6-5.9,3.8-6.9,3.2c-1.5-0.9,2.2-5.8,2.9-6.8l-1.9-1c-0.6,1.1-2.8,5.9-4,5.9C33.4,24.8,33,24.3,33,23.8L33,23.8z M15.6,22.8   c5.3-8.5,13.6-7,13.3-9.1c-0.3-3-10.9,1.5-15,8C13.2,22.9,14.9,23.9,15.6,22.8L15.6,22.8z M14.8,39.4c-2.1-4.1-2.5-8.8-1.1-13.1   c0.6-1.9-3.6-3-2.8,6.8C11.8,42.9,15.8,41.3,14.8,39.4L14.8,39.4z M19.2,7.5c-2.2-0.6-3.6,2.9-1.2,3.5l0,0   C20.3,11.7,21.6,8.2,19.2,7.5L19.2,7.5z M9,16.8c-2.2,0.6-1.7,4.3,0.7,3.7l0,0C12,19.9,11.5,16.2,9,16.8L9,16.8z M4.6,30.8   c-1.6,1.6,0.7,4.6,2.5,2.8l0,0C8.7,31.9,6.4,29,4.6,30.8L4.6,30.8z M7,42.9c-0.7,2.2,2.7,3.8,3.5,1.4l0,0   C11.2,42.2,7.8,40.6,7,42.9L7,42.9z M17.1,54.7c0.6,2.2,4.3,1.7,3.7-0.7l0,0C20.2,51.8,16.5,52.3,17.1,54.7L17.1,54.7z M30.4,59.1   c1.6,1.7,4.6-0.6,2.8-2.4l0,0C31.7,55,28.7,57.3,30.4,59.1L30.4,59.1z M45.4,55.7c2.2,0.5,3.5-3,1.1-3.6l0,0   C44.2,51.6,42.9,55.1,45.4,55.7L45.4,55.7z M55.1,46.5c2.2-0.6,1.7-4.3-0.7-3.7l0,0C52.1,43.5,52.6,47.2,55.1,46.5L55.1,46.5z    M59.4,32.8c1.6-1.6-0.7-4.6-2.5-2.8h0C55.3,31.6,57.6,34.6,59.4,32.8L59.4,32.8z M55.9,19.3c0.4-1.5-1.2-3.1-2.7-2.3   C50.2,18.7,55,22.7,55.9,19.3L55.9,19.3z M46.6,9.1c-0.6-2.2-4.3-1.7-3.7,0.7l0,0C43.5,12.1,47.2,11.6,46.6,9.1L46.6,9.1z    M32.6,4.8c-1.7-1.6-4.6,0.8-2.8,2.5v0C31.5,9,34.4,6.6,32.6,4.8L32.6,4.8z M15.3,43.6c4.2,5.5,5,1.2,3.4,1l-1.9-2.2   C16.1,41.4,14.6,42.6,15.3,43.6L15.3,43.6z M21.5,48.6c0.4,0.2,3.7,2.4,4.3,0.8c0.5-1.4-2.8-2.2-3.3-2.5   C21.5,46.2,20.4,47.9,21.5,48.6L21.5,48.6z M47.7,16.8C34.3,4.1,9.9,12.4,9.9,31.7s24.4,27.7,37.8,14.9C56,38.6,56,24.9,47.7,16.8z   "/></g></svg>