<?xml version="1.0" ?><svg id="Layer_1" style="enable-background:new 0 0 64 64;" version="1.1" viewBox="0 0 64 64" xml:space="preserve" xmlns="http://www.w3.org/2000/svg" xmlns:xlink="http://www.w3.org/1999/xlink"><style type="text/css">
	.st0{fill-rule:evenodd;clip-rule:evenodd;fill:#389BDC;}
	.st1{fill-rule:evenodd;clip-rule:evenodd;fill:#FF9933;}
	.st2{fill-rule:evenodd;clip-rule:evenodd;fill:#FFFFCC;}
	.st3{fill-rule:evenodd;clip-rule:evenodd;fill:#EBD79F;}
	.st4{fill-rule:evenodd;clip-rule:evenodd;fill:#FF0000;}
	.st5{fill-rule:evenodd;clip-rule:evenodd;fill:#232E7A;}
	.st6{fill-rule:evenodd;clip-rule:evenodd;fill:#E6E6E6;}
	.st7{fill-rule:evenodd;clip-rule:evenodd;fill:#DE9800;}
	.st8{fill-rule:evenodd;clip-rule:evenodd;fill:#00FFFF;}
	.st9{fill-rule:evenodd;clip-rule:evenodd;fill:#FFCC00;}
	.st10{fill-rule:evenodd;clip-rule:evenodd;fill:#FF3399;}
	.st11{fill-rule:evenodd;clip-rule:evenodd;fill:#6666CC;}
	.st12{fill-rule:evenodd;clip-rule:evenodd;fill:#BA8E8E;}
</style><g><path class="st0" d="M44,45.1c-0.5-0.4-1.1-0.6-1.8-0.6c-1.8,0-3.2,1-5.2,0.8c-0.9-0.1-1.7-0.4-2.5-0.9c-0.5-0.3-1-0.7-1.6-0.8   c-0.5-0.1-0.9,0-1.3,0.2c-2.2,1.1-3.1,2.8-5.6,1.1c-0.4-0.3-1-0.7-1.5-0.7c-0.3,0-0.7,0.2-1,0.3c-0.7,0.3-1.4,0.6-2.2,0.8   c-1.6,0.5-4,0.5-5-1.1c-0.1-0.1-0.1-0.3-0.1-0.4c0,0,0-0.1,0-0.1c0-3,0.7-6.5,1.5-9.3c2-6.8,5.6-12.9,10.9-17.7   c1.7-1.5,3.5-2.8,5.4-4c4.6-2.8,10.1-4.9,15.4-5.9c1.9-0.4,8-1.5,9.5,0.2c0,0,0,0,0,0c0.1,0.2,0.2,0.4,0.1,0.6   c-0.2,0.6-0.9,0.5-1.4,0.8c-8.5,6.4-8.9,17.1-9.5,26.8c0,0.3,0,0.7-0.1,1c-0.1,0.7-0.9,7.9,0.2,7.9c0.3,0,0.5,0.1,0.6,0.4   c0.1,0.2,0,0.5-0.2,0.7C47.4,46.5,45.4,46,44,45.1L44,45.1z M49.4,9.8c-1.1,0.1-2.4,0.3-3.5,0.6c-0.4,0.1-3.1,0.8-2.7,1.5   c0,0,0,0.1,0.1,0.1c0.4,0.3,2.6-0.5,3.1-0.7c0.9-0.3,2.1-0.7,3-0.7C49.9,10.6,49.9,9.8,49.4,9.8L49.4,9.8z M37.3,14.8   c-2.7,1.8-6.6,4.7-8.5,7.4c-0.3,0.4-0.7,1.1-0.8,1.7c0,0.1,0,0.3,0.1,0.3c0.2,0.1,0.4-0.1,0.5-0.3c2.4-3.3,5.7-6.1,9.1-8.4   C38.1,15.2,37.7,14.5,37.3,14.8L37.3,14.8z M22.8,34.2c-0.6,2-1.2,4.2-1.5,6.3c-0.1,0.4-0.3,2.4,0.2,2.7c0,0,0.1,0,0.1,0   c0,0,0.1,0,0.1,0c0.4-0.2,0.6-2.1,0.6-2.5c0.3-2.2,0.6-4.2,1.2-6.3C23.7,33.9,22.9,33.7,22.8,34.2z"/><path class="st8" d="M44,45.1c-0.5-0.4-1.1-0.6-1.8-0.6c-1.7,0-3,0.9-4.9,0.8c0.3-4.6,1.6-14.1,7.4-25.1c4-7.5,9.4-11.4,13.9-13.5   C58.8,6.8,59,6.9,59.1,7c0,0,0,0,0,0c0.1,0.2,0.2,0.4,0.1,0.6c-0.2,0.6-0.9,0.5-1.4,0.8c-8.5,6.4-8.9,17.1-9.5,26.8   c0,0.3,0,0.7-0.1,1c-0.1,0.7-0.9,7.9,0.2,7.9c0.3,0,0.5,0.1,0.6,0.4c0.1,0.2,0,0.5-0.2,0.7C47.4,46.5,45.4,46,44,45.1z"/><path class="st2" d="M44,45.1c-0.1-0.1-0.2-0.1-0.3-0.2c0-5,0.5-13.4,3.7-23.1C50.3,13,55.2,8.9,59,6.9C59,7,59,7,59.1,7   c0,0,0,0,0,0c0.1,0.2,0.2,0.4,0.1,0.6c-0.2,0.6-0.9,0.5-1.4,0.8c-8.5,6.4-8.9,17.1-9.5,26.8c0,0.3,0,0.7-0.1,1   c-0.1,0.7-0.9,7.9,0.2,7.9c0.3,0,0.5,0.1,0.6,0.4c0.1,0.2,0,0.5-0.2,0.7C47.4,46.5,45.4,46,44,45.1z"/><path class="st5" d="M16.9,43.7c0,1.3-2,1.3-2,0C15,26.8,28.3,9.3,48.7,5.6c6.7-1.2,16.1-0.6,9.9,4c-13,9.7-6.8,35.2-10.3,35.2   c-1.8,0-1-5-0.7-9.6c0.7-10.7,1.3-20.9,9.8-27.3c0.6-0.5,1.3-0.4,1.2-0.6C56.7,5.2,39.2,8,29.2,17.2C16.9,28.3,16.9,43.7,16.9,43.7   L16.9,43.7z M4.7,55.5c-1.1,0.6-2-1.2-0.9-1.8c6.1-3,6.3,3.9,11.8,3.2c1.3-0.1,1.5,1.8,0.2,2C10.2,59.6,8.8,53.4,4.7,55.5L4.7,55.5   z M48.7,55.5c-1.1,0.6-2-1.2-0.9-1.8c6.1-3,6.3,3.9,11.8,3.2c1.3-0.1,1.5,1.8,0.2,2C54.2,59.6,52.9,53.4,48.7,55.5L48.7,55.5z    M39.9,55.5c4.2-2.1,5.5,4.1,11.2,3.4c1.3-0.1,1.1-2.1-0.2-2c-5.5,0.6-5.7-6.3-11.8-3.2C37.9,54.3,38.8,56.1,39.9,55.5L39.9,55.5z    M31.1,55.5c-1.1,0.6-2-1.2-0.9-1.8c6.1-3,6.3,3.9,11.8,3.2c1.3-0.1,1.5,1.8,0.2,2C36.6,59.6,35.3,53.4,31.1,55.5L31.1,55.5z    M22.3,55.5c4.2-2.1,5.5,4.1,11.2,3.4c1.3-0.1,1.1-2.1-0.2-2c-5.5,0.6-5.7-6.3-11.8-3.2C20.3,54.3,21.1,56.1,22.3,55.5L22.3,55.5z    M13.5,55.5c4.2-2.1,5.5,4.1,11.2,3.4c1.3-0.1,1.1-2.1-0.2-2c-5.5,0.6-5.7-6.3-11.8-3.2C11.4,54.3,12.3,56.1,13.5,55.5L13.5,55.5z    M4.7,48.4c4.2-2.1,5.5,4.1,11.2,3.4c1.3-0.1,1.1-2.1-0.2-2c-5.5,0.6-5.7-6.3-11.8-3.2C2.6,47.2,3.5,49,4.7,48.4L4.7,48.4z    M48.7,48.4c4.2-2.1,5.5,4.1,11.2,3.4c1.3-0.1,1.1-2.1-0.2-2c-5.5,0.6-5.7-6.3-11.8-3.2C46.7,47.2,47.6,49,48.7,48.4L48.7,48.4z    M39.9,48.4c4.2-2.1,5.5,4.1,11.2,3.4c1.3-0.1,1.1-2.1-0.2-2c-5.5,0.6-5.7-6.3-11.8-3.2C37.9,47.2,38.8,49,39.9,48.4L39.9,48.4z    M31.1,48.4c4.2-2.1,5.5,4.1,11.2,3.4c1.3-0.1,1.1-2.1-0.2-2c-5.5,0.6-5.7-6.3-11.8-3.2C29.1,47.2,30,49,31.1,48.4L31.1,48.4z    M22.3,48.4c4.2-2.1,5.5,4.1,11.2,3.4c1.3-0.1,1.1-2.1-0.2-2c-5.5,0.6-5.7-6.3-11.8-3.2C20.3,47.2,21.1,49,22.3,48.4L22.3,48.4z    M13.5,48.4c4.2-2.1,5.5,4.1,11.2,3.4c1.3-0.1,1.1-2.1-0.2-2c-5.5,0.6-5.7-6.3-11.8-3.2C11.4,47.2,12.3,49,13.5,48.4L13.5,48.4z    M49.4,9.2c0,0-7.7,0.7-6.7,2.9c0.7,1.6,4.6-0.9,6.7-0.9C50.7,11.2,50.7,9.2,49.4,9.2L49.4,9.2z M36.9,14.3   c-13.4,9.1-9.1,11.7-7.9,9.9c2.4-3.3,5.7-6.1,9-8.3C39.1,15.2,38,13.6,36.9,14.3L36.9,14.3z M22.2,34c-1.6,5.4-2.4,9.8-0.6,9.8   c1.7,0,1-3.9,2.5-9.2C24.5,33.3,22.6,32.8,22.2,34z"/></g></svg>