<?xml version="1.0" ?><svg id="Layer_1" style="enable-background:new 0 0 64 64;" version="1.1" viewBox="0 0 64 64" xml:space="preserve" xmlns="http://www.w3.org/2000/svg" xmlns:xlink="http://www.w3.org/1999/xlink"><style type="text/css">
	.st0{fill-rule:evenodd;clip-rule:evenodd;fill:#389BDC;}
	.st1{fill-rule:evenodd;clip-rule:evenodd;fill:#FF9933;}
	.st2{fill-rule:evenodd;clip-rule:evenodd;fill:#FFFFCC;}
	.st3{fill-rule:evenodd;clip-rule:evenodd;fill:#EBD79F;}
	.st4{fill-rule:evenodd;clip-rule:evenodd;fill:#FF0000;}
	.st5{fill-rule:evenodd;clip-rule:evenodd;fill:#232E7A;}
	.st6{fill-rule:evenodd;clip-rule:evenodd;fill:#E6E6E6;}
	.st7{fill-rule:evenodd;clip-rule:evenodd;fill:#DE9800;}
	.st8{fill-rule:evenodd;clip-rule:evenodd;fill:#00FFFF;}
	.st9{fill-rule:evenodd;clip-rule:evenodd;fill:#FFCC00;}
	.st10{fill-rule:evenodd;clip-rule:evenodd;fill:#FF3399;}
	.st11{fill-rule:evenodd;clip-rule:evenodd;fill:#6666CC;}
	.st12{fill-rule:evenodd;clip-rule:evenodd;fill:#BA8E8E;}
</style><g><path class="st4" d="M20.7,10.1l-2.3,0.8c-0.3,0.1-0.7-0.1-0.8-0.4c-1.4-3.9,2.1-5.2,3.5-1.2C21.2,9.7,21,10,20.7,10.1z"/><path class="st9" d="M26.9,18.8l-9.1,3.1c-0.2,0.1-0.5,0-0.6-0.1l-1.4-1.5c-0.1-0.2-0.2-0.4-0.2-0.6c0-0.2,0.2-0.4,0.4-0.4   l10.6-3.7c0.2-0.1,0.4,0,0.6,0.1c0.2,0.1,0.2,0.3,0.2,0.5l-0.1,2.1C27.3,18.5,27.1,18.7,26.9,18.8z"/><path class="st5" d="M4.7,49.5c-1.1,0.6-2-1.2-0.9-1.8c6.1-3,6.3,3.9,11.8,3.2c1.3-0.1,1.5,1.8,0.2,2C10.2,53.6,8.8,47.4,4.7,49.5   L4.7,49.5z M48.7,49.5c-1.1,0.6-2-1.2-0.9-1.8c6.1-3,6.3,3.9,11.8,3.2c1.3-0.1,1.5,1.8,0.2,2C54.2,53.6,52.9,47.4,48.7,49.5   L48.7,49.5z M39.9,49.5c4.2-2.1,5.5,4.1,11.2,3.4c1.3-0.1,1.1-2.1-0.2-2c-5.5,0.6-5.7-6.3-11.8-3.2C37.9,48.3,38.8,50.1,39.9,49.5   L39.9,49.5z M31.1,49.5c-1.1,0.6-2-1.2-0.9-1.8c6.1-3,6.3,3.9,11.8,3.2c1.3-0.1,1.5,1.8,0.2,2C36.6,53.6,35.3,47.4,31.1,49.5   L31.1,49.5z M22.3,49.5c4.2-2.1,5.5,4.1,11.2,3.4c1.3-0.1,1.1-2.1-0.2-2c-5.5,0.6-5.7-6.3-11.8-3.2C20.3,48.3,21.1,50.1,22.3,49.5   L22.3,49.5z M13.5,49.5c4.2-2.1,5.5,4.1,11.2,3.4c1.3-0.1,1.1-2.1-0.2-2c-5.5,0.6-5.7-6.3-11.8-3.2C11.4,48.3,12.3,50.1,13.5,49.5   L13.5,49.5z M28.9,15.4l2.7-0.9c1.2-0.4,0.6-2.3-0.6-1.9l-19.4,6.3c-0.7,0.2-1.9,2.7,2.3,1.4l2.8,2.8c0.7,0.7,4.5,21.9,4.8,23.5   c2.4-1.4,5.8,0.5,7.9-0.6c2.7-1.4,5.6-1.2,8,0.6c1.5-1.6,4.5-1.9,6.4-1.3l0.7-2.8h0c1.6-6.3,0.6-4.8-5.3-2.7L28.6,19.6   C28.3,18.4,28.8,16.6,28.9,15.4L28.9,15.4z M39.3,54.8c-5.5,5.6-2.3,3.4-12,2.5l-1.9-1.2l0.1,0L24,55c1.4-0.1,2.6-0.5,3.3-1.7   c1.9,1.4,7.2,3.3,8.8,0C37.1,54,38.1,54.6,39.3,54.8L39.3,54.8z M17.6,21.3l-1.4-1.5l10.6-3.7l-0.1,2.1L17.6,21.3L17.6,21.3z    M26,20.6l-2.2,3.5L20,22.6L26,20.6L26,20.6z M18.1,10.4l2.3-0.8C19.4,6.4,17,7.2,18.1,10.4L18.1,10.4z M16.3,11   c-1.8-5.3,4-8.3,6.1-2.1c3.1-1.1,2.9,1.1,1.8,1.5c-3.4,1.2-9.3,4-9.9,2.3C13.9,11.6,15.5,11.3,16.3,11L16.3,11z M13.4,17.3   c-1.2,0.4-1.9-1.5-0.6-1.9l15-5.2c1.2-0.4,1.9,1.5,0.6,1.9L13.4,17.3L13.4,17.3z M31.9,30.3l4.5,8.6L29,35.6L31.9,30.3L31.9,30.3z    M28,37.4l-4.3,7.7l12.2-4.3L28,37.4L28,37.4z M22.7,42.8L21,34.3l5.1,2.3L22.7,42.8L22.7,42.8z M27.1,34.8l-6-2.7l3.5-5.6l5.9,2.3   L27.1,34.8L27.1,34.8z M27.5,21.8l2.4,4.6l-4.2-1.6L27.5,21.8L27.5,21.8z M20.1,29.9l-1.1-5.5l3.7,1.4L20.1,29.9z"/></g></svg>