<?xml version="1.0" ?><svg id="Layer_1" style="enable-background:new 0 0 64 64;" version="1.1" viewBox="0 0 64 64" xml:space="preserve" xmlns="http://www.w3.org/2000/svg" xmlns:xlink="http://www.w3.org/1999/xlink"><style type="text/css">
	.st0{fill-rule:evenodd;clip-rule:evenodd;fill:#389BDC;}
	.st1{fill-rule:evenodd;clip-rule:evenodd;fill:#FF9933;}
	.st2{fill-rule:evenodd;clip-rule:evenodd;fill:#FFFFCC;}
	.st3{fill-rule:evenodd;clip-rule:evenodd;fill:#EBD79F;}
	.st4{fill-rule:evenodd;clip-rule:evenodd;fill:#FF0000;}
	.st5{fill-rule:evenodd;clip-rule:evenodd;fill:#232E7A;}
	.st6{fill-rule:evenodd;clip-rule:evenodd;fill:#E6E6E6;}
	.st7{fill-rule:evenodd;clip-rule:evenodd;fill:#DE9800;}
	.st8{fill-rule:evenodd;clip-rule:evenodd;fill:#00FFFF;}
	.st9{fill-rule:evenodd;clip-rule:evenodd;fill:#FFCC00;}
	.st10{fill-rule:evenodd;clip-rule:evenodd;fill:#FF3399;}
	.st11{fill-rule:evenodd;clip-rule:evenodd;fill:#6666CC;}
	.st12{fill-rule:evenodd;clip-rule:evenodd;fill:#BA8E8E;}
</style><g><path class="st2" d="M19.3,41.9c-0.3-0.3-0.7-0.5-1.1-0.7c-0.4-0.2-0.9-0.4-1.4-0.5c-0.2-0.1-0.4-0.3-0.4-0.5   c0.2-3.8,1.8-7.4,4.5-10.2c9.7-9.8,26.3-2.7,26.4,10.9c0,0.2-0.1,0.4-0.3,0.5c-0.1,0-0.1,0.1-0.2,0.1c-0.2,0.1-0.4,0.2-0.6,0.4   c-0.2,0.1-0.4,0.1-0.6,0c-0.3-0.3-0.7-0.5-1.1-0.7c-2.2-1.1-4.4-0.8-6.5,0.3c-0.2,0.1-0.4,0.2-0.6,0.4c-0.2,0.1-0.4,0.1-0.6,0   c-0.3-0.3-0.7-0.5-1.1-0.7c-2.2-1.1-4.4-0.8-6.5,0.3c-0.2,0.1-0.4,0.2-0.6,0.4c-0.2,0.1-0.4,0.1-0.6,0c-0.3-0.3-0.7-0.5-1.1-0.7   c-2.2-1.1-4.4-0.8-6.5,0.3c-0.2,0.1-0.4,0.2-0.6,0.4C19.7,42.1,19.5,42.1,19.3,41.9L19.3,41.9z M22,34.8c0.3-0.6-0.6-1-0.9-0.5   c-0.4,0.7-2.6,6.1-0.9,6.1c0.1,0,0.1,0,0.2,0c0.3-0.2,0.4-1.5,0.5-1.8C21,37.2,21.3,36,22,34.8L22,34.8z M31.4,27.8   c-0.5,0-2.5,0-2.2,0.9c0.2,0.7,1.6,0.2,2.1,0.1C31.9,28.8,32.2,27.8,31.4,27.8L31.4,27.8z M27,28.9c-0.5,0.2-3.7,1.6-3,2.5   c0,0,0.1,0.1,0.1,0.1c0.5,0.1,2.5-1.4,3.2-1.7C27.9,29.6,27.6,28.7,27,28.9z"/><path class="st1" d="M19.3,41.9c-0.3-0.3-0.7-0.5-1.1-0.7c-0.4-0.2-0.9-0.4-1.4-0.5c-0.2-0.1-0.4-0.3-0.4-0.5   c0.2-3.8,1.8-7.4,4.5-10.2c2.4-2.4,5.2-3.8,8-4.3c8.3,1.6,14.5,7.2,14.5,13.8c0,0.4,0,0.8-0.1,1.2c-1.8-0.5-3.6-0.1-5.3,0.8   c-0.2,0.1-0.4,0.2-0.6,0.4c-0.2,0.1-0.4,0.1-0.6,0c-0.3-0.3-0.7-0.5-1.1-0.7c-2.2-1.1-4.4-0.8-6.5,0.3c-0.2,0.1-0.4,0.2-0.6,0.4   c-0.2,0.1-0.4,0.1-0.6,0c-0.3-0.3-0.7-0.5-1.1-0.7c-2.2-1.1-4.4-0.8-6.5,0.3c-0.2,0.1-0.4,0.2-0.6,0.4   C19.7,42.1,19.5,42.1,19.3,41.9L19.3,41.9z M22,34.8c0.3-0.6-0.6-1-0.9-0.5c-0.4,0.7-2.6,6.1-0.9,6.1c0.1,0,0.1,0,0.2,0   c0.3-0.2,0.4-1.5,0.5-1.8C21,37.2,21.3,36,22,34.8L22,34.8z M31.4,27.8c-0.5,0-2.5,0-2.2,0.9c0.2,0.7,1.6,0.2,2.1,0.1   C31.9,28.8,32.2,27.8,31.4,27.8L31.4,27.8z M27,28.9c-0.5,0.2-3.7,1.6-3,2.5c0,0,0.1,0.1,0.1,0.1c0.5,0.1,2.5-1.4,3.2-1.7   C27.9,29.6,27.6,28.7,27,28.9z"/><path class="st9" d="M19.3,41.9c-0.3-0.3-0.7-0.5-1.1-0.7c-0.4-0.2-0.9-0.4-1.4-0.5c-0.2-0.1-0.4-0.3-0.4-0.5   c0.2-3.8,1.8-7.4,4.5-10.2c0.3-0.3,0.7-0.7,1-1c1.1,0.2,2.2,0.4,3.2,0.7c-0.8,0.5-1.6,1.1-1.2,1.6c0,0,0.1,0.1,0.1,0.1   c0.4,0.1,1.6-0.7,2.5-1.3c6,2.1,10.4,6.5,11,11.6l-0.1,0.1c-0.2,0.1-0.4,0.1-0.6,0c-0.3-0.3-0.7-0.5-1.1-0.7   c-2.2-1.1-4.4-0.8-6.5,0.3c-0.2,0.1-0.4,0.2-0.6,0.4c-0.2,0.1-0.4,0.1-0.6,0c-0.3-0.3-0.7-0.5-1.1-0.7c-2.2-1.1-4.4-0.8-6.5,0.3   c-0.2,0.1-0.4,0.2-0.6,0.4C19.7,42.1,19.5,42.1,19.3,41.9L19.3,41.9z M22,34.8c0.3-0.6-0.6-1-0.9-0.5c-0.4,0.7-2.6,6.1-0.9,6.1   c0.1,0,0.1,0,0.2,0c0.3-0.2,0.4-1.5,0.5-1.8C21,37.2,21.3,36,22,34.8z"/><path class="st5" d="M4.7,45.2c-1.1,0.6-2-1.2-0.9-1.8c6.1-3,6.3,3.9,11.8,3.2c1.3-0.1,1.5,1.8,0.2,2C9.9,49.3,8.9,43.1,4.7,45.2   L4.7,45.2z M31.3,27.3c1.4-0.1,1.3,1.9-0.1,2c-0.8,0.1-2.3,0.7-2.6-0.5C28.3,27.4,30.5,27.4,31.3,27.3L31.3,27.3z M26.8,28.4   c-0.9,0.4-4.3,1.9-3.2,3.3c0.9,1,2.6-0.9,3.9-1.4C28.7,29.8,28,28,26.8,28.4L26.8,28.4z M20.7,34c0.6-1.1,2.4-0.2,1.8,1   c-1.6,3-0.7,5.9-2.3,5.9C17.7,40.9,20.1,35,20.7,34L20.7,34z M13.4,36.3c1.3-0.1,1.4,1.9,0.1,2L8,38.5c-1.3,0.1-1.4-1.9-0.1-2   L13.4,36.3L13.4,36.3z M50.6,39.8c-1.3,0-1.2-2,0.1-2l6,0.2c1.3,0,1.2,2-0.1,2L50.6,39.8L50.6,39.8z M39,21.9   c-0.3,1.2-2.3,0.7-1.9-0.5l2.5-9.2c0.3-1.2,2.3-0.7,1.9,0.5L39,21.9L39,21.9z M44.3,25.1c-0.8,1-2.4-0.2-1.6-1.2l8.8-11.4   c0.8-1,2.4,0.2,1.6,1.2L44.3,25.1L44.3,25.1z M47.6,29L57.9,24c1.2-0.6,0.3-2.4-0.9-1.8l-10.3,5.1C45.5,27.8,46.4,29.6,47.6,29   L47.6,29z M50.6,34.9c-1.2,0.3-1.8-1.6-0.5-1.9l7.3-2c1.2-0.3,1.8,1.6,0.5,1.9L50.6,34.9L50.6,34.9z M32.9,21.4c0,1.3-2,1.3-2,0   v-12c0-1.3,2-1.3,2,0V21.4L32.9,21.4z M27.4,21.4c0.3,1.2-1.6,1.8-1.9,0.5L23,12.7c-0.3-1.2,1.6-1.8,1.9-0.5L27.4,21.4L27.4,21.4z    M21.8,23.9c0.8,1-0.8,2.2-1.6,1.2l-8.8-11.4c-0.8-1,0.8-2.2,1.6-1.2L21.8,23.9L21.8,23.9z M15.9,28l-9-7.1c-1-0.8-2.2,0.8-1.2,1.6   l9,7.1C15.6,30.4,16.9,28.8,15.9,28L15.9,28z M14.1,32.1c1.3,0.2,1,2.2-0.3,2l-7.5-1.2c-1.3-0.2-1-2.2,0.3-2L14.1,32.1L14.1,32.1z    M44.8,52.1c-1.1,0.6-2-1.2-0.9-1.8c6.1-3,6.3,3.9,11.8,3.2c1.3-0.1,1.5,1.8,0.2,2C50,56.2,49.1,50,44.8,52.1L44.8,52.1z M36,52.1   c4.3-2.1,5.2,4.1,11.2,3.4c1.3-0.1,1.1-2.1-0.2-2c-5.5,0.6-5.7-6.3-11.8-3.2C34,50.9,34.9,52.7,36,52.1L36,52.1z M27.2,52.1   c-1.1,0.6-2-1.2-0.9-1.8c6.1-3,6.3,3.9,11.8,3.2c1.3-0.1,1.5,1.8,0.2,2C32.4,56.2,31.5,50,27.2,52.1L27.2,52.1z M18.4,52.1   c4.3-2.1,5.2,4.1,11.2,3.4c1.3-0.1,1.1-2.1-0.2-2c-5.5,0.6-5.7-6.3-11.8-3.2C16.3,50.9,17.2,52.7,18.4,52.1L18.4,52.1z M9.6,52.1   c4.3-2.1,5.2,4.1,11.2,3.4c1.3-0.1,1.1-2.1-0.2-2c-5.5,0.6-5.7-6.3-11.8-3.2C7.5,50.9,8.4,52.7,9.6,52.1L9.6,52.1z M31.9,24   c-9.3,0-16.7,7.5-17,16.7c0.7,0,1.3,0,2,0.2c0.1-4.1,1.7-7.8,4.4-10.4c9.6-9.7,26-2.3,25.6,11.3l2-0.8C48.8,31.6,41.3,24,31.9,24   L31.9,24z M48.7,45.2c4.3-2.1,5.2,4.1,11.2,3.4c1.3-0.1,1.1-2.1-0.2-2c-5.5,0.6-5.7-6.3-11.8-3.2C46.7,44,47.6,45.8,48.7,45.2   L48.7,45.2z M39.9,45.2c4.3-2.1,5.2,4.1,11.2,3.4c1.3-0.1,1.1-2.1-0.2-2c-5.5,0.6-5.7-6.3-11.8-3.2C37.9,44,38.8,45.8,39.9,45.2   L39.9,45.2z M31.1,45.2c4.3-2.1,5.2,4.1,11.2,3.4c1.3-0.1,1.1-2.1-0.2-2c-5.5,0.6-5.7-6.3-11.8-3.2C29.1,44,30,45.8,31.1,45.2   L31.1,45.2z M22.3,45.2c4.3-2.1,5.2,4.1,11.2,3.4c1.3-0.1,1.1-2.1-0.2-2c-5.5,0.6-5.7-6.3-11.8-3.2C20.3,44,21.1,45.8,22.3,45.2   L22.3,45.2z M13.5,45.2c4.3-2.1,5.2,4.1,11.2,3.4c1.3-0.1,1.1-2.1-0.2-2c-5.5,0.6-5.7-6.3-11.8-3.2C11.4,44,12.3,45.8,13.5,45.2z"/></g></svg>